<svg xmlns="http://www.w3.org/2000/svg" version="1.1" xmlns:xlink="http://www.w3.org/1999/xlink" xmlns:svgjs="http://svgjs.com/svgjs" viewBox="0 0 24 24" height="24" width="24"><title>Exported from Streamline App (https://app.streamlineicons.com)</title><g transform="matrix(1,0,0,1,0,0)"><path d="M6.1,7.4c0.207,0.162,0.504,0.136,0.68-0.06c2.576-2.883,7.001-3.131,9.884-0.555C16.815,6.92,16.961,7.062,17.1,7.21 c0.194,0.196,0.511,0.197,0.707,0.003c0.001-0.001,0.002-0.002,0.003-0.003l2.92-2.74c0.196-0.194,0.197-0.511,0.003-0.707 c-0.001-0.001-0.002-0.002-0.003-0.003C16.186-1.064,8.591-1.291,3.767,3.253C3.462,3.54,3.173,3.843,2.9,4.16 C2.72,4.37,2.744,4.685,2.954,4.865C2.969,4.878,2.984,4.889,3,4.9L6.1,7.4z M5.24,14.79c0.148-0.133,0.203-0.341,0.14-0.53 c-0.494-1.446-0.494-3.014,0-4.46c0.067-0.199,0.003-0.418-0.16-0.55L1.95,6.64C1.734,6.468,1.419,6.504,1.247,6.72 C1.225,6.748,1.206,6.778,1.19,6.81c-1.625,3.377-1.57,7.321,0.15,10.65c0.127,0.245,0.429,0.341,0.674,0.214 c0.038-0.02,0.074-0.045,0.106-0.074L5.24,14.79z M24,10.5c0-0.276-0.224-0.5-0.5-0.5h-10c-0.276,0-0.5,0.224-0.5,0.5v4 c0,0.276,0.224,0.5,0.5,0.5h4.84c-0.295,0.61-0.679,1.173-1.14,1.67c-0.172,0.19-0.172,0.48,0,0.67l2.67,3 c0.189,0.202,0.505,0.212,0.707,0.023c0.008-0.007,0.016-0.015,0.023-0.023c2.035-2.082,3.243-4.833,3.4-7.74V10.5z M15.52,18.46 c-0.146-0.163-0.381-0.211-0.58-0.12c-2.764,1.302-6.055,0.639-8.1-1.63c-0.194-0.191-0.506-0.191-0.7,0l-3,2.68 c-0.196,0.194-0.197,0.511-0.003,0.707c0.001,0.001,0.002,0.002,0.003,0.003c3.832,4.215,10.1,5.156,15,2.25 c0.237-0.141,0.315-0.448,0.174-0.685c-0.016-0.027-0.034-0.052-0.054-0.075L15.52,18.46z" stroke="none" fill="#000000" stroke-width="0" stroke-linecap="round" stroke-linejoin="round"></path></g></svg>