<?xml version="1.0" encoding="UTF-8"?>
<svg width="26px" height="26px" viewBox="0 0 26 26" version="1.1" xmlns="http://www.w3.org/2000/svg" xmlns:xlink="http://www.w3.org/1999/xlink">
    <!-- Generator: Sketch 54.1 (76490) - https://sketchapp.com -->
    <title>Group</title>
    <desc>Created with Sketch.</desc>
    <g id="Icons" stroke="none" stroke-width="1" fill="none" fill-rule="evenodd">
        <g id="Icons-Social" transform="translate(-297.000000, -169.000000)">
            <g id="Group" transform="translate(298.000000, 170.000000)">
                <g id="github-copy" transform="translate(3.000000, 4.000000)" fill="#12151A" fill-rule="nonzero">
                    <path d="M12.425,18.985 L12.425,16.95 C12.425,15.869 12.054,15.074 11.313,14.565 C11.778,14.52 12.204,14.458 12.592,14.377 C12.98,14.296 13.391,14.18 13.825,14.029 C14.259,13.878 14.647,13.696 14.991,13.486 C15.335,13.276 15.665,13.004 15.982,12.669 C16.299,12.334 16.565,11.954 16.779,11.53 C16.994,11.106 17.163,10.597 17.288,10.003 C17.413,9.409 17.476,8.755 17.476,8.04 C17.476,6.656 17.025,5.477 16.123,4.503 C16.534,3.431 16.489,2.266 15.989,1.006 L15.654,0.966 C15.422,0.939 15.004,1.037 14.401,1.261 C13.798,1.485 13.122,1.85 12.371,2.359 C11.308,2.064 10.205,1.917 9.062,1.917 C7.91,1.917 6.811,2.064 5.766,2.359 C5.293,2.037 4.844,1.772 4.42,1.562 C3.996,1.352 3.656,1.209 3.402,1.133 C3.147,1.057 2.911,1.01 2.692,0.992 C2.473,0.974 2.333,0.97 2.27,0.979 C2.207,0.988 2.163,0.997 2.136,1.006 C1.636,2.274 1.591,3.44 2.002,4.503 C1.1,5.476 0.649,6.655 0.649,8.04 C0.649,8.755 0.712,9.409 0.837,10.003 C0.962,10.597 1.132,11.106 1.346,11.53 C1.56,11.954 1.826,12.334 2.143,12.669 C2.46,13.004 2.79,13.276 3.134,13.486 C3.478,13.696 3.866,13.877 4.3,14.029 C4.733,14.181 5.144,14.297 5.533,14.377 C5.922,14.457 6.348,14.52 6.812,14.565 C6.08,15.065 5.714,15.86 5.714,16.95 L5.714,19.025 C7.5,20 11,20 12.425,18.985 Z" id="Shape"></path>
                </g>
                <circle id="Oval" stroke="#12151A" stroke-width="1.5" cx="12" cy="12" r="12"></circle>
            </g>
        </g>
    </g>
</svg>