<svg xmlns="http://www.w3.org/2000/svg" version="1.1" xmlns:xlink="http://www.w3.org/1999/xlink" xmlns:svgjs="http://svgjs.com/svgjs" viewBox="0 0 24 24" height="24" width="24"><title>Exported from Streamline App (https://app.streamlineicons.com)</title><g transform="matrix(1,0,0,1,0,0)"><path d="M14.92,1.37c0.066-0.121,0.022-0.273-0.099-0.339C14.784,1.01,14.742,1,14.7,1h-6C8.439,0.999,8.221,1.2,8.2,1.46 c-0.085,0.091-0.159,0.191-0.22,0.3l-7.44,13c-0.238,0.443-0.238,0.977,0,1.42l3,6l0.07,0.12c0.07,0.119,0.224,0.158,0.343,0.087 c0.036-0.021,0.066-0.051,0.087-0.087L14.92,1.37z M5.47,22.63c-0.066,0.121-0.022,0.273,0.099,0.339 C5.609,22.991,5.654,23.002,5.7,23h13.42c0.538-0.002,1.034-0.292,1.3-0.76l3.21-5.62c0.066-0.121,0.022-0.273-0.099-0.339 c-0.037-0.02-0.079-0.031-0.121-0.031H9.12c-0.185,0.001-0.355,0.105-0.44,0.27L5.47,22.63z M23.42,14.75 c0.138,0,0.25-0.111,0.251-0.249c0-0.042-0.01-0.084-0.031-0.121l-7-12.23c-0.066-0.122-0.217-0.167-0.339-0.101 C16.258,2.072,16.223,2.107,16.2,2.15l-3,5.8c-0.075,0.144-0.075,0.316,0,0.46l3.18,6.07c0.085,0.165,0.255,0.269,0.44,0.27 L23.42,14.75z" stroke="none" fill="#000000" stroke-width="0" stroke-linecap="round" stroke-linejoin="round"></path></g></svg>