<svg xmlns="http://www.w3.org/2000/svg" version="1.1" xmlns:xlink="http://www.w3.org/1999/xlink" xmlns:svgjs="http://svgjs.com/svgjs" viewBox="0 0 24 24" height="24" width="24"><title>Exported from Streamline App (https://app.streamlineicons.com)</title><g transform="matrix(1,0,0,1,0,0)"><path d="M24,11.034c0-1.381-1.119-2.5-2.5-2.5h-6.311c-0.138,0-0.25-0.112-0.249-0.251c0-0.026,0.004-0.052,0.012-0.077 c0.552-1.399,0.731-2.918,0.52-4.407c-0.588-2.1-1.834-2.7-2.808-2.565C11.673,1.402,10.961,2.28,11,3.284 c0,2.746-2.129,5.746-4.034,7.061c-0.135,0.093-0.216,0.247-0.216,0.412v10.116c0,0.24,0.17,0.445,0.405,0.491 c0.357,0.068,0.681,0.135,0.987,0.2c1.346,0.32,2.725,0.478,4.108,0.471h6.5c1.958,0,2.25-1.1,2.25-1.75 c0-0.345-0.079-0.685-0.231-0.995c1.098-0.558,1.543-1.895,1-3c1.108-0.563,1.55-1.917,0.987-3.025 c-0.009-0.018-0.018-0.035-0.028-0.053C23.514,12.769,24,11.936,24,11.034z M5.25,10.784c0-0.552-0.448-1-1-1H1 c-0.552,0-1,0.448-1,1v11c0,0.552,0.448,1,1,1h3.25c0.552,0,1-0.448,1-1V10.784z M3.75,20.034c0,0.414-0.336,0.75-0.75,0.75 s-0.75-0.336-0.75-0.75s0.336-0.75,0.75-0.75S3.75,19.62,3.75,20.034z" stroke="none" fill="#000000" stroke-width="0" stroke-linecap="round" stroke-linejoin="round"></path></g></svg>