<?xml version="1.0" encoding="utf-8"?>
<!-- Generator: Adobe Illustrator 24.0.0, SVG Export Plug-In . SVG Version: 6.00 Build 0)  -->
<svg version="1.1" xmlns="http://www.w3.org/2000/svg" xmlns:xlink="http://www.w3.org/1999/xlink" x="0px" y="0px"
	 viewBox="0 0 121.5 121.5" style="enable-background:new 0 0 121.5 121.5;" xml:space="preserve">
<style type="text/css">
	.st0{fill:#D9CFFF;}
	.st1{opacity:0.3;}
	.st2{clip-path:url(#SVGID_2_);}
	.st3{fill:#FFFFFF;}
	.st4{fill:none;stroke:#3F20BA;stroke-width:1.2;stroke-miterlimit:10;}
	.st5{fill:#D9CFFF;stroke:#3F20BA;stroke-width:1.2;stroke-linecap:round;stroke-linejoin:round;stroke-miterlimit:10;}
	.st6{fill:#D9CFFF;stroke:#3F20BA;stroke-width:1.2;stroke-miterlimit:10;}
	.st7{fill:#3F20BA;}
	.st8{fill:#D9CFFF;stroke:#3F20BA;stroke-width:1.35;stroke-miterlimit:10;}
	.st9{fill:none;stroke:#3F20BA;stroke-width:1.35;stroke-miterlimit:10;}
	.st10{fill:none;stroke:#3F20BA;stroke-width:0.75;stroke-linejoin:round;stroke-miterlimit:10;}
	.st11{fill:none;stroke:#3F20BA;stroke-width:1.2;stroke-linejoin:round;stroke-miterlimit:10;}
	.st12{fill:#09D900;}
	.st13{fill:none;stroke:#3F20BA;stroke-width:1.35;stroke-linejoin:round;stroke-miterlimit:10;}
	.st14{fill:none;stroke:#3F20BA;stroke-width:1.35;stroke-linecap:round;stroke-linejoin:round;stroke-miterlimit:10;}
	.st15{fill:#D9CFFF;stroke:#3F20BA;stroke-width:1.35;stroke-linecap:round;stroke-miterlimit:10;}
	.st16{fill:none;stroke:#3F20BA;stroke-width:0.75;stroke-miterlimit:10;}
	.st17{fill:#D9CFFF;stroke:#3F20BA;stroke-width:0.75;stroke-miterlimit:10;}
	.st18{fill:#FFFFFF;stroke:#3F20BA;stroke-width:0.75;stroke-miterlimit:10;}
	.st19{fill:none;stroke:#3F20BA;stroke-width:1.5;stroke-miterlimit:10;}
	.st20{fill:none;stroke:#3F20BA;stroke-width:0.75;stroke-linecap:round;stroke-miterlimit:10;}
	.st21{fill:none;stroke:#3F20BA;stroke-width:1.35;stroke-linecap:round;stroke-miterlimit:10;}
	.st22{fill:#FFFFFF;stroke:#3F20BA;stroke-width:1.35;stroke-linecap:round;stroke-miterlimit:10;}
	.st23{fill:#FFFFFF;stroke:#3F20BA;stroke-width:1.35;stroke-linecap:round;stroke-linejoin:round;stroke-miterlimit:10;}
	.st24{fill:none;stroke:#3F20BA;stroke-linecap:round;stroke-linejoin:round;stroke-miterlimit:10;}
	.st25{fill:#D9CFFF;stroke:#3F20BA;stroke-width:0.75;stroke-linecap:round;stroke-linejoin:round;stroke-miterlimit:10;}
	.st26{fill:none;stroke:#3F20BA;stroke-width:0.5;stroke-linecap:round;stroke-linejoin:round;stroke-miterlimit:10;}
	.st27{fill:#D9CFFF;stroke:#3F20BA;stroke-width:0.5;stroke-linecap:round;stroke-linejoin:round;stroke-miterlimit:10;}
	.st28{fill:#D9CFFF;stroke:#3F20BA;stroke-width:0.5;stroke-miterlimit:10;}
	.st29{fill:none;stroke:#3F20BA;stroke-width:0.5;stroke-miterlimit:10;}
	.st30{fill:#FFFFFF;stroke:#3F20BA;stroke-width:0.5;stroke-linejoin:round;stroke-miterlimit:10;}
	.st31{fill:#FFFFFF;stroke:#3F20BA;stroke-width:0.5;stroke-linecap:round;stroke-linejoin:round;stroke-miterlimit:10;}
	.st32{fill:#D9CFFF;stroke:#3F20BA;stroke-width:0.5;stroke-linejoin:round;stroke-miterlimit:10;}
	.st33{clip-path:url(#SVGID_4_);}
	.st34{clip-path:url(#SVGID_6_);}
	.st35{fill:none;}
	.st36{fill:none;stroke:#37FF2E;stroke-miterlimit:10;}
	.st37{fill:none;stroke:#37FF2E;stroke-width:1.35;stroke-linecap:round;stroke-linejoin:round;stroke-miterlimit:10;}
	.st38{fill:#D9CFFF;stroke:#3F20BA;stroke-width:1.25;stroke-linecap:round;stroke-linejoin:round;stroke-miterlimit:10;}
	.st39{fill:none;stroke:#3F20BA;stroke-width:0.75;stroke-linecap:round;stroke-linejoin:round;stroke-miterlimit:10;}
</style>
<g id="Layer_3">
</g>
<g id="Layer_1">
	<g>
		<path class="st3" d="M99.43,64.49l-4.01-2.31l0,0l0.01,0l0.04-19.28l-0.04,0.03v-9.22c0-1.51-0.96-2.67-2.2-3.13l0.06,0.01
			L74.63,19.82c-2.06-1.19-4.6-1.19-6.66,0l-10.04,5.79l-2.58-1.49c-1.37-0.79-3.07-0.79-4.44,0l-9.23,5.34
			c-1.39,0.8-2.44,2.07-2.96,3.59l-1.6,4.59l-13.35,7.7c-3.09,1.78-4.99,5.08-4.99,8.65v33.67c0,0.28,0.02,0.55,0.05,0.82
			c0.01,0.07,0.02,0.13,0.03,0.2c0.13,0.82,0.4,1.6,0.8,2.3c0.29,0.5,0.64,0.96,1.05,1.37c0.41,0.41,0.87,0.77,1.39,1.07l14.1,8.14
			c1.03,0.59,2.18,0.89,3.33,0.89c0.86,0,1.72-0.17,2.54-0.5c0.27-0.11,0.54-0.24,0.79-0.39l25.98-15l0,0l0.03-0.02h0
			c1.58,0.54,3.37,0.49,5.25-0.1l0.87,0.5c0,0,0,0,0,0l0,0l1.72,0.99h0l0,0l5.15,2.98c0,0,0,0,0,0v0l1.72,0.99
			c4.37,2.52,11.46-1.57,15.83-9.14C103.8,75.2,103.8,67.01,99.43,64.49z"/>
		<path class="st0" d="M97.29,68.19c-0.86-0.5-1.86-0.63-2.93-0.47l0,0c1.08,2.73,0.46,7-1.87,11.04s-5.72,6.71-8.63,7.15l0,0
			c0.4,1,1.02,1.81,1.88,2.3c3.19,1.84,8.37-1.14,11.56-6.67C100.49,76.01,100.49,70.04,97.29,68.19z"/>
		<path class="st0" d="M86.43,53.7C86.43,53.7,86.43,53.7,86.43,53.7c1.82,1.05,3,2.93,3.53,5.32l5.46,3.15l0.04-19.28L81.6,50.91
			L86.43,53.7z"/>
		<path class="st0" d="M67.76,86.05l-9.61-5.55c-3.76-2.17-4.77-7.89-3.04-14.29l-15.51,8.95L18.79,63.15v24.51
			c0,2.38,1.27,4.58,3.33,5.77l14.1,8.14c2.06,1.19,4.6,1.19,6.66,0l26.01-15.02C68.5,86.42,68.12,86.26,67.76,86.05z"/>
		<path class="st9" d="M95.42,62.24V33.71c0-2.56-2.77-4.17-4.99-2.88L44.54,57.32c-3.09,1.78-4.99,5.08-4.99,8.65v36.49"/>
		<ellipse transform="matrix(0.5 -0.866 0.866 0.5 -21.9676 118.3552)" class="st9" cx="91.51" cy="78.2" rx="15.83" ry="9.14"/>
		<ellipse transform="matrix(0.5 -0.866 0.866 0.5 -21.9676 118.3552)" class="st9" cx="91.51" cy="78.2" rx="11.56" ry="6.67"/>
		<path class="st16" d="M94.36,67.72c-2.9,0.43-6.29,3.1-8.63,7.15c-2.33,4.04-2.95,8.31-1.87,11.04c2.9-0.43,6.29-3.1,8.63-7.15
			C94.82,74.72,95.44,70.45,94.36,67.72z"/>
		<g>
			<path class="st9" d="M89.97,59.03c-0.54-2.39-1.71-4.27-3.53-5.32c-5.16-2.98-13.52,1.85-18.68,10.78s-5.16,18.59,0,21.56
				c1.82,1.05,4.04,1.13,6.38,0.4"/>
			<path class="st9" d="M67.76,64.49c5.16-8.93,13.52-13.76,18.68-10.78l-9.61-5.55C71.66,45.18,63.3,50,58.15,58.94
				s-5.16,18.59,0,21.56l9.61,5.55C62.6,83.07,62.6,73.42,67.76,64.49z"/>
		</g>
		<g>
			<ellipse class="st17" cx="37.15" cy="47.1" rx="5.39" ry="3.11"/>
			<path class="st17" d="M37.15,50.21c-2.98,0-5.39-1.39-5.39-3.11v2.5c0,1.72,2.41,3.11,5.39,3.11s5.39-1.39,5.39-3.11v-2.5
				C42.54,48.82,40.13,50.21,37.15,50.21z"/>
		</g>
		<ellipse class="st16" cx="71.28" cy="25.46" rx="3.12" ry="1.8"/>
		<ellipse class="st16" cx="78.97" cy="29.9" rx="3.12" ry="1.8"/>
		<path class="st16" d="M82.45,44.34v-3.46c0-0.79,0.42-1.53,1.11-1.92l6.6-3.81c0.74-0.43,1.66,0.11,1.66,0.96v3.46
			c0,0.79-0.42,1.53-1.11,1.92l-6.6,3.81C83.37,45.72,82.45,45.19,82.45,44.34z"/>
		<path class="st9" d="M99.43,64.49l-12.01-6.94c-4.37-2.52-11.46,1.57-15.83,9.14c-4.37,7.57-4.37,15.76,0,18.28l12.01,6.94"/>
		<path class="st9" d="M37.13,37.63l-13.35,7.7c-3.09,1.78-4.99,5.08-4.99,8.65v33.67c0,2.38,1.27,4.58,3.33,5.77l14.1,8.14
			c2.06,1.19,4.6,1.19,6.66,0l25.98-15"/>
		<path class="st9" d="M93.29,30.59L74.63,19.82c-2.06-1.19-4.6-1.19-6.66,0l-10.04,5.8"/>
		<line class="st16" x1="81.58" y1="50.92" x2="95.47" y2="42.9"/>
		<polyline class="st16" points="55.16,66.17 39.59,75.16 18.79,63.15 		"/>
		<polyline class="st9" points="77.1,38.52 57.88,49.62 37.13,37.64 		"/>
		<path class="st9" d="M77.1,38.52l-1.29-2.24c-0.61-1.06-1.97-1.43-3.03-0.81l-10.35,5.97c-1.39,0.8-2.44,2.07-2.96,3.59
			l-1.59,4.59"/>
		<path class="st9" d="M74.87,35.39L55.35,24.12c-1.37-0.79-3.07-0.79-4.44,0l-9.23,5.34c-1.39,0.8-2.44,2.07-2.96,3.59l-1.59,4.59"
			/>
		<line class="st16" x1="60.28" y1="42.68" x2="39.92" y2="30.93"/>
		<g>
			<g>
				<path class="st7" d="M64.54,62.63c-1.87,3.44-3.25,7.2-3.57,11.09c-0.16,1.93-0.06,3.9,0.48,5.74c0.53,1.83,1.67,3.48,3.27,4.41
					l-0.38,0.65c-1.78-1.11-2.94-2.97-3.44-4.91c-0.51-1.95-0.54-3.97-0.31-5.93C61.06,69.73,62.57,66.01,64.54,62.63z"/>
			</g>
			<g>
				<path class="st7" d="M61.33,60.77c-1.87,3.44-3.25,7.2-3.57,11.09c-0.16,1.93-0.06,3.9,0.48,5.74c0.53,1.83,1.67,3.48,3.27,4.41
					l-0.38,0.65c-1.78-1.11-2.94-2.97-3.44-4.91c-0.51-1.95-0.54-3.97-0.31-5.93C57.84,67.88,59.35,64.15,61.33,60.77z"/>
			</g>
			<g>
				<g>
					<path class="st7" d="M62.98,71.33c-0.52,2.46-0.75,5.01-0.34,7.47c0.21,1.22,0.59,2.42,1.2,3.48c0.61,1.05,1.47,1.95,2.51,2.52
						l-0.38,0.65c-1.14-0.7-2.03-1.74-2.63-2.9c-0.6-1.16-0.93-2.42-1.08-3.69C61.97,76.31,62.33,73.76,62.98,71.33z"/>
				</g>
				<g>
					<path class="st7" d="M59.76,69.47c-0.52,2.46-0.75,5.01-0.34,7.47c0.21,1.22,0.59,2.42,1.2,3.48c0.61,1.05,1.47,1.95,2.51,2.52
						l-0.38,0.65c-1.14-0.7-2.03-1.74-2.62-2.9c-0.6-1.16-0.93-2.42-1.08-3.69C58.75,74.45,59.12,71.9,59.76,69.47z"/>
				</g>
				<g>
					<path class="st7" d="M56.55,67.62c-0.52,2.46-0.75,5.01-0.34,7.47c0.21,1.22,0.59,2.42,1.2,3.48c0.61,1.05,1.47,1.95,2.51,2.52
						l-0.38,0.65c-1.14-0.7-2.03-1.74-2.63-2.9c-0.6-1.16-0.93-2.42-1.08-3.69C55.54,72.6,55.9,70.05,56.55,67.62z"/>
				</g>
			</g>
		</g>
		<g>
			<g>
				<path class="st7" d="M80.16,71.65c-1.57,2.92-2.73,6.11-3,9.4c-0.13,1.64-0.04,3.3,0.42,4.85c0.45,1.55,1.42,2.93,2.76,3.7
					l-0.38,0.65c-1.52-0.95-2.51-2.55-2.93-4.2c-0.43-1.66-0.45-3.38-0.25-5.05C77.19,77.66,78.48,74.51,80.16,71.65z"/>
			</g>
			<g>
				<path class="st7" d="M76.72,69.66c-1.57,2.92-2.73,6.11-3,9.4c-0.13,1.64-0.04,3.3,0.42,4.85c0.45,1.55,1.42,2.93,2.76,3.7
					l-0.38,0.65c-1.52-0.95-2.51-2.55-2.93-4.2c-0.43-1.66-0.45-3.38-0.25-5.05C73.75,75.68,75.04,72.52,76.72,69.66z"/>
			</g>
			<g>
				<path class="st7" d="M73.29,67.68c-1.58,2.92-2.73,6.11-3,9.4c-0.13,1.64-0.04,3.3,0.42,4.85c0.45,1.55,1.42,2.93,2.76,3.7
					l-0.38,0.65c-1.52-0.95-2.51-2.55-2.93-4.2c-0.43-1.66-0.45-3.38-0.25-5.05C70.31,73.7,71.61,70.54,73.29,67.68z"/>
			</g>
			<g>
				<g>
					<path class="st7" d="M79.2,79.17c-0.44,2.1-0.63,4.27-0.28,6.36c0.18,1.04,0.5,2.06,1.02,2.95c0.52,0.89,1.24,1.64,2.12,2.12
						l-0.38,0.65c-0.98-0.61-1.74-1.51-2.24-2.5c-0.51-1-0.78-2.08-0.9-3.16C78.32,83.41,78.64,81.24,79.2,79.17z"/>
				</g>
				<g>
					<path class="st7" d="M75.77,77.19c-0.44,2.1-0.63,4.27-0.28,6.36c0.18,1.04,0.5,2.06,1.02,2.95c0.52,0.89,1.24,1.64,2.12,2.12
						l-0.38,0.65c-0.98-0.61-1.74-1.51-2.24-2.5c-0.51-1-0.78-2.08-0.9-3.16C74.88,81.42,75.2,79.25,75.77,77.19z"/>
				</g>
				<g>
					<path class="st7" d="M72.33,75.2c-0.44,2.1-0.63,4.27-0.28,6.36c0.18,1.04,0.5,2.06,1.02,2.95c0.52,0.89,1.24,1.64,2.12,2.12
						l-0.38,0.65c-0.98-0.61-1.74-1.51-2.24-2.5c-0.51-1-0.78-2.08-0.9-3.16C71.44,79.44,71.77,77.27,72.33,75.2z"/>
				</g>
			</g>
		</g>
		<g>
			<g>
				<path class="st7" d="M37.58,102.57l0.38-12.94l0.38,12.94c0.01,0.21-0.16,0.38-0.36,0.39c-0.21,0.01-0.38-0.16-0.39-0.36
					C37.57,102.58,37.58,102.58,37.58,102.57z"/>
			</g>
			<g>
				<path class="st7" d="M35.98,101.65l0.38-20.44l0.38,20.44c0,0.21-0.16,0.38-0.37,0.38c-0.21,0-0.38-0.16-0.38-0.37
					C35.98,101.66,35.98,101.65,35.98,101.65z"/>
			</g>
			<g>
				<path class="st7" d="M34.38,100.73l0.38-12.94l0.38,12.94c0.01,0.21-0.16,0.38-0.36,0.39c-0.21,0.01-0.38-0.16-0.39-0.36
					C34.38,100.74,34.38,100.73,34.38,100.73z"/>
			</g>
			<g>
				<path class="st7" d="M32.79,99.81l0.38-20.44l0.38,20.44c0,0.21-0.16,0.38-0.37,0.38c-0.21,0-0.38-0.16-0.38-0.37
					C32.79,99.82,32.79,99.81,32.79,99.81z"/>
			</g>
			<g>
				<path class="st7" d="M31.19,98.89l0.38-12.94l0.38,12.94c0.01,0.21-0.16,0.38-0.36,0.39c-0.21,0.01-0.38-0.16-0.39-0.36
					C31.19,98.9,31.19,98.89,31.19,98.89z"/>
			</g>
			<g>
				<path class="st7" d="M29.6,97.96l0.38-20.44l0.38,20.44c0,0.21-0.16,0.38-0.37,0.38c-0.21,0-0.38-0.16-0.38-0.37
					C29.6,97.97,29.6,97.97,29.6,97.96z"/>
			</g>
			<g>
				<path class="st7" d="M28,97.04l0.38-12.94l0.38,12.94c0.01,0.21-0.16,0.38-0.36,0.39c-0.21,0.01-0.38-0.16-0.39-0.36
					C28,97.06,28,97.05,28,97.04z"/>
			</g>
			<g>
				<path class="st7" d="M26.41,96.12l0.38-20.44l0.38,20.44c0,0.21-0.16,0.38-0.37,0.38c-0.21,0-0.38-0.16-0.38-0.37
					C26.41,96.13,26.41,96.13,26.41,96.12z"/>
			</g>
			<g>
				<path class="st7" d="M24.81,95.2l0.38-12.94l0.38,12.94c0.01,0.21-0.16,0.38-0.36,0.39c-0.21,0.01-0.38-0.16-0.39-0.36
					C24.81,95.22,24.81,95.21,24.81,95.2z"/>
			</g>
			<g>
				<path class="st7" d="M23.22,94.28l0.38-20.44l0.38,20.44c0,0.21-0.16,0.38-0.37,0.38c-0.21,0-0.38-0.16-0.38-0.37
					C23.22,94.29,23.22,94.28,23.22,94.28z"/>
			</g>
			<g>
				<path class="st7" d="M21.62,93.36L22,80.42l0.38,12.94c0.01,0.21-0.16,0.38-0.36,0.39c-0.21,0.01-0.38-0.16-0.39-0.36
					C21.62,93.37,21.62,93.37,21.62,93.36z"/>
			</g>
			<g>
				<path class="st7" d="M20.03,92.44L20.4,72l0.38,20.44c0,0.21-0.16,0.38-0.37,0.38c-0.21,0-0.38-0.16-0.38-0.37
					C20.03,92.45,20.03,92.44,20.03,92.44z"/>
			</g>
		</g>
	</g>
</g>
<g id="Layer_2">
</g>
</svg>
