<svg id="e2b435e2-5181-4ee8-9133-d1c8ba1e35bb" data-name="Layer 1" xmlns="http://www.w3.org/2000/svg" viewBox="0 0 24 24"><defs><style>.a8ac517d-5eda-4ecd-a41f-35d9425a8ec9{fill:#fff;}.bb7357fc-1993-4fd0-9798-a6cf818ed67b{fill:none;}.bb7357fc-1993-4fd0-9798-a6cf818ed67b,.ecec9182-386f-4d8f-8365-3fbc576a4c2f{stroke:#3f20ba;stroke-linecap:round;stroke-linejoin:round;stroke-width:0.5px;}.ecec9182-386f-4d8f-8365-3fbc576a4c2f{fill:#d9cfff;}.b0592a60-91c9-4305-8e4a-9f1bf7ca0875{fill:#3f20ba;}</style></defs><title>Apollo-Custom-Icons</title><polygon class="a8ac517d-5eda-4ecd-a41f-35d9425a8ec9" points="12 2.11 3.45 7.05 3.45 16.95 12 21.89 20.55 16.95 20.55 7.05 12 2.11"/><polygon class="bb7357fc-1993-4fd0-9798-a6cf818ed67b" points="20.55 7.05 20.55 16.95 12 21.89 12 11.98 20.55 7.05"/><polygon class="bb7357fc-1993-4fd0-9798-a6cf818ed67b" points="20.55 7.05 12 11.98 3.45 7.05 12 2.11 20.55 7.05"/><line class="bb7357fc-1993-4fd0-9798-a6cf818ed67b" x1="12.94" y1="6.23" x2="16.04" y2="4.44"/><line class="bb7357fc-1993-4fd0-9798-a6cf818ed67b" x1="7.49" y1="9.38" x2="10.58" y2="7.59"/><polygon class="ecec9182-386f-4d8f-8365-3fbc576a4c2f" points="6.54 5.26 15.09 10.2 17.45 8.83 8.91 3.9 6.54 5.26"/><polygon class="ecec9182-386f-4d8f-8365-3fbc576a4c2f" points="17.45 8.83 17.45 13.74 15.09 15.11 15.09 10.2 17.45 8.83"/><polygon class="bb7357fc-1993-4fd0-9798-a6cf818ed67b" points="12 21.89 12 11.98 3.45 7.05 3.45 16.95 12 21.89"/><path class="b0592a60-91c9-4305-8e4a-9f1bf7ca0875" d="M4.15,17.5,4.4,12l.25,5.46a.25.25,0,0,1-.24.26.24.24,0,0,1-.26-.24Z"/><path class="b0592a60-91c9-4305-8e4a-9f1bf7ca0875" d="M5.09,18l.25-5.45L5.59,18a.26.26,0,0,1-.24.27.26.26,0,0,1-.26-.24Z"/><path class="b0592a60-91c9-4305-8e4a-9f1bf7ca0875" d="M6,18.59l.25-5.45.25,5.45a.26.26,0,0,1-.24.26A.24.24,0,0,1,6,18.61S6,18.6,6,18.59Z"/><path class="b0592a60-91c9-4305-8e4a-9f1bf7ca0875" d="M7,19.13l.25-5.45.25,5.45a.25.25,0,1,1-.5,0Z"/><path class="b0592a60-91c9-4305-8e4a-9f1bf7ca0875" d="M7.92,19.68l.25-5.45.25,5.45a.24.24,0,0,1-.23.26.26.26,0,0,1-.27-.24Z"/><path class="b0592a60-91c9-4305-8e4a-9f1bf7ca0875" d="M8.87,20.23l.25-5.46.25,5.46a.25.25,0,0,1-.5,0Z"/><path class="b0592a60-91c9-4305-8e4a-9f1bf7ca0875" d="M9.81,20.77l.25-5.45.25,5.45a.24.24,0,0,1-.23.26.26.26,0,0,1-.27-.24Z"/><path class="b0592a60-91c9-4305-8e4a-9f1bf7ca0875" d="M10.76,21.32,11,15.86l.25,5.46a.26.26,0,0,1-.24.26.25.25,0,0,1-.26-.24Z"/></svg>