<?xml version="1.0" encoding="utf-8"?>
<!-- Generator: Adobe Illustrator 24.0.0, SVG Export Plug-In . SVG Version: 6.00 Build 0)  -->
<svg version="1.1" xmlns="http://www.w3.org/2000/svg" xmlns:xlink="http://www.w3.org/1999/xlink" x="0px" y="0px"
	 viewBox="0 0 121.5 121.5" style="enable-background:new 0 0 121.5 121.5;" xml:space="preserve">
<style type="text/css">
	.st0{fill:#D9CFFF;}
	.st1{opacity:0.3;}
	.st2{clip-path:url(#SVGID_2_);}
	.st3{fill:#FFFFFF;}
	.st4{fill:none;stroke:#3F20BA;stroke-width:1.2;stroke-miterlimit:10;}
	.st5{fill:#D9CFFF;stroke:#3F20BA;stroke-width:1.2;stroke-linecap:round;stroke-linejoin:round;stroke-miterlimit:10;}
	.st6{fill:#D9CFFF;stroke:#3F20BA;stroke-width:1.2;stroke-miterlimit:10;}
	.st7{fill:#3F20BA;}
	.st8{fill:#D9CFFF;stroke:#3F20BA;stroke-width:1.35;stroke-miterlimit:10;}
	.st9{fill:none;stroke:#3F20BA;stroke-width:1.35;stroke-miterlimit:10;}
	.st10{fill:none;stroke:#3F20BA;stroke-width:0.75;stroke-linejoin:round;stroke-miterlimit:10;}
	.st11{fill:none;stroke:#3F20BA;stroke-width:1.2;stroke-linejoin:round;stroke-miterlimit:10;}
	.st12{fill:#09D900;}
	.st13{fill:none;stroke:#3F20BA;stroke-width:1.35;stroke-linejoin:round;stroke-miterlimit:10;}
	.st14{fill:none;stroke:#3F20BA;stroke-width:1.35;stroke-linecap:round;stroke-linejoin:round;stroke-miterlimit:10;}
	.st15{fill:#D9CFFF;stroke:#3F20BA;stroke-width:1.35;stroke-linecap:round;stroke-miterlimit:10;}
	.st16{fill:none;stroke:#3F20BA;stroke-width:0.75;stroke-miterlimit:10;}
	.st17{fill:#D9CFFF;stroke:#3F20BA;stroke-width:0.75;stroke-miterlimit:10;}
	.st18{fill:#FFFFFF;stroke:#3F20BA;stroke-width:0.75;stroke-miterlimit:10;}
	.st19{fill:none;stroke:#3F20BA;stroke-width:1.5;stroke-miterlimit:10;}
	.st20{fill:none;stroke:#3F20BA;stroke-width:0.75;stroke-linecap:round;stroke-miterlimit:10;}
	.st21{fill:none;stroke:#3F20BA;stroke-width:1.35;stroke-linecap:round;stroke-miterlimit:10;}
	.st22{fill:#FFFFFF;stroke:#3F20BA;stroke-width:1.35;stroke-linecap:round;stroke-miterlimit:10;}
	.st23{fill:#FFFFFF;stroke:#3F20BA;stroke-width:1.35;stroke-linecap:round;stroke-linejoin:round;stroke-miterlimit:10;}
	.st24{fill:none;stroke:#3F20BA;stroke-linecap:round;stroke-linejoin:round;stroke-miterlimit:10;}
	.st25{fill:#D9CFFF;stroke:#3F20BA;stroke-width:0.75;stroke-linecap:round;stroke-linejoin:round;stroke-miterlimit:10;}
	.st26{fill:none;stroke:#3F20BA;stroke-width:0.5;stroke-linecap:round;stroke-linejoin:round;stroke-miterlimit:10;}
	.st27{fill:#D9CFFF;stroke:#3F20BA;stroke-width:0.5;stroke-linecap:round;stroke-linejoin:round;stroke-miterlimit:10;}
	.st28{fill:#D9CFFF;stroke:#3F20BA;stroke-width:0.5;stroke-miterlimit:10;}
	.st29{fill:none;stroke:#3F20BA;stroke-width:0.5;stroke-miterlimit:10;}
	.st30{fill:#FFFFFF;stroke:#3F20BA;stroke-width:0.5;stroke-linejoin:round;stroke-miterlimit:10;}
	.st31{fill:#FFFFFF;stroke:#3F20BA;stroke-width:0.5;stroke-linecap:round;stroke-linejoin:round;stroke-miterlimit:10;}
	.st32{fill:#D9CFFF;stroke:#3F20BA;stroke-width:0.5;stroke-linejoin:round;stroke-miterlimit:10;}
	.st33{clip-path:url(#SVGID_4_);}
	.st34{clip-path:url(#SVGID_6_);}
	.st35{fill:none;}
	.st36{fill:none;stroke:#37FF2E;stroke-miterlimit:10;}
	.st37{fill:none;stroke:#37FF2E;stroke-width:1.35;stroke-linecap:round;stroke-linejoin:round;stroke-miterlimit:10;}
	.st38{fill:#D9CFFF;stroke:#3F20BA;stroke-width:1.25;stroke-linecap:round;stroke-linejoin:round;stroke-miterlimit:10;}
	.st39{fill:none;stroke:#3F20BA;stroke-width:0.75;stroke-linecap:round;stroke-linejoin:round;stroke-miterlimit:10;}
</style>
<g id="Layer_3">
</g>
<g id="Layer_1">
	<g>
		<g>
			<path class="st3" d="M110.42,34.62v-6.84c-0.98-1.35-2.25-2.61-3.77-3.76l-7.28,1.66c-0.76-0.47-1.6-0.91-2.48-1.31
				c0.06,0.03,0.12,0.05,0.18,0.08v-5.17h-0.21c-2.21-0.66-4.58-1.17-7.07-1.49l-3.72,3.97c-0.87-0.06-1.76-0.1-2.67-0.1
				c-0.92,0-1.82,0.04-2.71,0.1l-3.68-3.98c-2.49,0.32-4.87,0.82-7.07,1.49h-0.21v5.17c0.06-0.03,0.12-0.05,0.18-0.08
				c-0.06,0.03-0.12,0.05-0.18,0.08v-0.01c0,0,0,0-0.01,0l0,0.01c-0.82,0.38-1.6,0.79-2.32,1.24l-7.25-1.68
				c-1.52,1.15-2.8,2.41-3.77,3.76v6.84l-2.21,0.42v8.9c0.12,1.48,0.8,2.92,1.54,4.28l6.16-0.1v6.49l5.77-2.89l1.2-0.48l7.44,3.92
				c0.54,0.12,1.12,0.22,1.76,0.31l1.6,4.46c1.23,0.09,2.49,0.14,3.76,0.14c1.28,0,2.53-0.05,3.77-0.14l1.63-4.46
				c1.77-0.24,2.98-0.59,4.55-1.06l5.82,3c2.13-0.79,4.07-1.72,5.77-2.79v-6.49l6.15,0.1c0.74-1.36,1.43-2.8,1.54-4.28v-8.9
				L110.42,34.62z M83.4,42.8c-8.16,0-14.77-3.82-14.77-8.52s6.61-8.52,14.77-8.52s14.77,3.82,14.77,8.52S91.55,42.8,83.4,42.8z"/>
			<g>
				<g>
					<path class="st0" d="M76.27,55.15c0.54,0.12,1.12,0.22,1.76,0.31l1.6,4.46v-8.9l-1.11-4.46c-1.77-0.23-3.46-0.59-5.04-1.06
						l-5.85,3v3.22l1.2-0.48L76.27,55.15z"/>
				</g>
				<path class="st0" d="M70.82,38.72c2.6-2.44,7.25-4.07,12.58-4.07s9.98,1.63,12.58,4.07c1.38-1.3,2.19-2.82,2.19-4.45
					c0-4.71-6.61-8.52-14.77-8.52s-14.77,3.82-14.77,8.52C68.63,35.9,69.44,37.42,70.82,38.72z"/>
				<g>
					<path class="st0" d="M88.79,55.46l-1.63,4.46v-8.9l1.14-4.46c1.77-0.24,3.46-0.59,5.04-1.06l5.82,3v8.9l-5.82-3
						C91.77,54.86,90.56,55.22,88.79,55.46z"/>
				</g>
				<g>
					<path class="st0" d="M104.93,45.7l-4.1-3.85c1.07-0.82,1.97-1.71,2.67-2.67l7.58,0.13v8.9l-6.16-0.1V45.7z"/>
				</g>
				<g>
					<path class="st0" d="M61.86,48.12V45.7l4.11-3.83c-1.08-0.82-1.98-1.72-2.69-2.68l-7.58,0.13v8.9L61.86,48.12z"/>
				</g>
				<g>
					<path class="st0" d="M104.28,30.58c0.51,0.97,0.83,1.99,0.93,3.04l5.21,1c0,0,0-6.84,0-6.84L104.28,30.58z"/>
				</g>
				<g>
					<path class="st0" d="M61.58,33.62c0.09-1.05,0.41-2.07,0.92-3.04l-6.13-2.81c0,0,0,6.84,0,6.84L61.58,33.62z"/>
				</g>
				<g>
					<path class="st0" d="M97.07,24.45v-5.18h-0.21l-1.61,4.41C95.88,23.92,96.49,24.18,97.07,24.45L97.07,24.45z"/>
				</g>
				<g>
					<path class="st0" d="M69.93,19.27l1.57,4.42c-0.62,0.23-1.22,0.48-1.79,0.75l0.01,0.01v-5.18H69.93z"/>
				</g>
			</g>
			<g>
				<line class="st10" x1="99.16" y1="48.5" x2="99.16" y2="57.4"/>
				<line class="st10" x1="111.09" y1="39.32" x2="111.09" y2="48.22"/>
				<line class="st10" x1="97.07" y1="19.27" x2="97.07" y2="24.45"/>
				<line class="st10" x1="69.72" y1="19.27" x2="69.72" y2="24.46"/>
				<line class="st10" x1="55.7" y1="39.32" x2="55.7" y2="48.22"/>
				<line class="st10" x1="67.63" y1="48.5" x2="67.63" y2="51.71"/>
				<line class="st10" x1="63.28" y1="39.19" x2="63.28" y2="44.35"/>
				<line class="st10" x1="73.48" y1="45.5" x2="73.48" y2="53.45"/>
				<line class="st10" x1="78.27" y1="46.56" x2="78.27" y2="55.46"/>
				<line class="st10" x1="88.55" y1="46.55" x2="88.55" y2="55.46"/>
				<line class="st10" x1="93.34" y1="45.49" x2="93.34" y2="54.39"/>
				<line class="st10" x1="103.51" y1="39.19" x2="103.51" y2="44.36"/>
				<g>
					<g>
						<ellipse class="st11" cx="83.4" cy="34.27" rx="14.77" ry="8.52"/>
						<path class="st11" d="M112.63,35.04c-0.12,1.48-0.8,2.92-1.54,4.28l-7.58-0.13c-0.7,0.96-1.6,1.85-2.67,2.67l4.1,3.85
							c-1.7,1.07-3.64,2.01-5.77,2.79l-5.82-3c-1.58,0.47-3.27,0.83-5.04,1.06l-1.34,4.46c-1.23,0.09-2.29,0.14-3.57,0.14
							c-1.28,0-2.34-0.05-3.57-0.14l-1.31-4.46c-1.77-0.23-3.46-0.59-5.04-1.06l-5.85,3c-2.13-0.79-4.07-1.72-5.77-2.79l4.11-3.83
							c-1.08-0.82-1.98-1.72-2.69-2.68l-7.58,0.13c-0.74-1.36-1.42-2.8-1.54-4.28l7.42-1.42c0.09-1.05,0.41-2.07,0.92-3.04
							l-6.13-2.81c0.98-1.35,2.25-2.61,3.77-3.76l7.25,1.68c1.22-0.76,2.6-1.43,4.11-1.99l-1.57-4.42c2.21-0.66,4.58-1.17,7.07-1.49
							l3.68,3.98c0.89-0.06,1.79-0.1,2.71-0.1c0.9,0,1.79,0.04,2.67,0.1l3.72-3.97c2.49,0.32,4.87,0.82,7.07,1.49l-1.61,4.41
							c1.51,0.57,2.89,1.23,4.12,1.99l7.28-1.66c1.52,1.15,2.8,2.41,3.77,3.76l-6.13,2.8c0.51,0.97,0.83,1.99,0.93,3.04
							L112.63,35.04z"/>
						<path class="st11" d="M70.82,38.72c2.6-2.44,7.25-4.07,12.58-4.07s9.98,1.63,12.58,4.07c1.38-1.3,2.19-2.82,2.19-4.45
							c0-4.71-6.61-8.52-14.77-8.52s-14.77,3.82-14.77,8.52C68.63,35.9,69.44,37.42,70.82,38.72z"/>
					</g>
					<line class="st11" x1="110.42" y1="27.78" x2="110.42" y2="34.62"/>
					<line class="st11" x1="56.38" y1="27.77" x2="56.38" y2="34.62"/>
					<path class="st11" d="M61.86,48.12l-6.16,0.1c-0.74-1.36-1.42-2.8-1.54-4.28v-8.9"/>
					<line class="st11" x1="61.86" y1="54.61" x2="61.86" y2="45.7"/>
					<path class="st11" d="M104.93,45.7v8.9c-1.7,1.07-3.64,2.01-5.77,2.79l-5.82-3c-1.58,0.47-2.78,0.83-4.55,1.06l-1.63,4.46
						c-1.23,0.09-2.49,0.14-3.77,0.14c-1.28,0-2.53-0.05-3.76-0.14l-1.6-4.46c-0.65-0.09-1.22-0.19-1.76-0.31"/>
					<path class="st11" d="M112.63,35.04v8.9c-0.12,1.48-0.8,2.92-1.54,4.28l-6.16-0.1"/>
				</g>
				<line class="st10" x1="87.16" y1="51.02" x2="87.16" y2="59.92"/>
				<line class="st10" x1="79.63" y1="51.02" x2="79.63" y2="59.92"/>
			</g>
			<g>
				<g>
					<polygon class="st7" points="82.24,60.06 82.62,55.83 82.99,60.06 					"/>
				</g>
				<g>
					<polygon class="st7" points="80.69,60.06 81.06,55.83 81.44,60.06 					"/>
				</g>
				<g>
					<polygon class="st7" points="83.8,60.06 84.17,55.83 84.55,60.06 					"/>
				</g>
				<g>
					<polygon class="st7" points="85.35,60.06 85.73,55.83 86.1,60.06 					"/>
				</g>
			</g>
			<g>
				<g>
					<polygon class="st7" points="100.13,56.79 100.51,52.55 100.88,56.79 					"/>
				</g>
				<g>
					<polygon class="st7" points="101.59,56.13 101.96,51.89 102.34,56.13 					"/>
				</g>
				<g>
					<polygon class="st7" points="103.05,55.29 103.42,51.05 103.8,55.29 					"/>
				</g>
			</g>
			<g>
				<g>
					<polygon class="st7" points="64.45,53.24 64.83,51.89 65.2,53.24 					"/>
				</g>
				<g>
					<polygon class="st7" points="62.99,54 63.37,51.05 63.74,54 					"/>
				</g>
			</g>
			<g>
				<g>
					<polygon class="st7" points="56.79,48.22 57.16,44.82 57.54,48.22 					"/>
				</g>
				<g>
					<polygon class="st7" points="58.24,48.22 58.62,44.82 58.99,48.22 					"/>
				</g>
				<g>
					<polygon class="st7" points="59.7,48.22 60.08,44.82 60.45,48.22 					"/>
				</g>
			</g>
			<g>
				<g>
					<polygon class="st7" points="106.34,48.22 106.71,44.82 107.09,48.22 					"/>
				</g>
				<g>
					<polygon class="st7" points="107.8,48.22 108.17,44.82 108.55,48.22 					"/>
				</g>
				<g>
					<polygon class="st7" points="109.25,48.22 109.63,44.82 110,48.22 					"/>
				</g>
			</g>
			<g>
				<g>
					<polygon class="st7" points="83.4,30.75 83.77,34.65 83.02,34.65 					"/>
				</g>
				<g>
					<polygon class="st7" points="85.34,29.27 85.71,34.72 84.96,34.72 					"/>
				</g>
				<g>
					<polygon class="st7" points="87.28,31.05 87.66,34.95 86.91,34.95 					"/>
				</g>
				<g>
					<polygon class="st7" points="77.56,29.89 77.94,35.35 77.19,35.35 					"/>
				</g>
				<g>
					<polygon class="st7" points="79.51,31.05 79.88,34.95 79.13,34.95 					"/>
				</g>
				<g>
					<polygon class="st7" points="81.45,29.27 81.83,34.72 81.08,34.72 					"/>
				</g>
				<g>
					<polygon class="st7" points="71.73,34.06 72.11,37.97 71.36,37.97 					"/>
				</g>
				<g>
					<polygon class="st7" points="73.68,31.31 74.05,36.78 73.3,36.78 					"/>
				</g>
				<g>
					<polygon class="st7" points="75.62,32.03 76,35.95 75.25,35.95 					"/>
				</g>
				<g>
					<polygon class="st7" points="89.23,29.89 89.6,35.35 88.85,35.35 					"/>
				</g>
				<g>
					<polygon class="st7" points="91.17,32.03 91.54,35.95 90.79,35.95 					"/>
				</g>
				<g>
					<polygon class="st7" points="93.11,31.31 93.49,36.78 92.74,36.78 					"/>
				</g>
				<g>
					<polygon class="st7" points="95.06,34.06 95.43,37.97 94.68,37.97 					"/>
				</g>
			</g>
			<g>
				<polygon class="st12" points="97.08,24.45 97.07,24.45 97.07,24.45 				"/>
			</g>
		</g>
		<g>
			<polygon class="st7" points="47.63,63.86 48,70.51 47.25,70.51 			"/>
		</g>
		<g>
			<polygon class="st7" points="45.69,61.49 46.06,70.57 45.31,70.57 			"/>
		</g>
		<g>
			<polygon class="st7" points="49.57,61.49 49.95,70.57 49.2,70.57 			"/>
		</g>
		<g>
			<polygon class="st7" points="43.74,64.09 44.12,70.73 43.37,70.73 			"/>
		</g>
		<g>
			<polygon class="st7" points="51.52,64.09 51.89,70.73 51.14,70.73 			"/>
		</g>
		<g>
			<path class="st3" d="M86.39,69.04L86.39,69.04L86.39,69.04c-0.15-1.97-0.74-3.87-1.72-5.67l-8.48,0.14v-8.6
				c-2.26-1.42-4.83-2.66-7.65-3.7l-7.72,3.98c-2.09-0.62-4.33-1.1-6.68-1.41l-1.52-5.92c-1.64-0.12-3.3-0.19-4.99-0.19
				c-1.69,0-3.36,0.07-4.99,0.19l-1.48,5.91c-2.35,0.31-4.59,0.78-6.68,1.4l-7.76-3.97c-2.82,1.04-5.39,2.29-7.65,3.7
				c0,0,0,8.6,0,8.6l-8.48-0.14c-0.98,1.8-1.57,3.71-1.72,5.67v11.8l2.93,0.56h0v9.07c1.29,1.79,2.98,3.46,5,4.98l9.61-2.22
				c1.04,0.64,2.16,1.24,3.36,1.78l0,0c0,0,0,0,0,0v0v6.73c2.93,0.88,6.07,1.55,9.38,1.97l4.88-5.27c0.59,0.04,1.18,0.08,1.78,0.1
				s1.2,0.03,1.81,0.03c1.2,0,2.38-0.05,3.54-0.13l4.94,5.27c3.31-0.43,6.45-1.09,9.38-1.97v-6.73v0c0,0,0,0,0,0l0,0
				c0.59-0.27,1.17-0.55,1.72-0.84s1.09-0.6,1.6-0.92l9.65,2.2c2.02-1.52,3.71-3.19,5-4.99V81.4l2.93-0.56L86.39,69.04L86.39,69.04z
				 M47.63,81.36c-10.81,0-19.58-5.06-19.58-11.3c0-6.24,8.77-11.3,19.58-11.3s19.58,5.06,19.58,11.3
				C67.21,76.3,58.44,81.36,47.63,81.36z"/>
			<g>
				<path class="st0" d="M24.53,59.98c-1.43,1.09-2.63,2.28-3.56,3.55l-1.89-0.03c0,0,0-8.6,0-8.6L24.53,59.98z"/>
				<path class="st0" d="M74.3,63.53c-0.93-1.27-2.13-2.45-3.54-3.54l5.43-5.1c0,0,0,8.6,0,8.6L74.3,63.53z"/>
				<polygon class="st0" points="77.28,70.79 77.28,75.85 83.45,78.67 83.45,81.4 86.39,80.84 86.39,69.04 				"/>
				<path class="st0" d="M76.55,70.93c-0.12,1.39-0.55,2.74-1.23,4.03l1.96,0.89v-5.06L76.55,70.93z"/>
				<polygon class="st0" points="8.87,69.04 8.87,80.84 11.81,81.4 11.81,78.67 17.98,75.85 17.98,70.78 				"/>
				<path class="st0" d="M18.71,70.92l-0.73-0.14v5.07l1.96-0.89C19.25,73.66,18.83,72.31,18.71,70.92z"/>
				<polygon class="st0" points="16.81,83.66 16.81,95.46 26.42,93.23 26.42,81.43 				"/>
				<path class="st0" d="M26.42,81.43v11.8c1.04,0.64,2.16,1.24,3.36,1.78v-5.08l2.08-5.87C29.87,83.32,28.04,82.44,26.42,81.43z"/>
				<path class="st0" d="M63.35,84.09l2.13,5.85v5.07c1.19-0.54,2.3-1.13,3.33-1.76v-11.8C67.19,82.45,65.35,83.34,63.35,84.09z"/>
				<polygon class="st0" points="68.81,81.45 68.81,93.25 78.45,95.46 78.45,83.65 				"/>
				<polygon class="st0" points="51.16,86.64 51.16,98.44 56.1,103.71 56.1,91.91 				"/>
				<polygon class="st0" points="39.16,91.91 39.16,103.71 44.04,98.44 44.04,86.64 				"/>
				<path class="st0" d="M47.63,86.77c-1.22,0-2.41-0.05-3.59-0.13v11.8c1.18,0.08,2.37,0.13,3.59,0.13c1.2,0,2.38-0.05,3.54-0.13
					v-11.8C50.01,86.72,48.83,86.77,47.63,86.77z"/>
				<path class="st0" d="M31.02,75.89c3.43-3.22,9.58-5.38,16.61-5.38s13.18,2.16,16.61,5.38c1.82-1.71,2.89-3.72,2.89-5.88
					c0-6.22-8.73-11.26-19.5-11.26s-19.5,5.04-19.5,11.26C28.12,72.17,29.19,74.18,31.02,75.89z"/>
			</g>
			<g>
				<ellipse class="st11" cx="47.63" cy="70.06" rx="19.58" ry="11.3"/>
				<path class="st11" d="M86.39,69.04c-0.15-1.97-0.74-3.87-1.72-5.67L74.3,63.53c-0.93-1.27-2.13-2.45-3.54-3.54l5.43-5.1
					c-2.26-1.42-4.83-2.66-7.65-3.7l-7.72,3.98c-2.09-0.62-4.33-1.1-6.68-1.41l-1.52-5.92c-1.64-0.12-3.3-0.19-4.99-0.19
					c-1.69,0-3.36,0.07-4.99,0.19l-1.48,5.91c-2.35,0.31-4.59,0.78-6.68,1.4l-7.76-3.97c-2.82,1.04-5.39,2.29-7.65,3.7l5.45,5.08
					c-1.43,1.09-2.63,2.28-3.56,3.55l-10.37-0.17c-0.98,1.8-1.57,3.71-1.72,5.67l9.84,1.88c0.12,1.4,0.55,2.75,1.23,4.03l-8.13,3.72
					c1.29,1.79,2.98,3.46,5,4.98l9.61-2.22c1.62,1,3.45,1.89,5.45,2.64l-2.08,5.87c2.93,0.88,6.07,1.55,9.38,1.97l4.88-5.27
					c1.18,0.08,2.37,0.13,3.59,0.13c1.2,0,2.38-0.05,3.54-0.13l4.94,5.27c3.31-0.43,6.45-1.09,9.38-1.97l-2.13-5.85
					c2-0.75,3.84-1.64,5.46-2.64l9.65,2.2c2.02-1.52,3.71-3.19,5-4.99l-8.13-3.71c0.68-1.28,1.1-2.63,1.23-4.03L86.39,69.04z"/>
				<path class="st13" d="M30.95,75.89c3.44-3.22,9.61-5.38,16.68-5.38s13.23,2.16,16.68,5.38c1.83-1.71,2.9-3.72,2.9-5.88
					c0-6.22-8.77-11.26-19.58-11.26S28.05,63.8,28.05,70.01C28.05,72.17,29.12,74.18,30.95,75.89z"/>
				<line class="st11" x1="19.08" y1="54.9" x2="19.08" y2="63.5"/>
				<line class="st11" x1="76.18" y1="54.9" x2="76.18" y2="63.5"/>
				<path class="st11" d="M11.81,78.67v11.8c1.29,1.79,2.98,3.46,5,4.98l9.61-2.22c1.04,0.64,2.16,1.24,3.36,1.78"/>
				<path class="st11" d="M29.78,89.94v11.8c2.93,0.88,6.07,1.55,9.38,1.97l4.88-5.27c1.18,0.08,2.37,0.13,3.59,0.13"/>
				<path class="st11" d="M47.63,98.57c1.2,0,2.38-0.05,3.54-0.13l4.94,5.27c3.31-0.43,6.45-1.09,9.38-1.97v-11.8"/>
				<path class="st11" d="M65.48,95.01c1.19-0.54,2.3-1.13,3.33-1.76l9.65,2.2c2.02-1.52,3.71-3.19,5-4.99v-11.8"/>
				<polyline class="st11" points="83.45,81.4 86.39,80.84 86.39,69.04 				"/>
				<polyline class="st11" points="8.87,69.04 8.87,80.84 11.81,81.4 				"/>
			</g>
			<g>
				<polygon class="st7" points="71.99,89.95 72.37,93.98 71.62,93.98 				"/>
			</g>
			<g>
				<polygon class="st7" points="70.53,87.68 70.91,93.65 70.16,93.65 				"/>
			</g>
			<g>
				<polygon class="st7" points="74.91,90.62 75.28,94.65 74.53,94.65 				"/>
			</g>
			<g>
				<polygon class="st7" points="73.45,88.34 73.82,94.31 73.07,94.31 				"/>
			</g>
			<g>
				<polygon class="st7" points="76.36,89.01 76.74,94.98 75.99,94.98 				"/>
			</g>
			<g>
				<polygon class="st7" points="24.73,87.65 25.1,93.62 24.35,93.62 				"/>
			</g>
			<g>
				<polygon class="st7" points="23.27,89.93 23.64,93.96 22.89,93.96 				"/>
			</g>
			<g>
				<polygon class="st7" points="21.81,88.33 22.19,94.3 21.44,94.3 				"/>
			</g>
			<g>
				<polygon class="st7" points="20.35,90.61 20.73,94.64 19.98,94.64 				"/>
			</g>
			<g>
				<polygon class="st7" points="18.9,89 19.27,94.97 18.52,94.97 				"/>
			</g>
			<g>
				<polygon class="st7" points="37.39,97.48 37.76,103.45 37.01,103.45 				"/>
			</g>
			<g>
				<polygon class="st7" points="35.93,99.17 36.3,103.2 35.55,103.2 				"/>
			</g>
			<g>
				<polygon class="st7" points="40.59,98.27 40.96,102.29 40.21,102.29 				"/>
			</g>
			<g>
				<polygon class="st7" points="41.8,96.81 42.18,100.83 41.43,100.83 				"/>
			</g>
			<g>
				<polygon class="st7" points="43.02,95.35 43.39,99.38 42.64,99.38 				"/>
			</g>
			<g>
				<polygon class="st7" points="54.74,98.27 55.11,102.29 54.36,102.29 				"/>
			</g>
			<g>
				<polygon class="st7" points="53.52,96.81 53.9,100.83 53.15,100.83 				"/>
			</g>
			<g>
				<polygon class="st7" points="52.31,95.35 52.68,99.38 51.93,99.38 				"/>
			</g>
			<g>
				<polygon class="st7" points="34.47,96.95 34.85,102.92 34.1,102.92 				"/>
			</g>
			<g>
				<polygon class="st7" points="33.01,98.56 33.39,102.59 32.64,102.59 				"/>
			</g>
			<g>
				<polygon class="st7" points="31.56,96.26 31.93,102.23 31.18,102.23 				"/>
			</g>
			<g>
				<polygon class="st7" points="63.71,96.26 64.08,102.23 63.33,102.23 				"/>
			</g>
			<g>
				<polygon class="st7" points="62.25,98.56 62.62,102.59 61.87,102.59 				"/>
			</g>
			<g>
				<polygon class="st7" points="60.79,96.95 61.17,102.92 60.42,102.92 				"/>
			</g>
			<g>
				<polygon class="st7" points="59.33,99.17 59.71,103.2 58.96,103.2 				"/>
			</g>
			<g>
				<polygon class="st7" points="57.88,97.48 58.25,103.45 57.5,103.45 				"/>
			</g>
			<g>
				<polygon class="st7" points="65.12,67.67 65.5,75.04 64.75,75.04 				"/>
			</g>
			<g>
				<polygon class="st7" points="57.35,62.92 57.72,72 56.97,72 				"/>
			</g>
			<g>
				<polygon class="st7" points="53.46,61.95 53.84,71.03 53.09,71.03 				"/>
			</g>
			<g>
				<polygon class="st7" points="55.4,64.79 55.78,71.44 55.03,71.44 				"/>
			</g>
			<g>
				<polygon class="st7" points="61.24,64.61 61.61,73.69 60.86,73.69 				"/>
			</g>
			<g>
				<polygon class="st7" points="59.29,66.08 59.67,72.74 58.92,72.74 				"/>
			</g>
			<g>
				<polygon class="st7" points="63.18,68.3 63.55,74.95 62.8,74.95 				"/>
			</g>
			<g>
				<polygon class="st7" points="32.08,68.3 32.45,74.95 31.7,74.95 				"/>
			</g>
			<g>
				<polygon class="st7" points="30.14,67.67 30.51,75.04 29.76,75.04 				"/>
			</g>
			<g>
				<polygon class="st7" points="34.02,64.61 34.4,73.69 33.65,73.69 				"/>
			</g>
			<g>
				<polygon class="st7" points="35.97,66.09 36.34,72.74 35.59,72.74 				"/>
			</g>
			<g>
				<polygon class="st7" points="39.85,64.79 40.23,71.44 39.48,71.44 				"/>
			</g>
			<g>
				<polygon class="st7" points="37.91,62.92 38.29,72 37.54,72 				"/>
			</g>
			<g>
				<polygon class="st7" points="41.8,61.95 42.17,71.03 41.42,71.03 				"/>
			</g>
			<g>
				<polygon class="st7" points="46.92,94.55 47.3,98.57 46.55,98.57 				"/>
			</g>
			<g>
				<polygon class="st7" points="48.33,94.55 48.71,98.57 47.96,98.57 				"/>
			</g>
			<g>
				<polygon class="st7" points="49.74,94.55 50.12,98.57 49.37,98.57 				"/>
			</g>
			<g>
				<polygon class="st7" points="45.51,94.55 45.89,98.57 45.14,98.57 				"/>
			</g>
			<g>
				<polygon class="st7" points="67.24,90.15 67.62,94.18 66.87,94.18 				"/>
			</g>
			<g>
				<polygon class="st7" points="28,90.15 28.37,94.18 27.62,94.18 				"/>
			</g>
			<g>
				<polygon class="st7" points="79.98,90.19 80.36,94.22 79.61,94.22 				"/>
			</g>
			<g>
				<polygon class="st7" points="81.05,89.22 81.43,93.25 80.68,93.25 				"/>
			</g>
			<g>
				<polygon class="st7" points="82.12,88.05 82.49,92.08 81.74,92.08 				"/>
			</g>
			<g>
				<polygon class="st7" points="15.28,90.19 15.65,94.22 14.9,94.22 				"/>
			</g>
			<g>
				<polygon class="st7" points="14.21,89.22 14.59,93.25 13.84,93.25 				"/>
			</g>
			<g>
				<polygon class="st7" points="13.14,88.05 13.52,92.08 12.77,92.08 				"/>
			</g>
			<g>
				<line class="st10" x1="39.16" y1="91.91" x2="39.16" y2="103.71"/>
				<line class="st10" x1="16.81" y1="83.66" x2="16.81" y2="95.46"/>
				<line class="st10" x1="56.1" y1="91.91" x2="56.1" y2="103.71"/>
				<line class="st10" x1="77.28" y1="70.93" x2="77.28" y2="75.56"/>
				<line class="st10" x1="17.98" y1="70.92" x2="17.98" y2="75.56"/>
				<line class="st10" x1="26.42" y1="81.43" x2="26.42" y2="93.23"/>
				<line class="st10" x1="68.81" y1="81.45" x2="68.81" y2="93.25"/>
				<line class="st10" x1="44.04" y1="86.64" x2="44.04" y2="98.44"/>
				<line class="st10" x1="51.16" y1="86.64" x2="51.16" y2="98.44"/>
				<line class="st10" x1="78.45" y1="83.65" x2="78.45" y2="95.46"/>
			</g>
			<g>
				<g>
					<polygon class="st7" points="47.6,63.77 47.98,70.43 47.23,70.43 					"/>
				</g>
				<g>
					<polygon class="st7" points="45.66,61.4 46.04,70.49 45.29,70.49 					"/>
				</g>
				<g>
					<polygon class="st7" points="49.55,61.4 49.92,70.49 49.17,70.49 					"/>
				</g>
				<g>
					<polygon class="st7" points="43.72,64 44.09,70.65 43.34,70.65 					"/>
				</g>
				<g>
					<polygon class="st7" points="51.49,64 51.87,70.65 51.12,70.65 					"/>
				</g>
			</g>
		</g>
		<g>
			<polygon class="st7" points="74.36,54 74.74,51.07 75.11,54 			"/>
		</g>
		<g>
			<polygon class="st7" points="75.48,54.55 75.85,51.38 76.23,54.55 			"/>
		</g>
		<g>
			<polygon class="st7" points="76.59,55.25 76.97,51.71 77.34,55.25 			"/>
		</g>
		<g>
			<polygon class="st7" points="71.81,52.56 72.18,49.06 72.56,52.56 			"/>
		</g>
		<g>
			<polygon class="st7" points="70.44,52.17 70.82,49.98 71.19,52.17 			"/>
		</g>
	</g>
</g>
<g id="Layer_2">
</g>
</svg>
