<svg id="ab6f3a82-a3cc-493a-ade9-04ddbc97f389" data-name="Layer 1" xmlns="http://www.w3.org/2000/svg" viewBox="0 0 24 24"><defs><style>.aad116b4-7f03-4c14-818a-3c84cc33d1e0{fill:#fff;}.ff16a732-b14e-4175-9c39-96433f89df0b{fill:#d9cfff;}.eaa2e809-8d39-4cf7-919c-a293023b975a,.ff16a732-b14e-4175-9c39-96433f89df0b{stroke:#3f20ba;stroke-miterlimit:10;stroke-width:0.5px;}.eaa2e809-8d39-4cf7-919c-a293023b975a{fill:none;}.f3b687cc-3929-4243-a7dc-5425ddf6a478{fill:#3f20ba;}</style></defs><title>Apollo-Custom-Icons</title><path class="aad116b4-7f03-4c14-818a-3c84cc33d1e0" d="M19.16,7.58,13.5,10.84a3,3,0,0,1-3,0L4.84,7.58a1,1,0,0,1-.5-.87v3.5a1,1,0,0,0,.5.87l2.83,1.63,2.83,1.63a2.95,2.95,0,0,0,3,0l2.83-1.63,2.83-1.63a1,1,0,0,0,.5-.87V6.71A1,1,0,0,1,19.16,7.58Z"/><path class="aad116b4-7f03-4c14-818a-3c84cc33d1e0" d="M19.16,11.08,13.5,14.34a3,3,0,0,1-3,0L4.84,11.08a1,1,0,0,1-.5-.87v3.5a1,1,0,0,0,.5.87l2.83,1.63,2.83,1.63a2.95,2.95,0,0,0,3,0l2.83-1.63,2.83-1.63a1,1,0,0,0,.5-.87v-3.5A1,1,0,0,1,19.16,11.08Z"/><path class="aad116b4-7f03-4c14-818a-3c84cc33d1e0" d="M19.16,14.58,13.5,17.84a3,3,0,0,1-3,0L4.84,14.58a1,1,0,0,1-.5-.87v3.5a1,1,0,0,0,.5.87l2.83,1.63,2.83,1.63a2.95,2.95,0,0,0,3,0l2.83-1.63,2.83-1.63a1,1,0,0,0,.5-.87v-3.5A1,1,0,0,1,19.16,14.58Z"/><path class="ff16a732-b14e-4175-9c39-96433f89df0b" d="M19.16,7.58,13.5,10.84a3,3,0,0,1-3,0L4.84,7.58a1,1,0,0,1,0-1.74L10.5,2.58a3,3,0,0,1,3,0l5.66,3.26A1,1,0,0,1,19.16,7.58Z"/><path class="eaa2e809-8d39-4cf7-919c-a293023b975a" d="M19.16,7.58,13.5,10.84a3,3,0,0,1-3,0L4.84,7.58a1,1,0,0,1-.5-.87v3.5a1,1,0,0,0,.5.87l2.83,1.63,2.83,1.63a2.95,2.95,0,0,0,3,0l2.83-1.63,2.83-1.63a1,1,0,0,0,.5-.87V6.71A1,1,0,0,1,19.16,7.58Z"/><path class="eaa2e809-8d39-4cf7-919c-a293023b975a" d="M19.16,11.08,13.5,14.34a3,3,0,0,1-3,0L4.84,11.08a1,1,0,0,1-.5-.87v3.5a1,1,0,0,0,.5.87l2.83,1.63,2.83,1.63a2.95,2.95,0,0,0,3,0l2.83-1.63,2.83-1.63a1,1,0,0,0,.5-.87v-3.5A1,1,0,0,1,19.16,11.08Z"/><path class="eaa2e809-8d39-4cf7-919c-a293023b975a" d="M19.16,14.58,13.5,17.84a3,3,0,0,1-3,0L4.84,14.58a1,1,0,0,1-.5-.87v3.5a1,1,0,0,0,.5.87l2.83,1.63,2.83,1.63a2.95,2.95,0,0,0,3,0l2.83-1.63,2.83-1.63a1,1,0,0,0,.5-.87v-3.5A1,1,0,0,1,19.16,14.58Z"/><polygon class="f3b687cc-3929-4243-a7dc-5425ddf6a478" points="5.02 18.33 5.27 9.69 5.52 18.33 5.02 18.33"/><polygon class="f3b687cc-3929-4243-a7dc-5425ddf6a478" points="5.89 18.83 6.14 10.19 6.39 18.83 5.89 18.83"/><polygon class="f3b687cc-3929-4243-a7dc-5425ddf6a478" points="6.75 19.33 7 10.69 7.25 19.33 6.75 19.33"/><polygon class="f3b687cc-3929-4243-a7dc-5425ddf6a478" points="7.62 19.83 7.87 11.19 8.12 19.83 7.62 19.83"/><polygon class="f3b687cc-3929-4243-a7dc-5425ddf6a478" points="8.49 20.33 8.74 11.69 8.99 20.33 8.49 20.33"/><polygon class="f3b687cc-3929-4243-a7dc-5425ddf6a478" points="9.35 20.83 9.6 12.19 9.85 20.83 9.35 20.83"/><polygon class="f3b687cc-3929-4243-a7dc-5425ddf6a478" points="10.22 21.33 10.47 12.69 10.72 21.33 10.22 21.33"/><polygon class="f3b687cc-3929-4243-a7dc-5425ddf6a478" points="11.09 21.83 11.34 13.19 11.59 21.83 11.09 21.83"/><ellipse class="f3b687cc-3929-4243-a7dc-5425ddf6a478" cx="18.35" cy="9.79" rx="0.61" ry="0.35" transform="translate(0.7 20.78) rotate(-60)"/><ellipse class="f3b687cc-3929-4243-a7dc-5425ddf6a478" cx="18.35" cy="13.29" rx="0.61" ry="0.35" transform="translate(-2.34 22.53) rotate(-60)"/><ellipse class="f3b687cc-3929-4243-a7dc-5425ddf6a478" cx="18.35" cy="16.79" rx="0.61" ry="0.35" transform="translate(-5.37 24.28) rotate(-60)"/><ellipse class="f3b687cc-3929-4243-a7dc-5425ddf6a478" cx="16.83" cy="10.66" rx="0.61" ry="0.35" transform="translate(-0.82 19.91) rotate(-60)"/><ellipse class="f3b687cc-3929-4243-a7dc-5425ddf6a478" cx="16.83" cy="14.16" rx="0.61" ry="0.35" transform="translate(-3.85 21.66) rotate(-60)"/><ellipse class="f3b687cc-3929-4243-a7dc-5425ddf6a478" cx="16.83" cy="17.66" rx="0.61" ry="0.35" transform="translate(-6.88 23.41) rotate(-60)"/><ellipse class="f3b687cc-3929-4243-a7dc-5425ddf6a478" cx="15.32" cy="11.54" rx="0.61" ry="0.35" transform="translate(-2.34 19.03) rotate(-60)"/><ellipse class="f3b687cc-3929-4243-a7dc-5425ddf6a478" cx="15.32" cy="15.04" rx="0.61" ry="0.35" transform="translate(-5.37 20.78) rotate(-60)"/><ellipse class="f3b687cc-3929-4243-a7dc-5425ddf6a478" cx="15.32" cy="18.54" rx="0.61" ry="0.35" transform="translate(-8.4 22.53) rotate(-60)"/></svg>