<svg xmlns="http://www.w3.org/2000/svg" version="1.1" xmlns:xlink="http://www.w3.org/1999/xlink" xmlns:svgjs="http://svgjs.com/svgjs" viewBox="0 0 24 24" height="24" width="24"><title>Exported from Streamline App (https://app.streamlineicons.com)</title><g transform="matrix(1,0,0,1,0,0)"><path d="M 17.033,16.583l-4.492,4.686c-0.286,0.299-0.76,0.309-1.059,0.023c-0.008-0.008-0.016-0.015-0.023-0.023 l-4.493-4.687 " stroke="#000000" fill="none" stroke-width="1.5" stroke-linecap="round" stroke-linejoin="round"></path><path d="M 1.471,10.587c-0.914-1.638-0.96-3.622-0.122-5.3l0,0C2.75,2.485,6.158,1.349,8.96,2.751 c0.545,0.273,1.043,0.631,1.474,1.062L12,5.374l1.566-1.566c2.216-2.215,5.808-2.215,8.023,0c0.431,0.431,0.79,0.929,1.062,1.474 l0,0c0.838,1.678,0.793,3.661-0.119,5.3 " stroke="#000000" fill="none" stroke-width="1.5" stroke-linecap="round" stroke-linejoin="round"></path><path d="M 0.75,13.583h6.518c0.142,0,0.272-0.08,0.336-0.207l1.723-3.447 c0.09-0.187,0.315-0.265,0.502-0.175c0.096,0.047,0.168,0.132,0.198,0.235l1.681,5.6c0.064,0.198,0.276,0.306,0.473,0.242 c0.101-0.033,0.183-0.106,0.227-0.202l1.57-3.664c0.082-0.191,0.304-0.278,0.494-0.196c0.066,0.029,0.123,0.075,0.163,0.135 l1.116,1.674h7.5" stroke="#000000" fill="none" stroke-width="1.5" stroke-linecap="round" stroke-linejoin="round"></path></g></svg>