<?xml version="1.0" encoding="UTF-8"?>
<svg width="26px" height="26px" viewBox="0 0 26 26" version="1.1" xmlns="http://www.w3.org/2000/svg" xmlns:xlink="http://www.w3.org/1999/xlink">
    <!-- Generator: Sketch 55.2 (78181) - https://sketchapp.com -->
    <title>icon-operations</title>
    <desc>Created with Sketch.</desc>
    <g id="Icon-Library" stroke="none" stroke-width="1" fill="none" fill-rule="evenodd" stroke-linecap="round" stroke-linejoin="round">
        <g id="Icons" transform="translate(-300.000000, -1225.000000)" stroke="#000000" stroke-width="1.5">
            <g id="icon-operations" transform="translate(301.000000, 1226.000000)">
                <path d="M14.540928,18.662784 C16.790208,19.019904 17.200128,17.179584 16.800768,15.619584 C16.704768,15.249024 16.601088,14.844864 16.508928,14.482944 C16.339968,13.822464 16.657728,13.135104 17.270208,12.834624 L18.480768,12.240384 L17.270208,11.645184 C16.657728,11.344704 16.339968,10.657344 16.508928,9.997824 C16.601088,9.634944 16.704768,9.230784 16.800768,8.860224 C17.200128,7.300224 16.790208,5.459904 14.540928,5.817024" id="Stroke-1"></path>
                <path d="M9.938784,18.662784 C7.689504,19.019904 7.279584,17.179584 7.679904,15.619584 C7.774944,15.249024 7.878624,14.844864 7.970784,14.482944 C8.139744,13.822464 7.821984,13.135104 7.210464,12.834624 L5.999904,12.240384 L7.210464,11.645184 C7.821984,11.344704 8.139744,10.657344 7.970784,9.997824 C7.878624,9.634944 7.774944,9.230784 7.679904,8.860224 C7.279584,7.300224 7.689504,5.459904 9.938784,5.817024" id="Stroke-3"></path>
                <path d="M21.840288,23.76 L2.640288,23.76 C1.580448,23.76 0.720288,22.89984 0.720288,21.84 L0.720288,2.64 C0.720288,1.58016 1.580448,0.72 2.640288,0.72 L21.840288,0.72 C22.900128,0.72 23.760288,1.58016 23.760288,2.64 L23.760288,21.84 C23.760288,22.89984 22.900128,23.76 21.840288,23.76 Z" id="Stroke-5"></path>
            </g>
        </g>
    </g>
</svg>