<svg xmlns="http://www.w3.org/2000/svg" version="1.1" xmlns:xlink="http://www.w3.org/1999/xlink" xmlns:svgjs="http://svgjs.com/svgjs" viewBox="0 0 24 24" height="24" width="24"><title>Exported from Streamline App (https://app.streamlineicons.com)</title><g transform="matrix(1,0,0,1,0,0)"><path d="M 2.25,3.75h19.5c0.828,0,1.5,0.672,1.5,1.5v16.5c0,0.828-0.672,1.5-1.5,1.5H2.25c-0.828,0-1.5-0.672-1.5-1.5 V5.25C0.75,4.422,1.422,3.75,2.25,3.75z " stroke="#000000" fill="none" stroke-width="1.5" stroke-linecap="round" stroke-linejoin="round"></path><path d="M 0.75,9.75h22.5 " stroke="#000000" fill="none" stroke-width="1.5" stroke-linecap="round" stroke-linejoin="round"></path><path d="M 6.75,6V0.75 " stroke="#000000" fill="none" stroke-width="1.5" stroke-linecap="round" stroke-linejoin="round"></path><path d="M 17.25,6V0.75 " stroke="#000000" fill="none" stroke-width="1.5" stroke-linecap="round" stroke-linejoin="round"></path><path d="M 5.625,13.5L5.625,13.5 " stroke="#000000" fill="none" stroke-width="1.5" stroke-linecap="round" stroke-linejoin="round"></path><path d="M 5.625,13.5 c-0.207,0-0.375,0.168-0.375,0.375s0.168,0.375,0.375,0.375S6,14.082,6,13.875S5.832,13.5,5.625,13.5L5.625,13.5 " stroke="#000000" fill="none" stroke-width="1.5" stroke-linecap="round" stroke-linejoin="round"></path><path d="M 5.625,18.75 L5.625,18.75 " stroke="#000000" fill="none" stroke-width="1.5" stroke-linecap="round" stroke-linejoin="round"></path><path d="M 5.625,18.75c-0.207,0-0.375,0.168-0.375,0.375S5.418,19.5,5.625,19.5S6,19.332,6,19.125S5.832,18.75,5.625,18.75 " stroke="#000000" fill="none" stroke-width="1.5" stroke-linecap="round" stroke-linejoin="round"></path><path d="M 12,13.5L12,13.5 " stroke="#000000" fill="none" stroke-width="1.5" stroke-linecap="round" stroke-linejoin="round"></path><path d="M 12,13.5c-0.207,0-0.375,0.168-0.375,0.375S11.793,14.25,12,14.25s0.375-0.168,0.375-0.375S12.207,13.5,12,13.5 L12,13.5 " stroke="#000000" fill="none" stroke-width="1.5" stroke-linecap="round" stroke-linejoin="round"></path><path d="M 12,18.75L12,18.75 " stroke="#000000" fill="none" stroke-width="1.5" stroke-linecap="round" stroke-linejoin="round"></path><path d="M 12,18.75c-0.207,0-0.375,0.168-0.375,0.375S11.793,19.5,12,19.5s0.375-0.168,0.375-0.375 S12.207,18.75,12,18.75 " stroke="#000000" fill="none" stroke-width="1.5" stroke-linecap="round" stroke-linejoin="round"></path><path d="M 18.375,13.5L18.375,13.5 " stroke="#000000" fill="none" stroke-width="1.5" stroke-linecap="round" stroke-linejoin="round"></path><path d="M 18.375,13.5C18.168,13.5,18,13.668,18,13.875s0.168,0.375,0.375,0.375 s0.375-0.168,0.375-0.375S18.582,13.5,18.375,13.5L18.375,13.5 " stroke="#000000" fill="none" stroke-width="1.5" stroke-linecap="round" stroke-linejoin="round"></path><path d="M 18.375,18.75L18.375,18.75 " stroke="#000000" fill="none" stroke-width="1.5" stroke-linecap="round" stroke-linejoin="round"></path><path d="M 18.375,18.75 c-0.207,0-0.375,0.168-0.375,0.375s0.168,0.375,0.375,0.375s0.375-0.168,0.375-0.375S18.582,18.75,18.375,18.75" stroke="#000000" fill="none" stroke-width="1.5" stroke-linecap="round" stroke-linejoin="round"></path></g></svg>