<svg xmlns="http://www.w3.org/2000/svg" version="1.1" xmlns:xlink="http://www.w3.org/1999/xlink" xmlns:svgjs="http://svgjs.com/svgjs" viewBox="0 0 140 140" width="140" height="140"><g transform="matrix(5.833333333333333,0,0,5.833333333333333,0,0)"><path d="M11.458 21.269a1.6 1.6 0 001.085 0 13.66 13.66 0 018.7-.448 1.607 1.607 0 002.006-1.559V4.928a1.607 1.607 0 00-1.12-1.528 13.878 13.878 0 00-9.586.2 1.61 1.61 0 01-1.085 0 13.881 13.881 0 00-9.587-.2A1.607 1.607 0 00.75 4.928v14.334a1.607 1.607 0 002.006 1.559 13.663 13.663 0 018.702.448zM12 3.682v17.682" fill="none" stroke="#000000" stroke-linecap="round" stroke-linejoin="round" stroke-width="1.5"></path></g></svg>