<?xml version="1.0" encoding="utf-8"?>
<!-- Generator: Adobe Illustrator 24.0.0, SVG Export Plug-In . SVG Version: 6.00 Build 0)  -->
<svg version="1.1" xmlns="http://www.w3.org/2000/svg" xmlns:xlink="http://www.w3.org/1999/xlink" x="0px" y="0px"
	 viewBox="0 0 121.5 121.5" style="enable-background:new 0 0 121.5 121.5;" xml:space="preserve">
<style type="text/css">
	.st0{fill:#D9CFFF;}
	.st1{opacity:0.3;}
	.st2{clip-path:url(#SVGID_2_);}
	.st3{fill:#FFFFFF;}
	.st4{fill:none;stroke:#3F20BA;stroke-width:1.2;stroke-miterlimit:10;}
	.st5{fill:#D9CFFF;stroke:#3F20BA;stroke-width:1.2;stroke-linecap:round;stroke-linejoin:round;stroke-miterlimit:10;}
	.st6{fill:#D9CFFF;stroke:#3F20BA;stroke-width:1.2;stroke-miterlimit:10;}
	.st7{fill:#3F20BA;}
	.st8{fill:#D9CFFF;stroke:#3F20BA;stroke-width:1.35;stroke-miterlimit:10;}
	.st9{fill:none;stroke:#3F20BA;stroke-width:1.35;stroke-miterlimit:10;}
	.st10{fill:none;stroke:#3F20BA;stroke-width:0.75;stroke-linejoin:round;stroke-miterlimit:10;}
	.st11{fill:none;stroke:#3F20BA;stroke-width:1.2;stroke-linejoin:round;stroke-miterlimit:10;}
	.st12{fill:#09D900;}
	.st13{fill:none;stroke:#3F20BA;stroke-width:1.35;stroke-linejoin:round;stroke-miterlimit:10;}
	.st14{fill:none;stroke:#3F20BA;stroke-width:1.35;stroke-linecap:round;stroke-linejoin:round;stroke-miterlimit:10;}
	.st15{fill:#D9CFFF;stroke:#3F20BA;stroke-width:1.35;stroke-linecap:round;stroke-miterlimit:10;}
	.st16{fill:none;stroke:#3F20BA;stroke-width:0.75;stroke-miterlimit:10;}
	.st17{fill:#D9CFFF;stroke:#3F20BA;stroke-width:0.75;stroke-miterlimit:10;}
	.st18{fill:#FFFFFF;stroke:#3F20BA;stroke-width:0.75;stroke-miterlimit:10;}
	.st19{fill:none;stroke:#3F20BA;stroke-width:1.5;stroke-miterlimit:10;}
	.st20{fill:none;stroke:#3F20BA;stroke-width:0.75;stroke-linecap:round;stroke-miterlimit:10;}
	.st21{fill:none;stroke:#3F20BA;stroke-width:1.35;stroke-linecap:round;stroke-miterlimit:10;}
	.st22{fill:#FFFFFF;stroke:#3F20BA;stroke-width:1.35;stroke-linecap:round;stroke-miterlimit:10;}
	.st23{fill:#FFFFFF;stroke:#3F20BA;stroke-width:1.35;stroke-linecap:round;stroke-linejoin:round;stroke-miterlimit:10;}
	.st24{fill:none;stroke:#3F20BA;stroke-linecap:round;stroke-linejoin:round;stroke-miterlimit:10;}
	.st25{fill:#D9CFFF;stroke:#3F20BA;stroke-width:0.75;stroke-linecap:round;stroke-linejoin:round;stroke-miterlimit:10;}
	.st26{fill:none;stroke:#3F20BA;stroke-width:0.5;stroke-linecap:round;stroke-linejoin:round;stroke-miterlimit:10;}
	.st27{fill:#D9CFFF;stroke:#3F20BA;stroke-width:0.5;stroke-linecap:round;stroke-linejoin:round;stroke-miterlimit:10;}
	.st28{fill:#D9CFFF;stroke:#3F20BA;stroke-width:0.5;stroke-miterlimit:10;}
	.st29{fill:none;stroke:#3F20BA;stroke-width:0.5;stroke-miterlimit:10;}
	.st30{fill:#FFFFFF;stroke:#3F20BA;stroke-width:0.5;stroke-linejoin:round;stroke-miterlimit:10;}
	.st31{fill:#FFFFFF;stroke:#3F20BA;stroke-width:0.5;stroke-linecap:round;stroke-linejoin:round;stroke-miterlimit:10;}
	.st32{fill:#D9CFFF;stroke:#3F20BA;stroke-width:0.5;stroke-linejoin:round;stroke-miterlimit:10;}
	.st33{clip-path:url(#SVGID_4_);}
	.st34{clip-path:url(#SVGID_6_);}
	.st35{fill:none;}
	.st36{fill:none;stroke:#37FF2E;stroke-miterlimit:10;}
	.st37{fill:none;stroke:#37FF2E;stroke-width:1.35;stroke-linecap:round;stroke-linejoin:round;stroke-miterlimit:10;}
	.st38{fill:#D9CFFF;stroke:#3F20BA;stroke-width:1.25;stroke-linecap:round;stroke-linejoin:round;stroke-miterlimit:10;}
	.st39{fill:none;stroke:#3F20BA;stroke-width:0.75;stroke-linecap:round;stroke-linejoin:round;stroke-miterlimit:10;}
</style>
<g id="Layer_3">
</g>
<g id="Layer_1">
	<g>
		<path class="st3" d="M102.47,38.48l-3.41-0.91c1.04-3.86,0.91-7.09-0.22-10.1c-0.5-1.33-2.09-1.88-3.32-1.17l-3.49,2.01
			c-0.93,0.53-1.39,1.64-1.05,2.66c1.14,3.44,0.17,7.43-2.36,9.14c0.83,1.23,1.65,2.53,2.45,3.92c0.8,1.38,1.51,2.74,2.16,4.07
			l1.17-0.67c1.06-0.61,2.32-0.78,3.5-0.46l2.14,0.57c1.23,0.33,2.5-0.4,2.83-1.63l1.23-4.6C104.43,40.07,103.7,38.81,102.47,38.48z
			"/>
		<path class="st3" d="M53.75,35.2c-1.37-0.6-2.95-0.52-4.23,0.24C32.24,45.67,22.91,54.7,20.69,62.99
			c-1.42,5.29-0.89,11.99-0.26,16.46c0.21,1.51-0.52,3-1.85,3.77h0c-1.05,0.6-1.56,1.91-1.07,3.01c0.57,1.27,2.09,1.73,3.26,1.06h0
			c1.39-0.81,3.14-0.69,4.41,0.3c3.55,2.77,9.04,6.52,14.28,7.92c8.35,2.24,21.68-1.88,38.28-11.19c1.31-0.74,2.16-2.08,2.32-3.58
			C82.12,61.46,71.47,43.03,53.75,35.2z"/>
		<path class="st8" d="M91.07,44.03C79.85,24.58,65.71,20.75,49.19,30.29c-3.73,2.15-3.68,7.6-3.68,7.6s2.61-1.62,4-2.44
			c1.28-0.76,2.87-0.84,4.23-0.24c17.72,7.83,28.37,26.26,26.3,45.52c-0.16,1.5-1.01,2.84-2.32,3.58c-1.4,0.79-4.07,2.34-4.07,2.34
			s4.78,2.59,8.37,0.52C98.55,77.63,102.3,63.47,91.07,44.03z"/>
		<path class="st9" d="M45.51,37.89c0,0-0.05-5.45,3.68-7.6c16.52-9.54,30.65-5.71,41.88,13.74s7.47,33.6-9.04,43.14
			c-3.59,2.07-8.37-0.52-8.37-0.52"/>
		<path class="st9" d="M102.47,38.48l-3.41-0.91c1.04-3.86,0.91-7.09-0.22-10.1c-0.5-1.33-2.09-1.88-3.32-1.17l-3.49,2.01
			c-0.93,0.53-1.39,1.64-1.05,2.66c1.14,3.44,0.17,7.43-2.36,9.14c0.83,1.23,1.65,2.53,2.45,3.92c0.8,1.38,1.51,2.74,2.16,4.07
			l1.17-0.67c1.06-0.61,2.32-0.78,3.5-0.46l2.14,0.57c1.23,0.33,2.5-0.4,2.83-1.63l1.23-4.6C104.43,40.07,103.7,38.81,102.47,38.48z
			"/>
		<g>
			<path class="st7" d="M59.76,29.53c5.13,0.88,9.79,3.6,13.79,6.9c3.96,3.4,7.24,7.54,9.87,12.03c2.59,4.51,4.54,9.42,5.51,14.55
				c0.87,5.11,0.89,10.51-0.96,15.38c0.8-2.46,1.1-5.05,1.13-7.62c0.04-2.57-0.24-5.14-0.74-7.66c-1.07-5.02-2.99-9.85-5.59-14.28
				c-2.55-4.46-5.78-8.53-9.6-11.97c-1.94-1.69-4.02-3.21-6.26-4.47C64.68,31.13,62.29,30.08,59.76,29.53z"/>
		</g>
		<g>
			<path class="st7" d="M90.96,61c-0.72-2.65-1.62-5.23-2.74-7.73c-1.11-2.49-2.37-4.91-3.83-7.21c-1.41-2.33-3.01-4.54-4.77-6.62
				c-1.76-2.08-3.7-4.02-5.79-5.8c2.28,1.53,4.35,3.38,6.22,5.41c1.87,2.03,3.5,4.28,4.98,6.61c1.42,2.36,2.71,4.82,3.73,7.39
				C89.77,55.62,90.55,58.28,90.96,61z"/>
		</g>
		<path class="st9" d="M53.75,35.2c-1.37-0.6-2.95-0.52-4.23,0.24C32.24,45.67,22.91,54.7,20.69,62.99
			c-1.42,5.29-0.89,11.99-0.26,16.46c0.21,1.51-0.52,3-1.85,3.77h0c-1.05,0.6-1.56,1.91-1.07,3.01c0.57,1.27,2.09,1.73,3.26,1.06h0
			c1.39-0.81,3.14-0.69,4.41,0.3c3.55,2.77,9.04,6.52,14.28,7.92c8.35,2.24,21.68-1.88,38.28-11.19c1.31-0.74,2.16-2.08,2.32-3.58
			C82.12,61.46,71.47,43.03,53.75,35.2z"/>
		<g>
			<g>
				<g>
					<polygon class="st7" points="74.02,53.16 78.37,51.08 74.4,53.81 					"/>
				</g>
				<g>
					<polygon class="st7" points="72.83,51.19 77.16,49.12 73.2,51.84 					"/>
				</g>
				<g>
					<polygon class="st7" points="71.49,49.3 75.87,47.2 71.86,49.95 					"/>
				</g>
				<g>
					<polygon class="st7" points="70.06,47.45 74.48,45.34 70.44,48.1 					"/>
				</g>
				<g>
					<polygon class="st7" points="68.56,45.66 72.99,43.53 68.94,46.31 					"/>
				</g>
				<g>
					<polygon class="st7" points="66.9,43.95 71.4,41.79 67.28,44.6 					"/>
				</g>
				<g>
					<polygon class="st7" points="65.16,42.29 69.68,40.11 65.54,42.94 					"/>
				</g>
				<g>
					<polygon class="st7" points="63.28,40.71 67.85,38.5 63.66,41.36 					"/>
				</g>
				<g>
					<polygon class="st7" points="61.28,39.2 65.83,37.01 61.66,39.85 					"/>
				</g>
				<g>
					<polygon class="st7" points="59.12,37.79 63.67,35.59 59.49,38.44 					"/>
				</g>
				<g>
					<polygon class="st7" points="56.81,36.46 61.28,34.31 57.18,37.11 					"/>
				</g>
				<g>
					<polygon class="st7" points="54.34,35.23 58.71,33.13 54.71,35.88 					"/>
				</g>
				<g>
					<polygon class="st7" points="50.89,34.56 55.26,32.47 51.26,35.21 					"/>
				</g>
			</g>
			<g>
				<g>
					<polygon class="st7" points="75.13,55.18 79.47,53.11 75.51,55.83 					"/>
				</g>
				<g>
					<polygon class="st7" points="76.14,57.27 80.48,55.19 76.51,57.92 					"/>
				</g>
				<g>
					<polygon class="st7" points="77.04,59.41 81.41,57.33 77.42,60.06 					"/>
				</g>
				<g>
					<polygon class="st7" points="77.85,61.61 82.22,59.52 78.22,62.26 					"/>
				</g>
				<g>
					<polygon class="st7" points="78.53,63.88 83.03,61.72 78.91,64.53 					"/>
				</g>
				<g>
					<polygon class="st7" points="79.1,66.21 83.62,64.04 79.48,66.86 					"/>
				</g>
				<g>
					<polygon class="st7" points="79.55,68.62 84.09,66.43 79.93,69.27 					"/>
				</g>
				<g>
					<polygon class="st7" points="79.89,71.09 84.2,69.04 80.27,71.74 					"/>
				</g>
				<g>
					<polygon class="st7" points="80.1,73.63 84.36,71.61 80.48,74.28 					"/>
				</g>
				<g>
					<polygon class="st7" points="80.12,76.28 84.21,74.36 80.5,76.93 					"/>
				</g>
				<g>
					<polygon class="st7" points="80.01,79.02 84.09,77.09 80.38,79.67 					"/>
				</g>
				<g>
					<polygon class="st7" points="79.43,82.02 83.69,80 79.81,82.67 					"/>
				</g>
			</g>
			<g>
				<polygon class="st7" points="89.4,41.25 92.63,39.81 89.77,41.9 				"/>
			</g>
			<g>
				<polygon class="st7" points="90.1,42.46 93.33,41.03 90.47,43.11 				"/>
			</g>
			<g>
				<polygon class="st7" points="90.8,43.68 94.03,42.25 91.18,44.33 				"/>
			</g>
			<g>
				<polygon class="st7" points="91.51,44.9 94.74,43.47 91.88,45.55 				"/>
			</g>
			<g>
				<polygon class="st7" points="92.21,46.12 95.44,44.69 92.58,46.77 				"/>
			</g>
		</g>
		<g>
			<g>
				<path class="st7" d="M27.25,88.97c0.6-0.33,1.06-0.97,1.32-1.69c0.26-0.73,0.36-1.52,0.36-2.32c0-1.6-0.46-3.19-1.2-4.64
					c0.85,1.38,1.44,2.96,1.57,4.62c0.07,0.83,0.03,1.68-0.2,2.5c-0.22,0.82-0.68,1.65-1.48,2.17L27.25,88.97z"/>
			</g>
			<g>
				<path class="st7" d="M30.08,90.86c0.94-0.52,1.65-1.43,2.07-2.47c0.43-1.04,0.61-2.19,0.63-3.34c0.03-2.31-0.52-4.65-1.62-6.71
					c1.21,2.01,1.9,4.34,1.99,6.71c0.04,1.19-0.08,2.4-0.48,3.55c-0.4,1.14-1.13,2.24-2.22,2.92L30.08,90.86z"/>
			</g>
			<g>
				<path class="st7" d="M33.32,92.84c1.06-0.97,1.86-2.2,2.38-3.56c0.52-1.36,0.75-2.83,0.78-4.3c0.04-2.95-0.63-5.92-1.88-8.62
					c1.36,2.65,2.17,5.61,2.25,8.62c0.03,1.51-0.14,3.03-0.62,4.49c-0.48,1.45-1.29,2.81-2.39,3.91L33.32,92.84z"/>
			</g>
			<g>
				<path class="st7" d="M36.83,94.5c2.21-2.69,3.27-6.25,3.39-9.77c0.12-3.55-0.71-7.1-2.17-10.36c1.57,3.2,2.54,6.75,2.55,10.37
					c0.01,3.59-0.93,7.29-3.18,10.24L36.83,94.5z"/>
			</g>
			<g>
				<path class="st7" d="M40.75,95.66c2-3.5,3.3-7.44,3.39-11.5c0.11-4.06-0.94-8.1-2.54-11.84c1.72,3.69,2.9,7.71,2.91,11.85
					c0.05,4.13-1.16,8.22-3.1,11.86L40.75,95.66z"/>
			</g>
			<g>
				<path class="st7" d="M44.75,96.05c2.02-3.94,3.23-8.33,3.27-12.79c0.05-4.46-1.06-8.9-2.9-12.98c1.95,4.03,3.2,8.46,3.27,12.98
					c0.09,4.52-1.01,9.04-2.97,13.12L44.75,96.05z"/>
			</g>
			<g>
				<path class="st7" d="M49.47,95.45c1.73-4.31,2.64-8.97,2.49-13.64c-0.14-4.66-1.35-9.3-3.44-13.5c2.2,4.14,3.54,8.77,3.81,13.48
					c0.29,4.72-0.52,9.48-2.16,13.92L49.47,95.45z"/>
			</g>
			<g>
				<path class="st7" d="M53.98,94.43c1.79-4.47,2.45-9.38,2.07-14.21c-0.38-4.83-1.75-9.61-4.12-13.87
					c2.47,4.2,3.98,8.97,4.49,13.84c0.51,4.87-0.02,9.88-1.74,14.52L53.98,94.43z"/>
			</g>
			<g>
				<path class="st7" d="M58.52,93.01c1.38-4.74,1.96-9.73,1.49-14.67c-0.46-4.93-1.94-9.78-4.37-14.13
					c2.54,4.29,4.16,9.12,4.74,14.09c0.6,4.97,0.15,10.06-1.14,14.91L58.52,93.01z"/>
			</g>
			<g>
				<path class="st7" d="M75.69,85.23c1.05-5,1-10.22,0.18-15.28c-0.42-2.53-1.03-5.04-1.86-7.48c-0.83-2.43-1.88-4.8-3.23-7
					c1.4,2.17,2.51,4.52,3.41,6.94c0.89,2.43,1.58,4.93,2.06,7.47c0.95,5.08,1.14,10.36,0.19,15.49L75.69,85.23z"/>
			</g>
			<g>
				<path class="st7" d="M71.88,87.19c0.9-4.98,0.97-10.13,0.1-15.15c-0.86-5.02-2.63-9.86-4.99-14.39
					c2.46,4.47,4.37,9.28,5.36,14.32c1,5.03,1.06,10.25,0.27,15.34L71.88,87.19z"/>
			</g>
			<g>
				<path class="st7" d="M67.56,89.28c0.65-2.42,0.95-4.95,1.02-7.48c0.06-2.53-0.12-5.07-0.51-7.58c-0.78-5.02-2.4-9.92-4.78-14.43
					c2.49,4.45,4.24,9.33,5.15,14.37c0.45,2.52,0.7,5.08,0.7,7.65c0,2.57-0.24,5.15-0.86,7.67L67.56,89.28z"/>
			</g>
			<g>
				<path class="st7" d="M63.14,91.26c1.2-4.85,1.52-9.94,0.86-14.92c-0.65-4.98-2.23-9.85-4.54-14.33
					c2.43,4.42,4.14,9.26,4.92,14.28c0.79,5.01,0.6,10.18-0.5,15.15L63.14,91.26z"/>
			</g>
			<g>
				<g>
					<path class="st7" d="M28.94,89.98c0.38-0.2,0.73-0.56,1-0.99c0.27-0.42,0.49-0.9,0.66-1.39c0.35-0.99,0.51-2.04,0.53-3.11
						c0.1,1.06,0.07,2.15-0.17,3.21c-0.12,0.53-0.29,1.06-0.53,1.56c-0.25,0.5-0.59,0.99-1.12,1.36L28.94,89.98z"/>
				</g>
				<g>
					<path class="st7" d="M31.74,91.89c1.1-0.87,1.91-2.11,2.4-3.47c0.49-1.37,0.68-2.85,0.64-4.32c0.16,1.47,0.1,2.98-0.29,4.43
						c-0.38,1.45-1.13,2.85-2.26,3.92L31.74,91.89z"/>
				</g>
				<g>
					<path class="st7" d="M35.21,93.56c1.15-1.37,2.07-2.95,2.61-4.68c0.55-1.72,0.74-3.57,0.64-5.4c0.22,1.82,0.16,3.69-0.28,5.5
						c-0.44,1.81-1.27,3.53-2.38,5.04L35.21,93.56z"/>
				</g>
				<g>
					<path class="st7" d="M38.86,95.08c2.47-3.58,3.64-8.05,3.42-12.46c0.47,4.4-0.43,9.01-2.79,12.87L38.86,95.08z"/>
				</g>
				<g>
					<path class="st7" d="M42.88,95.9c1.19-2.23,2.16-4.59,2.75-7.06c0.6-2.46,0.82-5.03,0.61-7.58c0.34,2.53,0.25,5.13-0.24,7.66
						c-0.48,2.53-1.35,4.98-2.45,7.32L42.88,95.9z"/>
				</g>
				<g>
					<path class="st7" d="M47.15,95.52c1.25-2.39,2.15-4.98,2.61-7.66c0.47-2.68,0.51-5.43,0.18-8.15c0.45,2.7,0.54,5.47,0.19,8.21
						c-0.35,2.73-1.14,5.42-2.31,7.93L47.15,95.52z"/>
				</g>
				<g>
					<path class="st7" d="M51.92,94.84c2.22-5.35,2.91-11.34,1.94-17.12c1.22,5.73,0.8,11.83-1.24,17.39L51.92,94.84z"/>
				</g>
				<g>
					<path class="st7" d="M56.34,93.76c1.88-5.83,2.58-12.14,1.36-18.24c0.72,3.01,1,6.13,0.86,9.24c-0.14,3.11-0.67,6.2-1.5,9.21
						L56.34,93.76z"/>
				</g>
				<g>
					<path class="st7" d="M60.89,92.08c1.74-6.05,2.07-12.56,0.68-18.77c1.64,6.15,1.57,12.74,0.05,18.97L60.89,92.08z"/>
				</g>
				<g>
					<path class="st7" d="M77.31,84.29c0.71-3.23,0.95-6.56,0.82-9.88c-0.13-3.32-0.62-6.64-1.45-9.87c0.95,3.2,1.57,6.51,1.82,9.85
						c0.25,3.34,0.14,6.73-0.46,10.05L77.31,84.29z"/>
				</g>
				<g>
					<path class="st7" d="M73.9,85.99c0.99-6.44,1.03-13.12-0.66-19.48c1.93,6.3,2.16,13.04,1.4,19.58L73.9,85.99z"/>
				</g>
				<g>
					<path class="st7" d="M69.71,88.27c1.48-6.36,1.38-13.12-0.37-19.49c1.99,6.29,2.37,13.11,1.1,19.64L69.71,88.27z"/>
				</g>
				<g>
					<path class="st7" d="M65.5,90.16c1.48-6.23,1.49-12.84-0.09-19.11c1.83,6.2,2.09,12.87,0.83,19.27L65.5,90.16z"/>
				</g>
			</g>
		</g>
	</g>
</g>
<g id="Layer_2">
</g>
</svg>
