<svg id="b6568b62-454a-494f-b16b-69195fa22855" data-name="Layer 1" xmlns="http://www.w3.org/2000/svg" viewBox="0 0 24 24"><defs><style>.a38832a0-47af-4880-a15f-9f6aaa9eb494{fill:#fff;}.a4b8fa00-35a6-4c77-aeb6-88e7f14a14c6{fill:none;stroke-linecap:round;stroke-linejoin:round;}.a4b8fa00-35a6-4c77-aeb6-88e7f14a14c6,.a95f73de-5c13-4354-8ff8-8563a1061ed4{stroke:#3f20ba;stroke-width:0.5px;}.a95f73de-5c13-4354-8ff8-8563a1061ed4,.b63055db-1fba-4657-b49a-933f47ad6b2f{fill:#d9cfff;}.a95f73de-5c13-4354-8ff8-8563a1061ed4{stroke-miterlimit:10;}.e4add99d-bcff-4307-adf6-c0f6b0952912{fill:#3f20ba;}</style></defs><title>Apollo-Custom-Icons</title><path class="a38832a0-47af-4880-a15f-9f6aaa9eb494" d="M7.3,21.65V6.34a2,2,0,0,1,1-1.7l6.19-3.57a.73.73,0,0,1,1.1.63V17a2,2,0,0,1-1,1.7L8.4,22.29A.74.74,0,0,1,7.3,21.65Z"/><path class="a4b8fa00-35a6-4c77-aeb6-88e7f14a14c6" d="M7.3,21.65V6.34a2,2,0,0,1,1-1.7l6.19-3.57a.73.73,0,0,1,1.1.63V17a2,2,0,0,1-1,1.7L8.4,22.29A.74.74,0,0,1,7.3,21.65Z"/><path class="a95f73de-5c13-4354-8ff8-8563a1061ed4" d="M16.33,1.71l-1.12-.64a.72.72,0,0,1,.36.63V17a2,2,0,0,1-1,1.7L8.4,22.29a.72.72,0,0,1-.74,0l1.13.65a.7.7,0,0,0,.74,0l6.19-3.57a2.07,2.07,0,0,0,.72-.72,1.94,1.94,0,0,0,.26-1V2.35A.74.74,0,0,0,16.33,1.71Z"/><path class="a95f73de-5c13-4354-8ff8-8563a1061ed4" d="M10.32,5.3,12.51,4a1.46,1.46,0,0,0,.73-1.26V2.13a.6.6,0,0,1,.3-.53L9.05,4.2a.24.24,0,0,1,.36.21v.37A.61.61,0,0,0,10.32,5.3Z"/><line class="b63055db-1fba-4657-b49a-933f47ad6b2f" x1="7.3" y1="21.55" x2="11.46" y2="19.15"/><polygon class="e4add99d-bcff-4307-adf6-c0f6b0952912" points="7.17 21.34 11.46 19.15 7.42 21.77 7.17 21.34"/><line class="b63055db-1fba-4657-b49a-933f47ad6b2f" x1="7.3" y1="20.55" x2="11.46" y2="18.15"/><polygon class="e4add99d-bcff-4307-adf6-c0f6b0952912" points="7.17 20.34 11.46 18.15 7.42 20.77 7.17 20.34"/><line class="b63055db-1fba-4657-b49a-933f47ad6b2f" x1="7.3" y1="19.55" x2="11.46" y2="17.15"/><polygon class="e4add99d-bcff-4307-adf6-c0f6b0952912" points="7.17 19.34 11.46 17.15 7.42 19.77 7.17 19.34"/><line class="b63055db-1fba-4657-b49a-933f47ad6b2f" x1="7.3" y1="18.55" x2="11.46" y2="16.15"/><polygon class="e4add99d-bcff-4307-adf6-c0f6b0952912" points="7.17 18.34 11.46 16.15 7.42 18.77 7.17 18.34"/><line class="b63055db-1fba-4657-b49a-933f47ad6b2f" x1="7.3" y1="17.55" x2="11.46" y2="15.15"/><polygon class="e4add99d-bcff-4307-adf6-c0f6b0952912" points="7.17 17.34 11.46 15.15 7.42 17.77 7.17 17.34"/><line class="b63055db-1fba-4657-b49a-933f47ad6b2f" x1="7.3" y1="16.55" x2="11.46" y2="14.15"/><polygon class="e4add99d-bcff-4307-adf6-c0f6b0952912" points="7.17 16.34 11.46 14.15 7.42 16.77 7.17 16.34"/><line class="b63055db-1fba-4657-b49a-933f47ad6b2f" x1="7.3" y1="15.55" x2="11.46" y2="13.15"/><polygon class="e4add99d-bcff-4307-adf6-c0f6b0952912" points="7.17 15.34 11.46 13.15 7.42 15.77 7.17 15.34"/><line class="b63055db-1fba-4657-b49a-933f47ad6b2f" x1="7.3" y1="14.55" x2="11.46" y2="12.15"/><polygon class="e4add99d-bcff-4307-adf6-c0f6b0952912" points="7.17 14.34 11.46 12.15 7.42 14.77 7.17 14.34"/><line class="b63055db-1fba-4657-b49a-933f47ad6b2f" x1="7.3" y1="13.55" x2="11.46" y2="11.15"/><polygon class="e4add99d-bcff-4307-adf6-c0f6b0952912" points="7.17 13.34 11.46 11.15 7.42 13.77 7.17 13.34"/><line class="b63055db-1fba-4657-b49a-933f47ad6b2f" x1="7.3" y1="12.55" x2="11.46" y2="10.15"/><polygon class="e4add99d-bcff-4307-adf6-c0f6b0952912" points="7.17 12.34 11.46 10.15 7.42 12.77 7.17 12.34"/><line class="b63055db-1fba-4657-b49a-933f47ad6b2f" x1="7.3" y1="11.55" x2="11.46" y2="9.15"/><polygon class="e4add99d-bcff-4307-adf6-c0f6b0952912" points="7.17 11.34 11.46 9.15 7.42 11.77 7.17 11.34"/><line class="b63055db-1fba-4657-b49a-933f47ad6b2f" x1="7.3" y1="10.55" x2="11.46" y2="8.15"/><polygon class="e4add99d-bcff-4307-adf6-c0f6b0952912" points="7.17 10.34 11.46 8.15 7.42 10.77 7.17 10.34"/><line class="b63055db-1fba-4657-b49a-933f47ad6b2f" x1="7.3" y1="9.55" x2="11.46" y2="7.15"/><polygon class="e4add99d-bcff-4307-adf6-c0f6b0952912" points="7.17 9.34 11.46 7.15 7.42 9.77 7.17 9.34"/><line class="b63055db-1fba-4657-b49a-933f47ad6b2f" x1="7.3" y1="8.55" x2="11.46" y2="6.15"/><polygon class="e4add99d-bcff-4307-adf6-c0f6b0952912" points="7.17 8.34 11.46 6.15 7.42 8.77 7.17 8.34"/><line class="b63055db-1fba-4657-b49a-933f47ad6b2f" x1="7.3" y1="7.55" x2="9.73" y2="6.15"/><polygon class="e4add99d-bcff-4307-adf6-c0f6b0952912" points="7.17 7.34 9.73 6.15 7.42 7.77 7.17 7.34"/><line class="b63055db-1fba-4657-b49a-933f47ad6b2f" x1="7.3" y1="6.55" x2="8.87" y2="5.65"/><polygon class="e4add99d-bcff-4307-adf6-c0f6b0952912" points="7.17 6.34 8.87 5.65 7.42 6.77 7.17 6.34"/></svg>