<svg id="a95845fb-6481-41ee-ad1a-3c85fae1fb8c" data-name="Layer 1" xmlns="http://www.w3.org/2000/svg" viewBox="0 0 24 24"><defs><style>.a8abe490-bbb8-4bd2-b8fc-72061f8334e5{fill:#fff;}.b018e8ae-cbf2-4e75-aa5b-472510557190{fill:none;}.b018e8ae-cbf2-4e75-aa5b-472510557190,.b3d2e27f-2adf-4b38-bbcb-ea39e07538e8{stroke:#3f20ba;stroke-linecap:round;stroke-linejoin:round;stroke-width:0.5px;}.b3d2e27f-2adf-4b38-bbcb-ea39e07538e8{fill:#d9cfff;}.acf0186e-4a5d-4226-bdd7-4bda9962151d{fill:#3f20ba;}</style></defs><title>Apollo-Custom-Icons</title><path class="a8abe490-bbb8-4bd2-b8fc-72061f8334e5" d="M21.31,8.76a1.53,1.53,0,0,0-.75-1.29L11.41,2.19a1,1,0,0,0-1,0L10,2.4l9.9,5.71a1,1,0,0,1,.5.87V16.9l-6.9,4a1,1,0,0,1-1,0L2.65,15.17v.43a1,1,0,0,0,.5.86l9.14,5.28a1.49,1.49,0,0,0,1.5,0L21,17.59a.75.75,0,0,0,.37-.66Z"/><path class="a8abe490-bbb8-4bd2-b8fc-72061f8334e5" d="M13.54,20.89l6.9-4L10,10.9,2.65,15.17l9.89,5.72A1,1,0,0,0,13.54,20.89Z"/><path class="a8abe490-bbb8-4bd2-b8fc-72061f8334e5" d="M10,10.9l10.4,6V9a1,1,0,0,0-.5-.87L10,2.4Z"/><path class="b018e8ae-cbf2-4e75-aa5b-472510557190" d="M13.54,20.89l6.9-4L10,10.9,2.65,15.17l9.89,5.72A1,1,0,0,0,13.54,20.89Z"/><path class="b018e8ae-cbf2-4e75-aa5b-472510557190" d="M10,10.9l10.4,6V9a1,1,0,0,0-.5-.87L10,2.4Z"/><polygon class="b3d2e27f-2adf-4b38-bbcb-ea39e07538e8" points="16.93 18.92 19.14 17.65 8.74 11.65 6.54 12.92 16.93 18.92"/><polygon class="b3d2e27f-2adf-4b38-bbcb-ea39e07538e8" points="10.22 18.3 11.99 17.28 9.39 15.78 7.63 16.8 10.22 18.3"/><path class="b018e8ae-cbf2-4e75-aa5b-472510557190" d="M2.65,15.17v.43a1,1,0,0,0,.5.86l9.14,5.28a1.49,1.49,0,0,0,1.5,0L21,17.59a.75.75,0,0,0,.37-.66l0-8.17a1.53,1.53,0,0,0-.75-1.29L11.41,2.19a1,1,0,0,0-1,0L10,2.4"/><path class="acf0186e-4a5d-4226-bdd7-4bda9962151d" d="M14.37,12.15l6.19,3.29a.24.24,0,0,1,.1.33.24.24,0,0,1-.33.11h0Z"/><path class="acf0186e-4a5d-4226-bdd7-4bda9962151d" d="M14.37,11.15l6.19,3.29a.24.24,0,0,1,.1.33.24.24,0,0,1-.33.11h0Z"/><path class="acf0186e-4a5d-4226-bdd7-4bda9962151d" d="M14.37,10.15l6.19,3.29a.24.24,0,0,1,.1.33.24.24,0,0,1-.33.11h0Z"/><path class="acf0186e-4a5d-4226-bdd7-4bda9962151d" d="M14.37,9.15l6.19,3.29a.24.24,0,0,1,.1.33.24.24,0,0,1-.33.11h0Z"/><path class="acf0186e-4a5d-4226-bdd7-4bda9962151d" d="M14.37,8.15l6.19,3.29a.24.24,0,0,1,.1.33.24.24,0,0,1-.33.11h0Z"/><path class="acf0186e-4a5d-4226-bdd7-4bda9962151d" d="M14.37,7.15l6.19,3.29a.24.24,0,0,1,.1.33.24.24,0,0,1-.33.11h0Z"/><path class="acf0186e-4a5d-4226-bdd7-4bda9962151d" d="M14.37,6.15l6.19,3.29a.24.24,0,0,1,.1.33.24.24,0,0,1-.33.11h0Z"/></svg>