<svg id="b72b2cc8-ce7b-42a4-901b-499725df1afd" data-name="Layer 1" xmlns="http://www.w3.org/2000/svg" viewBox="0 0 24 24"><defs><style>.bf29004c-c8e2-46c2-819f-705d120e224f,.e74c20d9-a4c2-43a9-ad10-aff848be601f{fill:#fff;}.a5b952d1-bc75-49f7-a2e6-aadcd4306dbd{fill:#d9cfff;}.a53e2974-ea9b-483e-8c42-474d7e99aaf7,.a5b952d1-bc75-49f7-a2e6-aadcd4306dbd,.e74c20d9-a4c2-43a9-ad10-aff848be601f{stroke:#3f20ba;stroke-width:0.5px;}.a53e2974-ea9b-483e-8c42-474d7e99aaf7,.a5b952d1-bc75-49f7-a2e6-aadcd4306dbd{stroke-miterlimit:10;}.b98fe4a3-3183-476a-bd41-df15c24a7d06{fill:#3f20ba;}.a53e2974-ea9b-483e-8c42-474d7e99aaf7{fill:none;}.e74c20d9-a4c2-43a9-ad10-aff848be601f{stroke-linejoin:round;}</style></defs><title>Apollo-Custom-Icons</title><path class="bf29004c-c8e2-46c2-819f-705d120e224f" d="M14.8,4.76c-.93-.53-2.44.34-3.37,2a4.93,4.93,0,0,0-.7,2.21h0l1.69-1,4.16,2.41c-.66,1.46-.58,2.91.26,3.39l2.55,1.47c-.93-.54-.93-2.28,0-3.9s2.44-2.49,3.38-2Z"/><path class="bf29004c-c8e2-46c2-819f-705d120e224f" d="M11.43,15.91c.93-1.62,2.44-2.49,3.37-1.95l-8-4.6c-.93-.54-2.45.34-3.38,2s-.93,3.36,0,3.9l8,4.6C10.49,19.27,10.49,17.52,11.43,15.91Z"/><ellipse class="a5b952d1-bc75-49f7-a2e6-aadcd4306dbd" cx="13.11" cy="16.88" rx="3.38" ry="1.95" transform="matrix(0.5, -0.87, 0.87, 0.5, -8.07, 19.8)"/><path class="b98fe4a3-3183-476a-bd41-df15c24a7d06" d="M12.2,18.46a1.07,1.07,0,0,0,1-.35,3.67,3.67,0,0,0,.65-.82,3.58,3.58,0,0,0,.39-1,1.09,1.09,0,0,0-.17-1,.74.74,0,0,1,.44.43,1.62,1.62,0,0,1,.11.62,2.52,2.52,0,0,1-1.2,2.07,1.56,1.56,0,0,1-.59.22A.76.76,0,0,1,12.2,18.46Z"/><path class="a53e2974-ea9b-483e-8c42-474d7e99aaf7" d="M11.43,15.91c.93-1.62,2.44-2.49,3.37-1.95l-8-4.6c-.93-.54-2.45.34-3.38,2s-.93,3.36,0,3.9l8,4.6C10.49,19.27,10.49,17.52,11.43,15.91Z"/><path class="a5b952d1-bc75-49f7-a2e6-aadcd4306dbd" d="M3.46,11.31A5.17,5.17,0,0,1,4.81,9.76L3,8.73C2.45,8.4,1.53,8.93,1,9.92s-.57,2,0,2.37l1.82,1.05A5.08,5.08,0,0,1,3.46,11.31Z"/><path class="b98fe4a3-3183-476a-bd41-df15c24a7d06" d="M4.35,11.82a5.22,5.22,0,0,0-.56,2,1.72,1.72,0,0,0,.68,1.67l-.25.43a1.62,1.62,0,0,1-.66-1,3.25,3.25,0,0,1,0-1.12A5.2,5.2,0,0,1,4.35,11.82Z"/><path class="b98fe4a3-3183-476a-bd41-df15c24a7d06" d="M5.23,12.33a5,5,0,0,0-.55,2A1.72,1.72,0,0,0,5.36,16l-.25.43a1.63,1.63,0,0,1-.67-1,3,3,0,0,1,0-1.12A5.25,5.25,0,0,1,5.23,12.33Z"/><path class="b98fe4a3-3183-476a-bd41-df15c24a7d06" d="M6.12,12.84a5.06,5.06,0,0,0-.56,2,1.72,1.72,0,0,0,.68,1.67L6,17a1.62,1.62,0,0,1-.66-1,3.25,3.25,0,0,1,0-1.12A5.27,5.27,0,0,1,6.12,12.84Z"/><path class="b98fe4a3-3183-476a-bd41-df15c24a7d06" d="M7,13.35a5,5,0,0,0-.55,2A1.72,1.72,0,0,0,7.13,17l-.25.43a1.59,1.59,0,0,1-.67-1,3,3,0,0,1,0-1.12A5.25,5.25,0,0,1,7,13.35Z"/><path class="b98fe4a3-3183-476a-bd41-df15c24a7d06" d="M7.89,13.87a5,5,0,0,0-.56,2A1.72,1.72,0,0,0,8,17.55L7.76,18a1.62,1.62,0,0,1-.66-1,3,3,0,0,1,0-1.12A5.16,5.16,0,0,1,7.89,13.87Z"/><path class="b98fe4a3-3183-476a-bd41-df15c24a7d06" d="M8.77,14.38a5,5,0,0,0-.55,2,1.72,1.72,0,0,0,.68,1.67l-.25.43a1.6,1.6,0,0,1-.67-1,3,3,0,0,1,0-1.12A5.12,5.12,0,0,1,8.77,14.38Z"/><path class="b98fe4a3-3183-476a-bd41-df15c24a7d06" d="M9.66,14.89a5,5,0,0,0-.56,2,1.72,1.72,0,0,0,.68,1.67L9.53,19a1.62,1.62,0,0,1-.66-1,3,3,0,0,1,0-1.12A5.14,5.14,0,0,1,9.66,14.89Z"/><path class="b98fe4a3-3183-476a-bd41-df15c24a7d06" d="M10.54,15.4a5,5,0,0,0-.55,2,1.72,1.72,0,0,0,.68,1.67l-.25.43a1.6,1.6,0,0,1-.67-1,3,3,0,0,1,0-1.12A5.12,5.12,0,0,1,10.54,15.4Z"/><ellipse class="a5b952d1-bc75-49f7-a2e6-aadcd4306dbd" cx="21.08" cy="12.29" rx="3.38" ry="1.95" transform="matrix(0.5, -0.87, 0.87, 0.5, -0.1, 24.4)"/><path class="a53e2974-ea9b-483e-8c42-474d7e99aaf7" d="M16.84,13.74l2.55,1.47c-.93-.54-.93-2.28,0-3.9s2.44-2.49,3.38-2l-8-4.6c-.93-.53-2.44.34-3.37,2a4.93,4.93,0,0,0-.7,2.21"/><path class="a5b952d1-bc75-49f7-a2e6-aadcd4306dbd" d="M11.43,6.71a5.15,5.15,0,0,1,1.34-1.55L11,4.13c-.57-.33-1.49.2-2.06,1.19s-.56,2.05,0,2.37l1.83,1.06A4.92,4.92,0,0,1,11.43,6.71Z"/><path class="b98fe4a3-3183-476a-bd41-df15c24a7d06" d="M20.17,13.87a1.1,1.1,0,0,0,.95-.35,3.46,3.46,0,0,0,.65-.83,3.29,3.29,0,0,0,.39-1,1.07,1.07,0,0,0-.17-1,.73.73,0,0,1,.44.42,1.67,1.67,0,0,1,.12.62,2.57,2.57,0,0,1-.34,1.19,2.53,2.53,0,0,1-.86.89,1.71,1.71,0,0,1-.6.21A.73.73,0,0,1,20.17,13.87Z"/><polygon class="e74c20d9-a4c2-43a9-ad10-aff848be601f" points="8.4 10.26 12.42 7.94 16.58 10.35 12.56 12.67 8.4 10.26"/><path class="b98fe4a3-3183-476a-bd41-df15c24a7d06" d="M18.4,14.93a1.6,1.6,0,0,1-.66-1,2.82,2.82,0,0,1,0-1.12,5.18,5.18,0,0,1,.8-2,5,5,0,0,0-.55,2,1.7,1.7,0,0,0,.68,1.66Z"/><path class="b98fe4a3-3183-476a-bd41-df15c24a7d06" d="M17.53,14.43a1.64,1.64,0,0,1-.66-1,3.25,3.25,0,0,1,0-1.12,5.2,5.2,0,0,1,.81-2,5.22,5.22,0,0,0-.56,2A1.7,1.7,0,0,0,17.78,14Z"/><path class="e74c20d9-a4c2-43a9-ad10-aff848be601f" d="M14.8,14a1.27,1.27,0,0,1,.54.66l1.5-.88c-.84-.48-.92-1.93-.26-3.39l-4,2.32L14.8,14Z"/></svg>