<?xml version="1.0" encoding="utf-8"?>
<!-- Generator: Adobe Illustrator 24.0.0, SVG Export Plug-In . SVG Version: 6.00 Build 0)  -->
<svg version="1.1" xmlns="http://www.w3.org/2000/svg" xmlns:xlink="http://www.w3.org/1999/xlink" x="0px" y="0px"
	 viewBox="0 0 121.5 121.5" style="enable-background:new 0 0 121.5 121.5;" xml:space="preserve">
<style type="text/css">
	.st0{fill:#D9CFFF;}
	.st1{opacity:0.3;}
	.st2{clip-path:url(#SVGID_2_);}
	.st3{fill:#FFFFFF;}
	.st4{fill:none;stroke:#3F20BA;stroke-width:1.2;stroke-miterlimit:10;}
	.st5{fill:#D9CFFF;stroke:#3F20BA;stroke-width:1.2;stroke-linecap:round;stroke-linejoin:round;stroke-miterlimit:10;}
	.st6{fill:#D9CFFF;stroke:#3F20BA;stroke-width:1.2;stroke-miterlimit:10;}
	.st7{fill:#3F20BA;}
	.st8{fill:#D9CFFF;stroke:#3F20BA;stroke-width:1.35;stroke-miterlimit:10;}
	.st9{fill:none;stroke:#3F20BA;stroke-width:1.35;stroke-miterlimit:10;}
	.st10{fill:none;stroke:#3F20BA;stroke-width:0.75;stroke-linejoin:round;stroke-miterlimit:10;}
	.st11{fill:none;stroke:#3F20BA;stroke-width:1.2;stroke-linejoin:round;stroke-miterlimit:10;}
	.st12{fill:#09D900;}
	.st13{fill:none;stroke:#3F20BA;stroke-width:1.35;stroke-linejoin:round;stroke-miterlimit:10;}
	.st14{fill:none;stroke:#3F20BA;stroke-width:1.35;stroke-linecap:round;stroke-linejoin:round;stroke-miterlimit:10;}
	.st15{fill:#D9CFFF;stroke:#3F20BA;stroke-width:1.35;stroke-linecap:round;stroke-miterlimit:10;}
	.st16{fill:none;stroke:#3F20BA;stroke-width:0.75;stroke-miterlimit:10;}
	.st17{fill:#D9CFFF;stroke:#3F20BA;stroke-width:0.75;stroke-miterlimit:10;}
	.st18{fill:#FFFFFF;stroke:#3F20BA;stroke-width:0.75;stroke-miterlimit:10;}
	.st19{fill:none;stroke:#3F20BA;stroke-width:1.5;stroke-miterlimit:10;}
	.st20{fill:none;stroke:#3F20BA;stroke-width:0.75;stroke-linecap:round;stroke-miterlimit:10;}
	.st21{fill:none;stroke:#3F20BA;stroke-width:1.35;stroke-linecap:round;stroke-miterlimit:10;}
	.st22{fill:#FFFFFF;stroke:#3F20BA;stroke-width:1.35;stroke-linecap:round;stroke-miterlimit:10;}
	.st23{fill:#FFFFFF;stroke:#3F20BA;stroke-width:1.35;stroke-linecap:round;stroke-linejoin:round;stroke-miterlimit:10;}
	.st24{fill:none;stroke:#3F20BA;stroke-linecap:round;stroke-linejoin:round;stroke-miterlimit:10;}
	.st25{fill:#D9CFFF;stroke:#3F20BA;stroke-width:0.75;stroke-linecap:round;stroke-linejoin:round;stroke-miterlimit:10;}
	.st26{fill:none;stroke:#3F20BA;stroke-width:0.5;stroke-linecap:round;stroke-linejoin:round;stroke-miterlimit:10;}
	.st27{fill:#D9CFFF;stroke:#3F20BA;stroke-width:0.5;stroke-linecap:round;stroke-linejoin:round;stroke-miterlimit:10;}
	.st28{fill:#D9CFFF;stroke:#3F20BA;stroke-width:0.5;stroke-miterlimit:10;}
	.st29{fill:none;stroke:#3F20BA;stroke-width:0.5;stroke-miterlimit:10;}
	.st30{fill:#FFFFFF;stroke:#3F20BA;stroke-width:0.5;stroke-linejoin:round;stroke-miterlimit:10;}
	.st31{fill:#FFFFFF;stroke:#3F20BA;stroke-width:0.5;stroke-linecap:round;stroke-linejoin:round;stroke-miterlimit:10;}
	.st32{fill:#D9CFFF;stroke:#3F20BA;stroke-width:0.5;stroke-linejoin:round;stroke-miterlimit:10;}
	.st33{clip-path:url(#SVGID_4_);}
	.st34{clip-path:url(#SVGID_6_);}
	.st35{fill:none;}
	.st36{fill:none;stroke:#37FF2E;stroke-miterlimit:10;}
	.st37{fill:none;stroke:#37FF2E;stroke-width:1.35;stroke-linecap:round;stroke-linejoin:round;stroke-miterlimit:10;}
	.st38{fill:#D9CFFF;stroke:#3F20BA;stroke-width:1.25;stroke-linecap:round;stroke-linejoin:round;stroke-miterlimit:10;}
	.st39{fill:none;stroke:#3F20BA;stroke-width:0.75;stroke-linecap:round;stroke-linejoin:round;stroke-miterlimit:10;}
</style>
<g id="Layer_3">
</g>
<g id="Layer_1">
	<g>
		<path class="st3" d="M85.11,58.67L85.11,58.67c2.4-3.05,3.25-5.87,3.25-5.87c4.16-2.21,6.25-5.98,6.25-8.81
			c3.06-1.77,1.43-3.61-5.5-5.76h0c0,0-1.21-10.36-10.1-15.49c-12.27-7.08-24.93-2.06-30.71,7.94c-2.15,3.73-2.92,7.5-2.85,11.06
			C24.45,29.62,22.36,50.6,23.95,56.53c-7.5,4.33,0.95,45.55,46.85,45.55c19.4,0,29.17-13.19,29.17-23.84
			C99.97,64.04,85.11,58.67,85.11,58.67z"/>
		<path class="st14" d="M45.44,41.74C24.45,29.62,22.36,50.6,23.95,56.53c-7.5,4.33,0.95,45.55,46.85,45.55
			c19.4,0,29.17-13.19,29.17-23.84c0-14.2-14.86-19.57-14.86-19.57"/>
		<path class="st14" d="M53.29,61.2c0,0-13.61-15.62-5-30.53c5.78-10,18.44-15.03,30.71-7.94c8.89,5.13,10.1,15.49,10.1,15.49"/>
		<path class="st14" d="M88.36,52.8c0,0-2.03,6.8-8.8,10.71"/>
		<path class="st15" d="M94.61,43.99c0,4.26-4.73,10.65-14.14,10.65s-14.88-2.17-13.84-6.03c2.46-9.17,10.03-13.77,19.46-11.24
			S98.08,41.99,94.61,43.99c-3.47,2-11.6,4.61-19.52,4.61"/>
		<ellipse transform="matrix(0.866 -0.5 0.5 0.866 -7.8915 37.6335)" class="st8" cx="66.28" cy="33.54" rx="2.21" ry="3.82"/>
		<ellipse transform="matrix(0.866 -0.5 0.5 0.866 -4.6931 44.9559)" class="st8" cx="81.54" cy="31.24" rx="1.99" ry="3.44"/>
		<g>
			<path class="st7" d="M45.72,43.69l-8.07,4.23l7.69-4.88c0.18-0.11,0.41-0.06,0.52,0.12c0.11,0.18,0.06,0.41-0.12,0.52
				C45.74,43.68,45.73,43.69,45.72,43.69z"/>
		</g>
		<g>
			<path class="st7" d="M46.56,48.24l-8.07,4.23l7.69-4.88c0.18-0.11,0.41-0.06,0.52,0.12c0.11,0.18,0.06,0.41-0.12,0.52
				C46.58,48.23,46.57,48.23,46.56,48.24z"/>
		</g>
		<g>
			<path class="st7" d="M47.95,52.47l-8.07,4.23l7.69-4.88c0.18-0.11,0.41-0.06,0.52,0.12c0.11,0.18,0.06,0.41-0.12,0.52
				C47.97,52.46,47.96,52.47,47.95,52.47z"/>
		</g>
		<g>
			<path class="st7" d="M49.91,56.37l-8.07,4.23l7.69-4.88c0.18-0.11,0.41-0.06,0.52,0.12c0.11,0.18,0.06,0.41-0.12,0.52
				C49.93,56.36,49.92,56.37,49.91,56.37z"/>
		</g>
		<g>
			<path class="st7" d="M52.23,60.07l-8.07,4.23l7.69-4.88c0.18-0.11,0.41-0.06,0.52,0.12c0.11,0.18,0.06,0.41-0.12,0.52
				C52.24,60.06,52.23,60.06,52.23,60.07z"/>
		</g>
		<g>
			<path class="st7" d="M51.14,58.18l-5.24,2.59l4.86-3.24c0.17-0.12,0.41-0.07,0.52,0.1c0.12,0.17,0.07,0.41-0.1,0.52
				C51.16,58.16,51.15,58.17,51.14,58.18z"/>
		</g>
		<g>
			<path class="st7" d="M53.5,61.85l-5.24,2.59l4.86-3.24c0.17-0.12,0.41-0.07,0.52,0.1s0.07,0.41-0.1,0.52
				C53.53,61.83,53.51,61.84,53.5,61.85z"/>
		</g>
		<g>
			<path class="st7" d="M48.75,54.52l-5.24,2.59l4.86-3.24c0.17-0.12,0.41-0.07,0.52,0.1s0.07,0.41-0.1,0.52
				C48.78,54.51,48.77,54.52,48.75,54.52z"/>
		</g>
		<g>
			<path class="st7" d="M47.21,50.38l-5.24,2.59l4.86-3.24c0.17-0.12,0.41-0.07,0.52,0.1c0.12,0.17,0.07,0.41-0.1,0.52
				C47.24,50.37,47.23,50.37,47.21,50.38z"/>
		</g>
		<g>
			<path class="st7" d="M45.8,46.17l-5.24,2.59l4.86-3.24c0.17-0.12,0.41-0.07,0.52,0.1s0.07,0.41-0.1,0.52
				C45.83,46.15,45.81,46.16,45.8,46.17z"/>
		</g>
		<g>
			<path class="st7" d="M23.61,55.94c0.95-0.47,1.98-0.48,2.88-0.29c0.91,0.19,1.73,0.54,2.49,0.97c1.52,0.85,2.87,1.93,4.08,3.12
				c-1.36-1.02-2.83-1.9-4.37-2.51c-0.77-0.31-1.57-0.52-2.34-0.57c-0.77-0.06-1.51,0.08-2.06,0.46c-0.31,0.21-0.73,0.13-0.94-0.18
				c-0.21-0.31-0.13-0.73,0.18-0.94C23.55,55.98,23.58,55.96,23.61,55.94L23.61,55.94z"/>
		</g>
		<g>
			<g>
				<path class="st7" d="M73.87,102.51c-0.98-0.67-1.93-1.4-2.66-2.34c-0.75-0.91-1.34-1.95-1.7-3.06c-0.38-1.1-0.58-2.25-0.63-3.4
					c-0.04-1.15,0.04-2.3,0.3-3.41C69,91.43,69,92.58,69.13,93.7c0.13,1.12,0.41,2.22,0.85,3.24c0.42,1.03,1.04,1.96,1.8,2.75
					c0.72,0.82,1.66,1.42,2.59,1.97l0.04,0.02c0.24,0.14,0.32,0.45,0.18,0.69c-0.14,0.24-0.45,0.32-0.69,0.18
					C73.89,102.53,73.88,102.52,73.87,102.51z"/>
			</g>
			<g>
				<path class="st7" d="M69.73,102.51c-1.35-0.9-2.56-2.03-3.38-3.43c-0.79-1.4-1.26-2.95-1.48-4.51c-0.22-1.56-0.17-3.14,0-4.69
					c0.19-1.55,0.5-3.08,0.98-4.55c-0.4,1.5-0.63,3.04-0.73,4.57c-0.09,1.54-0.06,3.09,0.24,4.58c0.29,1.49,0.82,2.93,1.63,4.19
					c0.83,1.25,1.99,2.21,3.25,2.96l0.03,0.02c0.24,0.14,0.31,0.45,0.17,0.69s-0.45,0.31-0.69,0.17
					C69.75,102.52,69.74,102.52,69.73,102.51z"/>
			</g>
			<g>
				<path class="st7" d="M65.6,102.16c-0.75-0.47-1.44-1.02-2.04-1.67c-0.59-0.65-1.09-1.38-1.49-2.16
					c-0.78-1.56-1.16-3.27-1.27-4.96c-0.12-1.7,0.01-3.39,0.27-5.06c0.27-1.66,0.67-3.3,1.23-4.88c-0.48,1.61-0.79,3.26-0.98,4.92
					c-0.18,1.66-0.22,3.33-0.02,4.98c0.19,1.64,0.64,3.25,1.43,4.66c0.4,0.7,0.89,1.34,1.45,1.9c0.57,0.55,1.23,1.02,1.92,1.41
					l0.02,0.01c0.24,0.14,0.32,0.44,0.19,0.68c-0.14,0.24-0.44,0.32-0.68,0.19C65.61,102.17,65.61,102.16,65.6,102.16z"/>
			</g>
			<g>
				<path class="st7" d="M61.47,101.8c-0.81-0.51-1.56-1.12-2.2-1.83c-0.63-0.72-1.14-1.54-1.54-2.39c-0.8-1.72-1.1-3.6-1.17-5.44
					c-0.05-1.85,0.14-3.69,0.48-5.48c0.35-1.8,0.82-3.57,1.46-5.28c-0.56,1.74-0.95,3.52-1.22,5.32c-0.26,1.8-0.36,3.62-0.23,5.42
					c0.15,1.79,0.52,3.58,1.34,5.14c0.41,0.78,0.91,1.5,1.51,2.13c0.61,0.62,1.31,1.13,2.06,1.56l0.01,0.01
					c0.24,0.14,0.32,0.44,0.19,0.68c-0.14,0.24-0.44,0.32-0.68,0.19C61.48,101.81,61.47,101.81,61.47,101.8z"/>
			</g>
			<g>
				<path class="st7" d="M57.26,101.09c-1.76-1.07-3.14-2.74-3.87-4.62c-0.77-1.87-1.03-3.87-1.07-5.84
					c-0.02-1.97,0.19-3.93,0.55-5.85c0.36-1.92,0.85-3.82,1.5-5.66c-0.57,1.87-0.97,3.78-1.25,5.7c-0.28,1.92-0.4,3.87-0.3,5.8
					c0.12,1.92,0.46,3.84,1.26,5.55c0.76,1.73,2.07,3.15,3.68,4.05c0.24,0.13,0.33,0.44,0.2,0.68s-0.44,0.33-0.68,0.2
					C57.27,101.1,57.26,101.1,57.26,101.09z"/>
			</g>
			<g>
				<path class="st7" d="M53.27,100.22c-1.88-1.15-3.32-2.95-4.06-4.96c-0.78-2.01-1.02-4.14-1.03-6.24c0-2.1,0.25-4.19,0.65-6.23
					c0.4-2.05,0.93-4.07,1.62-6.03c-0.61,1.99-1.06,4.02-1.37,6.07c-0.31,2.05-0.47,4.12-0.39,6.18c0.09,2.05,0.42,4.11,1.22,5.96
					c0.77,1.87,2.15,3.42,3.86,4.38l0.01,0c0.24,0.14,0.33,0.44,0.19,0.68c-0.14,0.24-0.44,0.33-0.68,0.19
					C53.28,100.23,53.28,100.23,53.27,100.22z"/>
			</g>
			<g>
				<path class="st7" d="M49.07,98.73c-1.96-1.19-3.42-3.09-4.16-5.19c-0.78-2.09-1.02-4.31-1.02-6.49
					c0.01-2.18,0.26-4.35,0.66-6.48c0.41-2.13,0.94-4.24,1.65-6.28c-0.62,2.07-1.07,4.19-1.4,6.32c-0.32,2.13-0.49,4.29-0.41,6.43
					c0.08,2.14,0.41,4.28,1.22,6.22c0.78,1.95,2.18,3.6,3.97,4.6c0.24,0.13,0.33,0.44,0.2,0.68c-0.13,0.24-0.44,0.33-0.68,0.2
					C49.08,98.74,49.07,98.73,49.07,98.73z"/>
			</g>
			<g>
				<path class="st7" d="M44.93,97.19c-2.02-1.23-3.59-3.15-4.39-5.32c-0.85-2.16-1.11-4.47-1.11-6.73
					c0.01-2.27,0.29-4.52,0.73-6.73c0.45-2.21,1.04-4.39,1.81-6.5c-0.69,2.14-1.2,4.33-1.56,6.54c-0.36,2.21-0.55,4.45-0.48,6.68
					c0.08,2.22,0.43,4.45,1.3,6.45c0.84,2.02,2.33,3.7,4.2,4.74l0,0c0.24,0.14,0.33,0.44,0.19,0.68s-0.44,0.33-0.68,0.19
					C44.94,97.19,44.94,97.19,44.93,97.19z"/>
			</g>
			<g>
				<path class="st7" d="M40.8,94.94c-2-1.22-3.57-3.12-4.35-5.29c-0.83-2.15-1.05-4.45-1.01-6.69c0.06-2.25,0.38-4.48,0.88-6.66
					c0.5-2.18,1.14-4.33,1.96-6.4c-0.74,2.1-1.3,4.27-1.71,6.45c-0.41,2.18-0.65,4.4-0.62,6.61c0.04,2.2,0.35,4.42,1.21,6.41
					c0.82,2.01,2.31,3.67,4.16,4.7c0.24,0.13,0.33,0.44,0.2,0.68s-0.44,0.33-0.68,0.2C40.81,94.95,40.8,94.94,40.8,94.94z"/>
			</g>
			<g>
				<path class="st7" d="M36.67,91.46c-1.9-1.15-3.38-2.98-4.09-5.05c-0.75-2.05-0.92-4.23-0.83-6.36c0.1-2.13,0.46-4.23,0.97-6.28
					c0.52-2.05,1.17-4.06,1.99-6.01c-0.74,1.97-1.31,4.01-1.74,6.07c-0.43,2.06-0.7,4.15-0.72,6.24c-0.01,2.08,0.24,4.18,1.03,6.07
					c0.74,1.91,2.14,3.48,3.89,4.45c0.24,0.13,0.33,0.44,0.2,0.68c-0.13,0.24-0.44,0.33-0.68,0.2
					C36.68,91.47,36.67,91.46,36.67,91.46z"/>
			</g>
			<g>
				<path class="st7" d="M28.73,82.99c-1.64-0.99-2.7-2.68-3.2-4.41c-0.5-1.75-0.6-3.54-0.52-5.31c0.08-1.77,0.35-3.51,0.7-5.23
					c0.37-1.72,0.83-3.41,1.4-5.06c-0.5,1.68-0.87,3.39-1.16,5.11c-0.27,1.72-0.46,3.46-0.45,5.19c0,1.73,0.19,3.46,0.73,5.07
					c0.55,1.59,1.56,3,2.98,3.77c0.24,0.13,0.33,0.44,0.2,0.68c-0.13,0.24-0.44,0.33-0.68,0.2C28.75,83,28.73,82.99,28.73,82.99z"/>
			</g>
			<g>
				<path class="st7" d="M32.53,87.11c-1.74-1.05-2.98-2.79-3.57-4.65c-0.61-1.87-0.75-3.81-0.67-5.72c0.07-1.91,0.37-3.8,0.78-5.65
					c0.42-1.85,0.94-3.68,1.61-5.45c-0.58,1.8-1.03,3.64-1.36,5.5c-0.32,1.86-0.53,3.74-0.52,5.61c0.01,1.87,0.24,3.75,0.88,5.46
					c0.63,1.72,1.81,3.18,3.36,4.03c0.24,0.13,0.33,0.44,0.2,0.68s-0.44,0.33-0.68,0.2C32.55,87.11,32.54,87.11,32.53,87.11z"/>
			</g>
		</g>
		<g>
			<g>
				<path class="st7" d="M71.78,102.29c-0.77-0.53-1.52-1.09-2.14-1.79c-0.65-0.67-1.16-1.45-1.58-2.27
					c-0.83-1.64-1.16-3.51-0.97-5.29c-0.02,1.79,0.48,3.57,1.41,5.04c0.47,0.73,1.01,1.42,1.67,1.98c0.63,0.59,1.37,1.04,2.12,1.46
					l0.03,0.02c0.24,0.14,0.33,0.44,0.19,0.68c-0.14,0.24-0.44,0.33-0.68,0.19C71.81,102.3,71.79,102.3,71.78,102.29z"/>
			</g>
			<g>
				<path class="st7" d="M76.01,102.19c-0.57-0.29-1.13-0.61-1.62-1.02c-0.49-0.4-0.93-0.86-1.3-1.35
					c-0.75-0.99-1.28-2.12-1.56-3.29c0.44,1.12,1.11,2.14,1.94,2.96c0.41,0.42,0.87,0.78,1.36,1.07c0.48,0.31,1.01,0.52,1.54,0.7
					l0.03,0.01c0.26,0.09,0.4,0.38,0.31,0.64c-0.09,0.26-0.38,0.4-0.64,0.31C76.05,102.21,76.03,102.2,76.01,102.19z"/>
			</g>
			<g>
				<path class="st7" d="M67.65,102.29c-0.89-0.62-1.75-1.28-2.4-2.15c-0.66-0.84-1.22-1.76-1.59-2.75
					c-0.76-1.96-1.02-4.08-0.85-6.13c-0.01,2.06,0.43,4.11,1.3,5.93c0.43,0.91,1.02,1.74,1.69,2.46c0.66,0.75,1.5,1.28,2.34,1.77
					l0.04,0.02c0.24,0.14,0.32,0.45,0.18,0.69s-0.45,0.32-0.69,0.18C67.67,102.3,67.66,102.29,67.65,102.29z"/>
			</g>
			<g>
				<path class="st7" d="M63.52,101.93c-0.98-0.68-1.92-1.44-2.59-2.41c-0.68-0.96-1.23-2.01-1.56-3.12
					c-0.33-1.11-0.52-2.25-0.59-3.39c-0.06-1.14-0.02-2.28,0.17-3.4c-0.1,1.13-0.06,2.26,0.08,3.38c0.14,1.11,0.41,2.21,0.81,3.24
					c0.39,1.04,0.98,1.99,1.67,2.82c0.68,0.85,1.59,1.47,2.51,2.01l0.04,0.02c0.24,0.14,0.32,0.45,0.17,0.69s-0.45,0.32-0.69,0.17
					C63.53,101.95,63.52,101.94,63.52,101.93z"/>
			</g>
			<g>
				<path class="st7" d="M59.38,101.58c-1.1-0.74-2.1-1.64-2.82-2.74c-0.71-1.1-1.21-2.31-1.53-3.55c-0.3-1.25-0.44-2.52-0.46-3.78
					c-0.01-1.27,0.07-2.53,0.31-3.77c-0.15,1.25-0.15,2.51-0.06,3.76c0.1,1.25,0.32,2.48,0.69,3.66c0.39,1.17,0.94,2.28,1.66,3.25
					c0.73,0.97,1.69,1.71,2.71,2.31l0.03,0.02c0.24,0.14,0.32,0.45,0.18,0.69c-0.14,0.24-0.45,0.32-0.69,0.18
					C59.4,101.59,59.39,101.58,59.38,101.58z"/>
			</g>
			<g>
				<path class="st7" d="M55.17,100.87c-1.22-0.8-2.25-1.84-3.01-3.05c-0.72-1.23-1.19-2.57-1.48-3.94
					c-0.29-1.37-0.37-2.76-0.36-4.14c0.03-1.38,0.15-2.76,0.42-4.1c-0.19,1.36-0.23,2.74-0.17,4.1c0.07,1.36,0.23,2.72,0.59,4.02
					c0.36,1.3,0.89,2.54,1.62,3.65c0.77,1.08,1.77,1.94,2.88,2.59l0.03,0.02c0.24,0.14,0.32,0.44,0.18,0.68
					c-0.14,0.24-0.44,0.32-0.68,0.18C55.19,100.88,55.18,100.87,55.17,100.87z"/>
			</g>
			<g>
				<path class="st7" d="M50.97,99.56c-1.31-0.84-2.33-2.03-3.05-3.34c-0.74-1.31-1.11-2.77-1.39-4.2
					c-0.27-1.44-0.36-2.91-0.35-4.36c0.01-1.45,0.11-2.91,0.34-4.34c-0.15,1.44-0.16,2.89-0.09,4.33c0.07,1.44,0.25,2.88,0.59,4.26
					c0.35,1.38,0.79,2.75,1.55,3.93c0.74,1.18,1.72,2.18,2.9,2.85l0.02,0.01c0.24,0.14,0.32,0.44,0.19,0.68s-0.44,0.32-0.68,0.19
					C50.98,99.57,50.98,99.56,50.97,99.56z"/>
			</g>
			<g>
				<path class="st7" d="M46.98,98.04c-1.37-0.89-2.52-2.07-3.34-3.45c-0.79-1.4-1.26-2.93-1.53-4.47
					c-0.28-1.54-0.31-3.11-0.25-4.66c0.08-1.55,0.27-3.09,0.62-4.6c-0.27,1.52-0.37,3.07-0.37,4.6c0.02,1.53,0.13,3.07,0.49,4.56
					c0.35,1.48,0.88,2.91,1.68,4.17c0.83,1.24,1.94,2.24,3.2,2.98l0.03,0.02c0.24,0.14,0.32,0.45,0.18,0.68
					c-0.14,0.24-0.45,0.32-0.68,0.18C47,98.05,46.99,98.05,46.98,98.04z"/>
			</g>
			<g>
				<path class="st7" d="M42.85,96.03c-1.43-0.94-2.65-2.16-3.52-3.61c-0.82-1.47-1.32-3.07-1.61-4.69
					c-0.29-1.62-0.31-3.27-0.22-4.89c0.1-1.63,0.32-3.24,0.71-4.82c-0.31,1.59-0.45,3.21-0.46,4.83c0,1.61,0.1,3.23,0.46,4.79
					c0.35,1.56,0.92,3.06,1.75,4.39c0.88,1.3,2.05,2.35,3.38,3.13l0.03,0.02c0.24,0.14,0.32,0.45,0.18,0.68
					c-0.14,0.24-0.45,0.32-0.68,0.18C42.86,96.04,42.85,96.03,42.85,96.03z"/>
			</g>
			<g>
				<path class="st7" d="M36.87,92.1c-1.17-1.04-1.94-2.4-2.43-3.8c-0.51-1.41-0.69-2.88-0.77-4.34c-0.08-1.46-0.01-2.92,0.16-4.36
					c0.17-1.44,0.41-2.87,0.76-4.27c-0.27,1.42-0.43,2.86-0.51,4.29c-0.08,1.44-0.06,2.88,0.09,4.3c0.16,1.41,0.42,2.83,0.97,4.12
					c0.53,1.29,1.31,2.45,2.36,3.29l0.01,0.01c0.22,0.17,0.25,0.49,0.08,0.7c-0.17,0.22-0.49,0.25-0.7,0.08
					C36.88,92.11,36.88,92.1,36.87,92.1z"/>
			</g>
			<g>
				<path class="st7" d="M32.21,87.9c-1.11-1.48-1.76-3.21-2.08-4.97c-0.34-1.76-0.28-3.54-0.13-5.29c0.16-1.75,0.51-3.47,0.96-5.16
					c0.45-1.68,0.99-3.35,1.67-4.95c-0.6,1.63-1.06,3.31-1.43,5.01c-0.37,1.69-0.63,3.41-0.7,5.13c-0.07,1.72-0.04,3.45,0.36,5.1
					c0.38,1.65,1.07,3.21,2.12,4.48l0.01,0.01c0.18,0.21,0.15,0.53-0.07,0.7c-0.21,0.18-0.53,0.15-0.7-0.07
					C32.22,87.91,32.21,87.9,32.21,87.9z"/>
			</g>
			<g>
				<path class="st7" d="M23.98,75.71c-0.33-1.63-0.43-3.28-0.3-4.91c0.13-1.62,0.45-3.23,1.01-4.73c-0.4,1.56-0.55,3.16-0.51,4.75
					c0.03,1.59,0.3,3.15,0.77,4.64l0,0.01c0.08,0.26-0.06,0.54-0.33,0.63c-0.26,0.08-0.54-0.06-0.63-0.33
					C23.99,75.74,23.99,75.72,23.98,75.71z"/>
			</g>
			<g>
				<path class="st7" d="M30.33,85.82c-0.93-1.17-1.8-2.39-2.34-3.78c-0.57-1.36-0.98-2.79-1.14-4.25
					c-0.18-1.45-0.21-2.91-0.08-4.36c0.13-1.44,0.38-2.88,0.81-4.26c-0.34,1.4-0.51,2.84-0.56,4.27c-0.04,1.43,0.06,2.87,0.32,4.27
					c0.24,1.4,0.72,2.75,1.33,4.01c0.59,1.28,1.48,2.38,2.4,3.42l0.03,0.03c0.18,0.21,0.16,0.52-0.04,0.71
					c-0.21,0.18-0.52,0.16-0.71-0.04C30.34,85.83,30.33,85.83,30.33,85.82z"/>
			</g>
		</g>
	</g>
</g>
<g id="Layer_2">
</g>
</svg>
