<?xml version="1.0" encoding="utf-8"?>
<!-- Generator: Adobe Illustrator 24.0.0, SVG Export Plug-In . SVG Version: 6.00 Build 0)  -->
<svg version="1.1" xmlns="http://www.w3.org/2000/svg" xmlns:xlink="http://www.w3.org/1999/xlink" x="0px" y="0px"
	 viewBox="0 0 121.5 121.5" style="enable-background:new 0 0 121.5 121.5;" xml:space="preserve">
<style type="text/css">
	.st0{fill:#D9CFFF;}
	.st1{opacity:0.3;}
	.st2{clip-path:url(#SVGID_2_);}
	.st3{fill:#FFFFFF;}
	.st4{fill:none;stroke:#3F20BA;stroke-width:1.2;stroke-miterlimit:10;}
	.st5{fill:#D9CFFF;stroke:#3F20BA;stroke-width:1.2;stroke-linecap:round;stroke-linejoin:round;stroke-miterlimit:10;}
	.st6{fill:#D9CFFF;stroke:#3F20BA;stroke-width:1.2;stroke-miterlimit:10;}
	.st7{fill:#3F20BA;}
	.st8{fill:#D9CFFF;stroke:#3F20BA;stroke-width:1.35;stroke-miterlimit:10;}
	.st9{fill:none;stroke:#3F20BA;stroke-width:1.35;stroke-miterlimit:10;}
	.st10{fill:none;stroke:#3F20BA;stroke-width:0.75;stroke-linejoin:round;stroke-miterlimit:10;}
	.st11{fill:none;stroke:#3F20BA;stroke-width:1.2;stroke-linejoin:round;stroke-miterlimit:10;}
	.st12{fill:#09D900;}
	.st13{fill:none;stroke:#3F20BA;stroke-width:1.35;stroke-linejoin:round;stroke-miterlimit:10;}
	.st14{fill:none;stroke:#3F20BA;stroke-width:1.35;stroke-linecap:round;stroke-linejoin:round;stroke-miterlimit:10;}
	.st15{fill:#D9CFFF;stroke:#3F20BA;stroke-width:1.35;stroke-linecap:round;stroke-miterlimit:10;}
	.st16{fill:none;stroke:#3F20BA;stroke-width:0.75;stroke-miterlimit:10;}
	.st17{fill:#D9CFFF;stroke:#3F20BA;stroke-width:0.75;stroke-miterlimit:10;}
	.st18{fill:#FFFFFF;stroke:#3F20BA;stroke-width:0.75;stroke-miterlimit:10;}
	.st19{fill:none;stroke:#3F20BA;stroke-width:1.5;stroke-miterlimit:10;}
	.st20{fill:none;stroke:#3F20BA;stroke-width:0.75;stroke-linecap:round;stroke-miterlimit:10;}
	.st21{fill:none;stroke:#3F20BA;stroke-width:1.35;stroke-linecap:round;stroke-miterlimit:10;}
	.st22{fill:#FFFFFF;stroke:#3F20BA;stroke-width:1.35;stroke-linecap:round;stroke-miterlimit:10;}
	.st23{fill:#FFFFFF;stroke:#3F20BA;stroke-width:1.35;stroke-linecap:round;stroke-linejoin:round;stroke-miterlimit:10;}
	.st24{fill:none;stroke:#3F20BA;stroke-linecap:round;stroke-linejoin:round;stroke-miterlimit:10;}
	.st25{fill:#D9CFFF;stroke:#3F20BA;stroke-width:0.75;stroke-linecap:round;stroke-linejoin:round;stroke-miterlimit:10;}
	.st26{fill:none;stroke:#3F20BA;stroke-width:0.5;stroke-linecap:round;stroke-linejoin:round;stroke-miterlimit:10;}
	.st27{fill:#D9CFFF;stroke:#3F20BA;stroke-width:0.5;stroke-linecap:round;stroke-linejoin:round;stroke-miterlimit:10;}
	.st28{fill:#D9CFFF;stroke:#3F20BA;stroke-width:0.5;stroke-miterlimit:10;}
	.st29{fill:none;stroke:#3F20BA;stroke-width:0.5;stroke-miterlimit:10;}
	.st30{fill:#FFFFFF;stroke:#3F20BA;stroke-width:0.5;stroke-linejoin:round;stroke-miterlimit:10;}
	.st31{fill:#FFFFFF;stroke:#3F20BA;stroke-width:0.5;stroke-linecap:round;stroke-linejoin:round;stroke-miterlimit:10;}
	.st32{fill:#D9CFFF;stroke:#3F20BA;stroke-width:0.5;stroke-linejoin:round;stroke-miterlimit:10;}
	.st33{clip-path:url(#SVGID_4_);}
	.st34{clip-path:url(#SVGID_6_);}
	.st35{fill:none;}
	.st36{fill:none;stroke:#37FF2E;stroke-miterlimit:10;}
	.st37{fill:none;stroke:#37FF2E;stroke-width:1.35;stroke-linecap:round;stroke-linejoin:round;stroke-miterlimit:10;}
	.st38{fill:#D9CFFF;stroke:#3F20BA;stroke-width:1.25;stroke-linecap:round;stroke-linejoin:round;stroke-miterlimit:10;}
	.st39{fill:none;stroke:#3F20BA;stroke-width:0.75;stroke-linecap:round;stroke-linejoin:round;stroke-miterlimit:10;}
</style>
<g id="Layer_3">
</g>
<g id="Layer_1">
	<g>
		<path class="st3" d="M90.95,31.76c-5.87-3.39-18.31-11.23-22.06-10.23l-1.75-1.01c-4.01-2.32-8.95-2.32-12.96,0L27.05,36.2
			c-5.09,2.94-6,9.49-2.74,13.73l-0.01,0c-4.97,18.54-4.91,33.37,3.71,39.2c0.01,0.02,0.02,0.04,0.03,0.06l-0.01-0.04
			c0.25,0.17,0.52,0.34,0.79,0.49c2.65,1.53,4.82,2.78,6.78,3.91c0.87,0.5,1.71,0.99,2.52,1.45c2.88,1.66,5.53,3.19,8.95,5.16
			c3.36,1.94,6.69,2.62,9.89,2.52c0.07,0,0.13,0.01,0.2,0.01l-0.02-0.02c5.96-0.23,11.48-3.15,15.89-5.69
			c6.82-3.94,12.53-12.46,12.53-12.46c2.37-4.11,5.41-4.09,8.97-6.14c3.56-2.06,1.78-6.03,3.52-12.51
			C99.81,59.31,105.25,40.02,90.95,31.76z M74.44,59.14c-4.93,2.84-8.12,3.79-9.47,8.81c-1.5,5.61-3.13,9.71-10.52,13.98
			c-3.62,2.09-5.18,3.73-5.39,5.87l-5.9,3.41c-3.23-12.06,0.43-23.35,5.92-26.52c3.43,1.08,7.2,0.71,10.39-1.13L77.58,53.1
			C76.18,54.81,75.2,56.93,74.44,59.14L74.44,59.14z"/>
		<g>
			<path class="st18" d="M63.85,58.53c1.15-0.67,6.04-3.49,6.04-3.49c0.45-0.26,0.72-0.74,0.72-1.25v-0.26
				c0-0.63-0.62-1.13-1.34-0.71c-0.95,0.55-6.07,3.51-6.07,3.51c-0.45,0.26-0.72,0.74-0.72,1.25v0.3
				C62.48,58.41,63.02,59.01,63.85,58.53z"/>
			<g>
				<path class="st0" d="M56.65,27.12c-10.35,0-18.74,4.85-18.74,10.82c0,5.98,8.39,10.82,18.74,10.82
					c10.35,0,18.74-4.85,18.74-10.82C75.39,31.97,67,27.12,56.65,27.12z M55.38,35.77l-0.84-3.12c-0.09-0.35,0.12-0.72,0.47-0.81
					s0.72,0.12,0.81,0.47l0.84,3.12c0.09,0.35-0.12,0.72-0.47,0.81S55.47,36.13,55.38,35.77z M56.65,38.5
					c-0.53,0-0.96-0.25-0.96-0.55c0-0.31,0.43-0.55,0.96-0.55c0.53,0,0.96,0.25,0.96,0.55C57.61,38.25,57.18,38.5,56.65,38.5z
					 M72.71,38.61H60.24c-0.37,0-0.66-0.3-0.66-0.66c0-0.37,0.3-0.66,0.66-0.66h12.47c0.37,0,0.66,0.3,0.66,0.66
					C73.37,38.31,73.07,38.61,72.71,38.61z"/>
				<path class="st0" d="M86.61,31.76L86.61,31.76c2.88,1.66,2.88,5.82,0,7.48L59.47,54.92c-4.01,2.32-8.95,2.32-12.96,0
					L27.05,43.68c-2.88-1.66-2.88-5.82,0-7.48c-6.21,3.58-6.21,12.54,0,16.12l19.46,11.24c4.01,2.32,8.95,2.32,12.96,0l23.15-13.36
					c-0.84-0.15-1.61-0.68-2-1.53c-0.33-0.74-0.38-1.83-0.08-2.96c0.31-1.15,0.92-2.08,1.59-2.55c1.23-0.87,2.89-0.52,3.72,0.66
					c0.09,0.12,0.17,0.25,0.24,0.4c0,0.01,0.01,0.01,0.01,0.02l0,0.01c0.34,0.74,0.4,1.84,0.09,2.98c-0.12,0.43-0.28,0.82-0.46,1.18
					l0.89-0.51h0C92.81,44.3,92.81,35.35,86.61,31.76z M70.62,53.79c0,0.52-0.28,0.99-0.72,1.25c0,0-4.89,2.82-6.04,3.49
					c-0.84,0.48-1.37-0.12-1.37-0.66v-0.3c0-0.52,0.28-0.99,0.72-1.25c0,0,5.12-2.96,6.07-3.51c0.72-0.41,1.34,0.09,1.34,0.71V53.79
					z"/>
				<g>
					<path class="st9" d="M27.05,36.2l27.14-15.67c4.01-2.32,8.95-2.32,12.96,0l19.46,11.24c2.88,1.66,2.88,5.82,0,7.48L59.47,54.92
						c-4.01,2.32-8.95,2.32-12.96,0L27.05,43.68C24.17,42.02,24.17,37.86,27.05,36.2z"/>
					<g>
						<path class="st9" d="M86.61,31.76L86.61,31.76c6.21,3.58,6.21,12.54,0,16.12l0,0l0,0L59.47,63.56
							c-4.01,2.32-8.95,2.32-12.96,0L27.05,52.32l0,0c-6.21-3.58-6.21-12.54,0-16.12l0,0"/>
					</g>
					<ellipse class="st8" cx="62.23" cy="87.87" rx="6.79" ry="3.92"/>
					<path class="st9" d="M68.89,21.54c3.75-1,16.19,6.84,22.06,10.23c14.3,8.26,8.85,27.55,7.09,34.12
						c-1.74,6.48,0.04,10.45-3.52,12.51c-3.56,2.06-6.6,2.03-8.97,6.14c0,0-5.71,8.53-12.53,12.46s-16.29,8.76-25.96,3.18
						c-6.55-3.78-10.24-5.91-18.25-10.53c-9.42-5.44-9.64-20.6-4.52-39.71"/>
					<path class="st9" d="M49.08,64.69c-5.49,3.17-9.15,14.47-5.92,26.52l5.93-3.43"/>
					<path class="st9" d="M91.38,73.49c1.01,3.78-2,4.54-5.82,2.33c-2.89-1.67-8.92-5.15-13.91-8.03c-1.45-0.84-1.91-2.58,1.41-3.47
						"/>
					<path class="st9" d="M74.44,59.14c-4.93,2.84-8.12,3.79-9.47,8.81c-1.5,5.61-3.13,9.71-10.52,13.98
						c-3.92,2.26-5.42,4-5.42,6.41c0,4.41,6.2,7.99,13.84,7.99c4.01,0,7.62-0.98,10.14-2.56l0,0c6.34-3.66,9.08-8.73,15.24-12.29"/>
					<path class="st9" d="M72.09,68.05c1.12-4.17,2.1-10.81,5.49-14.95"/>
					<path class="st9" d="M89.41,77.05c5.6-9.71,8.26-20.86-0.82-26.11c-1.42-0.82-3.07-1.13-4.27-1.18"/>
					<path class="st9" d="M90.81,36.94c12.89,7.44,7.23,28.94,7.23,28.94"/>
					<path class="st9" d="M43.16,91.21c1.42,5.29,6.57,11.5,14,11.5"/>
				</g>
				<g>
					<path class="st16" d="M63.85,58.53c1.15-0.67,6.04-3.49,6.04-3.49c0.45-0.26,0.72-0.74,0.72-1.25v-0.26
						c0-0.63-0.62-1.13-1.34-0.71c-0.95,0.55-6.07,3.51-6.07,3.51c-0.45,0.26-0.72,0.74-0.72,1.25v0.3
						C62.48,58.41,63.02,59.01,63.85,58.53z"/>
					<path class="st16" d="M60.24,38.61h12.47c0.37,0,0.66-0.3,0.66-0.66l0,0c0-0.37-0.3-0.66-0.66-0.66H60.24
						c-0.37,0-0.66,0.3-0.66,0.66l0,0C59.58,38.31,59.87,38.61,60.24,38.61z"/>
					<path class="st16" d="M56.66,35.43l-0.84-3.12c-0.09-0.35-0.46-0.56-0.81-0.47h0c-0.35,0.09-0.56,0.46-0.47,0.81l0.84,3.12
						c0.09,0.35,0.46,0.56,0.81,0.47h0C56.54,36.15,56.75,35.78,56.66,35.43z"/>
					<line class="st20" x1="55.56" y1="38.57" x2="45.57" y2="44.34"/>
					<line class="st20" x1="56.38" y1="36.94" x2="56.19" y2="36.24"/>
					<line class="st20" x1="59.58" y1="37.95" x2="58.02" y2="37.95"/>
					<g>
						<path class="st16" d="M84.6,49.76L84.6,49.76c-1.36,0.96-3.29,0.42-3.99-1.1c-0.33-0.74-0.38-1.83-0.08-2.96
							c0.31-1.16,0.93-2.1,1.61-2.56l-0.02,0.02c1.36-0.96,3.27-0.44,3.97,1.08"/>
						
							<ellipse transform="matrix(0.2588 -0.9659 0.9659 0.2588 17.3334 115.9807)" class="st18" cx="84.24" cy="46.7" rx="3.49" ry="2.01"/>
					</g>
					<g>
						<path class="st7" d="M42.83,98.11c-1.76-3.2-3-6.68-3.53-10.28c-0.53-3.59-0.36-7.29,0.62-10.77
							c-0.86,3.51-0.9,7.18-0.25,10.71c0.64,3.53,1.98,6.91,3.81,9.97L42.83,98.11z"/>
					</g>
					<g>
						<path class="st7" d="M37.79,95.2c-1.76-3.2-3-6.68-3.53-10.28c-0.53-3.59-0.36-7.29,0.62-10.77
							c-0.86,3.51-0.9,7.18-0.25,10.71c0.64,3.53,1.98,6.91,3.81,9.97L37.79,95.2z"/>
					</g>
					<g>
						<path class="st7" d="M32.75,92.29c-1.76-3.2-3-6.68-3.53-10.28c-0.53-3.59-0.36-7.29,0.62-10.77
							c-0.86,3.51-0.9,7.18-0.25,10.71c0.64,3.53,1.98,6.91,3.81,9.97L32.75,92.29z"/>
					</g>
					<g>
						<path class="st7" d="M27.72,89.38c-1.76-3.2-3-6.68-3.53-10.28c-0.53-3.59-0.36-7.29,0.62-10.77
							c-0.86,3.51-0.9,7.18-0.25,10.71c0.64,3.53,1.98,6.91,3.81,9.97L27.72,89.38z"/>
					</g>
					<g>
						<g>
							<path class="st7" d="M26.53,75.48c0,5.31,1.63,10.52,4.35,14.98l-0.65,0.38C27.66,86.14,26.27,80.78,26.53,75.48z"/>
						</g>
						<g>
							<path class="st7" d="M31.57,78.39c0,5.31,1.63,10.52,4.35,14.98l-0.65,0.38C32.7,89.05,31.31,83.69,31.57,78.39z"/>
						</g>
						<g>
							<path class="st7" d="M36.61,81.29c0,5.31,1.63,10.52,4.35,14.98l-0.65,0.38C37.74,91.96,36.35,86.6,36.61,81.29z"/>
						</g>
					</g>
					<g>
						<path class="st7" d="M86.36,76.22c1.68-2.69,3.09-5.58,4.16-8.59c-0.84,3.09-2.02,6.1-3.51,8.96L86.36,76.22z"/>
					</g>
					<g>
						<path class="st7" d="M82.58,74.03c1.68-2.69,3.09-5.58,4.16-8.59c-0.84,3.09-2.02,6.1-3.51,8.96L82.58,74.03z"/>
					</g>
					<g>
						<path class="st7" d="M78.8,71.85c1.68-2.69,3.09-5.58,4.16-8.59c-0.84,3.09-2.02,6.1-3.51,8.96L78.8,71.85z"/>
					</g>
					<g>
						<path class="st7" d="M83.62,67.78c-0.64,1.88-1.39,3.74-2.28,5.54l-0.65-0.38C81.78,71.3,82.75,69.57,83.62,67.78z"/>
					</g>
					<g>
						<path class="st7" d="M75.02,69.67c1.68-2.69,3.09-5.58,4.16-8.59c-0.84,3.09-2.02,6.1-3.51,8.96L75.02,69.67z"/>
					</g>
					<g>
						<path class="st7" d="M79.84,65.6c-0.64,1.88-1.39,3.74-2.28,5.54l-0.65-0.38C78,69.12,78.97,67.39,79.84,65.6z"/>
					</g>
					<g>
						<path class="st7" d="M76.06,63.41c-0.64,1.88-1.39,3.74-2.28,5.54l-0.65-0.38C74.22,66.94,75.19,65.2,76.06,63.41z"/>
					</g>
					<g>
						<path class="st7" d="M87.4,69.96c-0.64,1.88-1.39,3.74-2.28,5.54l-0.65-0.38C85.56,73.48,86.53,71.75,87.4,69.96z"/>
					</g>
					<g>
						<polygon class="st7" points="27.82,52.98 28.2,49.15 28.57,52.98 						"/>
					</g>
					<g>
						<polygon class="st7" points="29.4,53.89 29.78,50.06 30.15,53.89 						"/>
					</g>
					<g>
						<polygon class="st7" points="30.98,54.81 31.35,50.97 31.73,54.81 						"/>
					</g>
					<g>
						<polygon class="st7" points="32.56,55.72 32.93,51.88 33.31,55.72 						"/>
					</g>
					<g>
						<polygon class="st7" points="34.13,56.63 34.51,52.79 34.88,56.63 						"/>
					</g>
					<g>
						<polygon class="st7" points="35.71,57.54 36.08,53.7 36.46,57.54 						"/>
					</g>
					<g>
						<polygon class="st7" points="37.29,58.45 37.66,54.61 38.04,58.45 						"/>
					</g>
					<g>
						<polygon class="st7" points="38.86,59.36 39.24,55.52 39.61,59.36 						"/>
					</g>
					<g>
						<polygon class="st7" points="40.44,60.27 40.82,56.43 41.19,60.27 						"/>
					</g>
					<g>
						<polygon class="st7" points="42.02,61.18 42.39,57.34 42.77,61.18 						"/>
					</g>
					<g>
						<polygon class="st7" points="43.6,62.09 43.97,58.25 44.35,62.09 						"/>
					</g>
					<g>
						<polygon class="st7" points="45.17,63 45.55,59.16 45.92,63 						"/>
					</g>
					<g>
						<polygon class="st7" points="46.75,63.91 47.12,60.07 47.5,63.91 						"/>
					</g>
					<g>
						<polygon class="st7" points="48.33,64.62 48.7,60.79 49.08,64.62 						"/>
					</g>
					<g>
						<polygon class="st7" points="49.9,65.02 50.28,61.18 50.65,65.02 						"/>
					</g>
					<g>
						<polygon class="st7" points="51.48,65.26 51.86,61.42 52.23,65.26 						"/>
					</g>
					<g>
						<polygon class="st7" points="53.06,65.29 53.43,61.45 53.81,65.29 						"/>
					</g>
					<g>
						<polygon class="st7" points="54.63,65.13 55.01,61.29 55.38,65.13 						"/>
					</g>
					<g>
						<polygon class="st7" points="56.21,64.69 56.59,60.85 56.96,64.69 						"/>
					</g>
					<g>
						<polygon class="st7" points="57.79,64.22 58.16,60.38 58.54,64.22 						"/>
					</g>
				</g>
				<g>
					<path class="st7" d="M56.65,37.39c0.53,0,0.96,0.25,0.96,0.55s-0.43,0.55-0.96,0.55s-0.96-0.25-0.96-0.55
						S56.12,37.39,56.65,37.39 M56.65,36.64c-0.97,0-1.71,0.56-1.71,1.3s0.73,1.3,1.71,1.3s1.71-0.56,1.71-1.3
						S57.62,36.64,56.65,36.64L56.65,36.64z"/>
				</g>
			</g>
			<ellipse class="st9" cx="56.65" cy="37.95" rx="18.74" ry="10.82"/>
		</g>
	</g>
</g>
<g id="Layer_2">
</g>
</svg>
