<svg xmlns="http://www.w3.org/2000/svg" version="1.1" xmlns:xlink="http://www.w3.org/1999/xlink" xmlns:svgjs="http://svgjs.com/svgjs" viewBox="0 0 24 24" height="24" width="24"><title>Exported from Streamline App (https://app.streamlineicons.com)</title><g transform="matrix(1,0,0,1,0,0)"><path d="M12,0C5.373,0,0,5.373,0,12s5.373,12,12,12s12-5.373,12-12C23.993,5.376,18.624,0.007,12,0z M12.25,5 c0.828,0,1.5,0.672,1.5,1.5S13.078,8,12.25,8s-1.5-0.672-1.5-1.5S11.422,5,12.25,5z M14.5,18.5h-4c-0.552,0-1-0.448-1-1 s0.448-1,1-1h0.75c0.138,0,0.25-0.112,0.25-0.25v-4.5c0-0.138-0.112-0.25-0.25-0.25H10.5c-0.552,0-1-0.448-1-1s0.448-1,1-1h1 c1.105,0,2,0.895,2,2v4.75c0,0.138,0.112,0.25,0.25,0.25h0.75c0.552,0,1,0.448,1,1S15.052,18.5,14.5,18.5z" stroke="none" fill="#000000" stroke-width="0" stroke-linecap="round" stroke-linejoin="round"></path></g></svg>