<svg xmlns="http://www.w3.org/2000/svg" version="1.1" xmlns:xlink="http://www.w3.org/1999/xlink" xmlns:svgjs="http://svgjs.com/svgjs" viewBox="0 0 24 24" height="24" width="24"><title>Exported from Streamline App (https://app.streamlineicons.com)</title><g transform="matrix(1,0,0,1,0,0)"><path d="M 3.75,18.75h10.5c0.828,0,1.5,0.672,1.5,1.5v1.5c0,0.828-0.672,1.5-1.5,1.5H3.75c-0.828,0-1.5-0.672-1.5-1.5 v-1.5C2.25,19.422,2.922,18.75,3.75,18.75z " stroke="#000000" fill="none" stroke-width="1.5" stroke-linecap="round" stroke-linejoin="round"></path><path d="M 3.75,11.25h10.5c0.828,0,1.5,0.672,1.5,1.5v1.5c0,0.828-0.672,1.5-1.5,1.5H3.75 c-0.828,0-1.5-0.672-1.5-1.5v-1.5C2.25,11.922,2.922,11.25,3.75,11.25z " stroke="#000000" fill="none" stroke-width="1.5" stroke-linecap="round" stroke-linejoin="round"></path><path d="M 3.75,3.75h10.5c0.828,0,1.5,0.672,1.5,1.5v1.5 c0,0.828-0.672,1.5-1.5,1.5H3.75c-0.828,0-1.5-0.672-1.5-1.5v-1.5C2.25,4.422,2.922,3.75,3.75,3.75z " stroke="#000000" fill="none" stroke-width="1.5" stroke-linecap="round" stroke-linejoin="round"></path><path d="M 15.75,21.75h4.5 c0.828,0,1.5-0.672,1.5-1.5V0.75 " stroke="#000000" fill="none" stroke-width="1.5" stroke-linecap="round" stroke-linejoin="round"></path><path d="M 15.75,14.25h6 " stroke="#000000" fill="none" stroke-width="1.5" stroke-linecap="round" stroke-linejoin="round"></path><path d="M 15.75,6.75h6" stroke="#000000" fill="none" stroke-width="1.5" stroke-linecap="round" stroke-linejoin="round"></path></g></svg>