<svg xmlns="http://www.w3.org/2000/svg" version="1.1" xmlns:xlink="http://www.w3.org/1999/xlink" xmlns:svgjs="http://svgjs.com/svgjs" viewBox="0 0 24 24" height="24" width="24"><title>Exported from Streamline App (https://app.streamlineicons.com)</title><g transform="matrix(1,0,0,1,0,0)"><path d="M 13.5,6.748c2.071,0,3.75,1.679,3.75,3.75s-1.679,3.75-3.75,3.75s-3.75-1.679-3.75-3.75 S11.429,6.748,13.5,6.748z " stroke="#000000" fill="none" stroke-width="1.5" stroke-linecap="round" stroke-linejoin="round"></path><path d="M 21,0.748c1.243,0,2.25,1.007,2.25,2.25s-1.007,2.25-2.25,2.25s-2.25-1.007-2.25-2.25 S19.757,0.748,21,0.748z " stroke="#000000" fill="none" stroke-width="1.5" stroke-linecap="round" stroke-linejoin="round"></path><path d="M 21,13.498c1.243,0,2.25,1.007,2.25,2.25s-1.007,2.25-2.25,2.25s-2.25-1.007-2.25-2.25 S19.757,13.498,21,13.498z " stroke="#000000" fill="none" stroke-width="1.5" stroke-linecap="round" stroke-linejoin="round"></path><path d="M 13.5,18.748c1.243,0,2.25,1.007,2.25,2.25s-1.007,2.25-2.25,2.25s-2.25-1.007-2.25-2.25 S12.257,18.748,13.5,18.748z " stroke="#000000" fill="none" stroke-width="1.5" stroke-linecap="round" stroke-linejoin="round"></path><path d="M 3,18.748c1.243,0,2.25,1.007,2.25,2.25s-1.007,2.25-2.25,2.25s-2.25-1.007-2.25-2.25 S1.757,18.748,3,18.748z " stroke="#000000" fill="none" stroke-width="1.5" stroke-linecap="round" stroke-linejoin="round"></path><path d="M 3.75,2.998C4.993,2.998,6,4.005,6,5.248s-1.007,2.25-2.25,2.25S1.5,6.491,1.5,5.248 S2.507,2.998,3.75,2.998z " stroke="#000000" fill="none" stroke-width="1.5" stroke-linecap="round" stroke-linejoin="round"></path><path d="M 16.151,7.848l3.26-3.26 " stroke="#000000" fill="none" stroke-width="1.5" stroke-linecap="round" stroke-linejoin="round"></path><path d="M 16.794,12.292l2.285,2.285 " stroke="#000000" fill="none" stroke-width="1.5" stroke-linecap="round" stroke-linejoin="round"></path><path d="M 13.5,14.248v4.5 " stroke="#000000" fill="none" stroke-width="1.5" stroke-linecap="round" stroke-linejoin="round"></path><path d="M 10.851,13.147L4.59,19.408 " stroke="#000000" fill="none" stroke-width="1.5" stroke-linecap="round" stroke-linejoin="round"></path><path d="M 10.001,9.149L5.61,6.514" stroke="#000000" fill="none" stroke-width="1.5" stroke-linecap="round" stroke-linejoin="round"></path></g></svg>