<svg xmlns="http://www.w3.org/2000/svg" version="1.1" xmlns:xlink="http://www.w3.org/1999/xlink" xmlns:svgjs="http://svgjs.com/svgjs" viewBox="0 0 24 24" height="24" width="24"><title>Exported from Streamline App (https://app.streamlineicons.com)</title><g transform="matrix(1,0,0,1,0,0)"><path d="M 22.91,6.953L12.7,1.672c-0.444-0.229-0.972-0.229-1.416,0L1.076,6.953C0.774,7.108,0.655,7.479,0.81,7.781 c0.059,0.114,0.152,0.207,0.266,0.266l10.209,5.281c0.444,0.229,0.972,0.229,1.416,0L22.91,8.047 c0.302-0.156,0.42-0.528,0.264-0.83C23.115,7.104,23.023,7.012,22.91,6.953z " stroke="#000000" fill="none" stroke-width="1.5" stroke-linecap="round" stroke-linejoin="round"></path><path d="M 0.758,12.75l10.527,5.078 c0.444,0.229,0.972,0.229,1.416,0l10.557-5.078 " stroke="#000000" fill="none" stroke-width="1.5" stroke-linecap="round" stroke-linejoin="round"></path><path d="M 0.758,17.25l10.527,5.078c0.444,0.229,0.972,0.229,1.416,0l10.557-5.078" stroke="#000000" fill="none" stroke-width="1.5" stroke-linecap="round" stroke-linejoin="round"></path></g></svg>