<svg xmlns="http://www.w3.org/2000/svg" version="1.1" xmlns:xlink="http://www.w3.org/1999/xlink" xmlns:svgjs="http://svgjs.com/svgjs" viewBox="0 0 24 24" height="24" width="24"><title>Exported from Streamline App (https://app.streamlineicons.com)</title><g transform="matrix(1,0,0,1,0,0)"><path d="M 1.817,4.524l9.1-3.568c0.694-0.275,1.468-0.275,2.162,0l9.1,3.568c0.663,0.283,1.087,0.941,1.071,1.662 v11.628c0.017,0.72-0.405,1.378-1.067,1.662l-9.1,3.569c-0.695,0.273-1.467,0.273-2.162,0l-9.1-3.569 c-0.663-0.283-1.087-0.941-1.071-1.662V6.186C0.733,5.466,1.155,4.808,1.817,4.524z " stroke="#000000" fill="none" stroke-width="1.5" stroke-linecap="round" stroke-linejoin="round"></path><path d="M 12,9.353L1.104,5.081 " stroke="#000000" fill="none" stroke-width="1.5" stroke-linecap="round" stroke-linejoin="round"></path><path d="M 12,9.353l10.896-4.272 " stroke="#000000" fill="none" stroke-width="1.5" stroke-linecap="round" stroke-linejoin="round"></path><path d="M 12,23.25V9.353" stroke="#000000" fill="none" stroke-width="1.5" stroke-linecap="round" stroke-linejoin="round"></path></g></svg>