<?xml version="1.0" encoding="UTF-8"?>
<svg width="979px" height="293px" viewBox="0 0 979 293" version="1.1" xmlns="http://www.w3.org/2000/svg" xmlns:xlink="http://www.w3.org/1999/xlink">
    <!-- Generator: Sketch 55.2 (78181) - https://sketchapp.com -->
    <title>apollo logo</title>
    <desc>Created with Sketch.</desc>
    <g id="PPP-V1---Navigation" stroke="none" stroke-width="1" fill="none" fill-rule="evenodd">
        <g id="apollo-logo" fill="#000000" fill-rule="nonzero">
            <polygon id="Path" points="159.4 83.1 130 83.1 87.5 195.4 114.1 195.4 121 176.4 161.1 176.4 153.8 155.4 127.4 155.4 144.6 107.1 175.2 195.5 201.8 195.5"></polygon>
            <polygon id="Path" points="606.3 195.3 606.3 83.1 630 83.1 630 174.3 676.6 174.3 676.6 195.3"></polygon>
            <polygon id="Path" points="742.6 195.3 742.6 83.1 766.2 83.1 766.2 174.3 812.8 174.3 812.8 195.3"></polygon>
            <path d="M475.4,103.2 C494.9,103.2 510.9,119.4 510.9,139.3 C510.9,159.2 495,175.4 475.4,175.4 C455.9,175.4 440,159.2 440,139.3 C440,119.4 455.9,103.2 475.4,103.2 L475.4,103.2 Z M475.4,81.2 C443.9,81.2 418.4,107.2 418.4,139.3 C418.4,171.4 443.9,197.4 475.4,197.4 C506.9,197.4 532.4,171.4 532.4,139.3 C532.4,107.2 506.9,81.2 475.4,81.2 L475.4,81.2 Z" id="Shape"></path>
            <path d="M921.5,103.2 C941.1,103.2 957,119.4 957,139.3 C957,159.2 941.1,175.4 921.5,175.4 C902,175.4 886.099531,159.2 886.099531,139.3 C886,119.4 901.9,103.2 921.5,103.2 L921.5,103.2 Z M921.5,81.2 C890,81.2 864.5,107.2 864.5,139.3 C864.5,171.4 890,197.4 921.5,197.4 C953,197.4 978.5,171.4 978.5,139.3 C978.5,107.2 953,81.2 921.5,81.2 L921.5,81.2 Z" id="Shape"></path>
            <path d="M322,83.1 L294.1,83.1 L290.1,83.1 L270.6,83.1 L270.6,195.4 L294.1,195.4 L294.1,156.8 L322,156.8 C341.6,156.8 357.5,139.9 357.5,120 C357.5,99.9 341.6,83.1 322,83.1 Z M322,134.7 L294.1,134.7 L294.1,105 L322,105 C329.7,105 335.9,112 335.9,119.8 C335.9,127.7 329.7,134.7 322,134.7 Z" id="Shape"></path>
            <path d="M250.4,229.4 C248.4,229.4 246.6,230.4 245.5,232 C245.5,232 240.2,238.2 237.3,241.1 C225.2,253.4 211.2,263 195.5,269.8 C179.3,276.8 162.1,280.3 144.3,280.3 C126.5,280.3 109.3,276.8 93.1,269.8 C77.5,263 63.4,253.3 51.3,241 C39.2,228.7 29.7,214.4 23.1,198.4 C16.2,181.9 12.8,164.4 12.8,146.3 C12.8,128.2 16.3,110.7 23.1,94.2 C29.7,78.3 39.2,63.9 51.3,51.6 C63.4,39.3 77.4,29.6 93.1,22.9 C109.3,15.9 126.5,12.4 144.3,12.4 C162.1,12.4 179.3,15.9 195.5,22.9 C206.9,27.8 217.5,34.3 227,42.2 C226.5,43.7 226.2,45.4 226.2,47.1 C226.2,55.4 232.8,62.2 241,62.2 C249.2,62.2 255.8,55.4 255.8,47.1 C255.8,38.8 249.2,32 241,32 C239,32 237,32.4 235.3,33.2 C210.5,12.5 178.8,0.1 144.3,0.1 C65,0.2 0.7,65.6 0.7,146.4 C0.7,227.2 65,292.6 144.3,292.6 C188.7,292.6 228.3,272.1 254.7,239.9 C255.8,238.8 256.5,237.2 256.5,235.5 C256.4,232.1 253.7,229.4 250.4,229.4 Z" id="Path"></path>
        </g>
    </g>
</svg>