<svg xmlns="http://www.w3.org/2000/svg" version="1.1" xmlns:xlink="http://www.w3.org/1999/xlink" xmlns:svgjs="http://svgjs.com/svgjs" viewBox="0 0 24 24" height="24" width="24"><title>Exported from Streamline App (https://app.streamlineicons.com)</title><g transform="matrix(1,0,0,1,0,0)"><path d="M 4.779,13.917c1.515-1.412,3.888-1.328,5.3,0.187c1.342,1.44,1.342,3.673,0,5.113L4.779,13.917z " stroke="#000000" fill="none" stroke-width="1.5" stroke-linecap="round" stroke-linejoin="round"></path><path d="M 19.7,8.542 c1.172-1.171,1.173-3.07,0.003-4.243c-0.12-0.12-0.249-0.229-0.388-0.327c-1.256-0.834-2.929-0.648-3.971,0.441l-5.792,5.792 c-0.586,0.586-0.586,1.535,0,2.121l2.122,2.122c0.586,0.586,1.535,0.586,2.121,0L19.7,8.542z " stroke="#000000" fill="none" stroke-width="1.5" stroke-linecap="round" stroke-linejoin="round"></path><path d="M 21.292,2.708l-1.591,1.591 " stroke="#000000" fill="none" stroke-width="1.5" stroke-linecap="round" stroke-linejoin="round"></path><path d="M 5.56,19.5c-0.521-0.141-0.925-0.551-1.06-1.073 " stroke="#000000" fill="none" stroke-width="1.5" stroke-linecap="round" stroke-linejoin="round"></path><path d="M 8.326,22.737c-2.643,1.257-5.805,0.133-7.062-2.51 c-0.687-1.446-0.685-3.124,0.007-4.568 " stroke="#000000" fill="none" stroke-width="1.5" stroke-linecap="round" stroke-linejoin="round"></path><path d="M 14.856,13.387l2.121,2.121 " stroke="#000000" fill="none" stroke-width="1.5" stroke-linecap="round" stroke-linejoin="round"></path><path d="M 16.447,16.039l1.061-1.061c0.586-0.586,1.536-0.586,2.121,0 l3.182,3.182c0.586,0.586,0.586,1.536,0,2.121l-1.061,1.061c-0.586,0.586-1.536,0.586-2.121,0l-3.182-3.182 C15.861,17.574,15.861,16.625,16.447,16.039z " stroke="#000000" fill="none" stroke-width="1.5" stroke-linecap="round" stroke-linejoin="round"></path><path d="M 10.613,9.144L8.492,7.023 " stroke="#000000" fill="none" stroke-width="1.5" stroke-linecap="round" stroke-linejoin="round"></path><path d="M 2.658,2.25l1.061-1.061c0.586-0.586,1.536-0.586,2.121,0 l3.182,3.182c0.586,0.586,0.586,1.536,0,2.121L7.962,7.553c-0.586,0.586-1.536,0.586-2.121,0L2.658,4.371 C2.073,3.785,2.073,2.836,2.658,2.25z" stroke="#000000" fill="none" stroke-width="1.5" stroke-linecap="round" stroke-linejoin="round"></path></g></svg>