<svg xmlns="http://www.w3.org/2000/svg" version="1.1" xmlns:xlink="http://www.w3.org/1999/xlink" xmlns:svgjs="http://svgjs.com/svgjs" viewBox="0 0 24 24" height="24" width="24"><title>Exported from Streamline App (https://app.streamlineicons.com)</title><g transform="matrix(1,0,0,1,0,0)"><path d="M 11.266,15.23c-2.071,0-3.75-1.679-3.75-3.75s1.679-3.75,3.75-3.75s3.75,1.679,3.75,3.75L11.266,15.23z " stroke="#000000" fill="none" stroke-width="1.5" stroke-linecap="round" stroke-linejoin="round"></path><path d="M 14.978,3.319L17.1,1.197c0.586-0.586,1.536-0.586,2.121,0l2.121,2.121c0.586,0.586,0.586,1.536,0,2.121l-2.121,2.121 c-0.586,0.586-1.536,0.586-2.121,0L14.978,5.44C14.393,4.854,14.393,3.904,14.978,3.319z " stroke="#000000" fill="none" stroke-width="1.5" stroke-linecap="round" stroke-linejoin="round"></path><path d="M 1.189,17.314l2.121-2.121 c0.586-0.586,1.536-0.586,2.121,0l2.121,2.121c0.586,0.586,0.586,1.536,0,2.121l-2.121,2.121c-0.586,0.586-1.536,0.586-2.121,0 l-2.121-2.121C0.603,18.849,0.603,17.9,1.189,17.314z " stroke="#000000" fill="none" stroke-width="1.5" stroke-linecap="round" stroke-linejoin="round"></path><path d="M 7.023,7.237l1.591,1.591 " stroke="#000000" fill="none" stroke-width="1.5" stroke-linecap="round" stroke-linejoin="round"></path><path d="M 16.969,13.763c-0.529,1.489-1.7,2.662-3.188,3.194 " stroke="#000000" fill="none" stroke-width="1.5" stroke-linecap="round" stroke-linejoin="round"></path><path d="M 20.15,13.413c-0.595,3.44-3.289,6.133-6.729,6.728 " stroke="#000000" fill="none" stroke-width="1.5" stroke-linecap="round" stroke-linejoin="round"></path><path d="M 23.25,12.664c-0.336,5.765-4.981,10.339-10.75,10.586" stroke="#000000" fill="none" stroke-width="1.5" stroke-linecap="round" stroke-linejoin="round"></path></g></svg>