<svg xmlns="http://www.w3.org/2000/svg" version="1.1" xmlns:xlink="http://www.w3.org/1999/xlink" xmlns:svgjs="http://svgjs.com/svgjs" viewBox="0 0 24 24" height="24" width="24"><title>Exported from Streamline App (https://app.streamlineicons.com)</title><g transform="matrix(1,0,0,1,0,0)"><path d="M 12,16.5V21 " stroke="#000000" fill="none" stroke-width="1.5" stroke-linecap="round" stroke-linejoin="round"></path><path d="M 5.25,23.25C5.25,22.007,4.243,21,3,21s-2.25,1.007-2.25,2.25H5.25z " stroke="#000000" fill="none" stroke-width="1.5" stroke-linecap="round" stroke-linejoin="round"></path><path d="M 14.25,23.25 c0-1.243-1.007-2.25-2.25-2.25s-2.25,1.007-2.25,2.25H14.25z " stroke="#000000" fill="none" stroke-width="1.5" stroke-linecap="round" stroke-linejoin="round"></path><path d="M 23.25,23.25c0-1.243-1.007-2.25-2.25-2.25s-2.25,1.007-2.25,2.25 H23.25z " stroke="#000000" fill="none" stroke-width="1.5" stroke-linecap="round" stroke-linejoin="round"></path><path d="M 18,18l-1.061-1.061c-0.281-0.281-0.662-0.439-1.06-0.439H8.121c-0.398,0-0.779,0.158-1.06,0.439L6,18 " stroke="#000000" fill="none" stroke-width="1.5" stroke-linecap="round" stroke-linejoin="round"></path><path d="M 21,21v-3.879 c0-0.398-0.158-0.779-0.439-1.06l-2.122-2.122c-0.281-0.281-0.662-0.439-1.06-0.439H6.618c-0.396,0-0.776,0.157-1.057,0.436 l-2.118,2.1C3.16,16.318,3,16.7,3,17.1V21 " stroke="#000000" fill="none" stroke-width="1.5" stroke-linecap="round" stroke-linejoin="round"></path><path d="M 7.5,10.5h9v3h-9V10.5z " stroke="#000000" fill="none" stroke-width="1.5" stroke-linecap="round" stroke-linejoin="round"></path><path d="M 7.5,10.5C6.554,9.621,6.012,8.391,6,7.1 c0-2.968,2.686-6.35,6-6.35s6,3.382,6,6.35c-0.012,1.291-0.554,2.521-1.5,3.4 " stroke="#000000" fill="none" stroke-width="1.5" stroke-linecap="round" stroke-linejoin="round"></path><path d="M 13.5,10.5h-3V7.483C10.5,6.664,11.164,6,11.983,6 h0.034C12.836,6,13.5,6.664,13.5,7.483V10.5z " stroke="#000000" fill="none" stroke-width="1.5" stroke-linecap="round" stroke-linejoin="round"></path><path d="M 10.5,10.5v3 " stroke="#000000" fill="none" stroke-width="1.5" stroke-linecap="round" stroke-linejoin="round"></path><path d="M 13.5,10.5v3" stroke="#000000" fill="none" stroke-width="1.5" stroke-linecap="round" stroke-linejoin="round"></path></g></svg>