<svg xmlns="http://www.w3.org/2000/svg" width="27" height="26" viewBox="0 0 27 26">
  <g fill="none" fill-rule="evenodd">
    <rect width="6" height="6" x="11" y="10" fill="#F59140" stroke="#000" stroke-linecap="round" stroke-linejoin="round" rx="3"/>
    <g transform="translate(5 4)">
      <path fill="#000" fill-rule="nonzero" d="M16 8.75a7.25 7.25 0 1 0-4.277 6.615c1.434-.855 2.058.583 1.327 1.007A8.75 8.75 0 1 1 17.5 8.75c0 1.164-1.5.878-1.5 0z"/>
      <rect width="4" height="4" x="13.25" y="10.75" fill="#F25CC1" stroke="#000" stroke-linecap="round" stroke-linejoin="round" rx="2"/>
    </g>
    <rect width="4" height="4" x=".5" y="6" fill="#41D9D3" stroke="#000" stroke-linecap="round" stroke-linejoin="round" rx="2"/>
    <path fill="#000" fill-rule="nonzero" d="M2.75 12.75C2.75 18.963 7.787 24 14 24s11.25-5.037 11.25-11.25S20.213 1.5 14 1.5c-3.03 0-5.781 1.198-7.804 3.147-1.196.996-1.933-.05-1.41-.71A12.713 12.713 0 0 1 14 0c7.042 0 12.75 5.708 12.75 12.75S21.042 25.5 14 25.5 1.25 19.792 1.25 12.75c0-1.204 1.5-1.204 1.5 0z"/>
  </g>
</svg>
