<svg xmlns="http://www.w3.org/2000/svg" version="1.1" xmlns:xlink="http://www.w3.org/1999/xlink" xmlns:svgjs="http://svgjs.com/svgjs" viewBox="0 0 24 24" height="24" width="24"><title>Exported from Streamline App (https://app.streamlineicons.com)</title><g transform="matrix(1,0,0,1,0,0)"><path d="M 16.5,8.247v-1.5c0-0.828-0.672-1.5-1.5-1.5s-1.5,0.672-1.5,1.5V6c0-0.828-0.672-1.5-1.5-1.5 S10.5,5.172,10.5,6v0.75c0-0.828-0.672-1.5-1.5-1.5s-1.5,0.672-1.5,1.5V9c-1.657,0-3,1.343-3,3c0,1.463,0.457,2.89,1.308,4.081 l1.1,1.535c0.844,1.181,2.206,1.883,3.658,1.884h3.813c2.828,0,5.121-2.293,5.121-5.121c0-0.001,0-0.002,0-0.003V8.247 c0-0.828-0.672-1.5-1.5-1.5S16.5,7.419,16.5,8.247z " stroke="#000000" fill="none" stroke-width="1.5" stroke-linecap="round" stroke-linejoin="round"></path><path d="M 7.5,8.997v2.25 " stroke="#000000" fill="none" stroke-width="1.5" stroke-linecap="round" stroke-linejoin="round"></path><path d="M 10.5,8.247v-1.5 " stroke="#000000" fill="none" stroke-width="1.5" stroke-linecap="round" stroke-linejoin="round"></path><path d="M 13.5,8.247v-1.5 " stroke="#000000" fill="none" stroke-width="1.5" stroke-linecap="round" stroke-linejoin="round"></path><path d="M 16.5,8.247L16.5,8.247" stroke="#000000" fill="none" stroke-width="1.5" stroke-linecap="round" stroke-linejoin="round"></path></g></svg>