<svg width="20" height="26" viewBox="0 0 20 26" xmlns="http://www.w3.org/2000/svg"><g fill="none" fill-rule="evenodd"><path d="M13 4.273h3.273c1.205 0 2.182.977 2.182 2.182v16.363A2.182 2.182 0 0116.273 25H3.182A2.182 2.182 0 011 22.818V6.455c0-1.205.977-2.182 2.182-2.182h3.273" stroke="#000000" stroke-width="1.5"/><path d="M9.727 1a3.273 3.273 0 013.267 3.08l.006.193h1.09v3.272H5.365V4.273h1.09A3.273 3.273 0 019.728 1zm0 2.182a1.09 1.09 0 100 2.182 1.09 1.09 0 000-2.182z" fill="#000000"/><path d="M5.364 7.545V4.273h1.09a3.273 3.273 0 016.54-.193l.006.193h1.09v3.272H5.365z" stroke="#000000" stroke-width="1.5" stroke-linejoin="round"/><path stroke="#000000" stroke-width="1.5" stroke-linecap="round" d="M4.818 11.364h9.818M4.818 15.182h9.818M4.818 19h5.455"/></g></svg>