<svg version="1.1" xmlns="http://www.w3.org/2000/svg" xmlns:xlink="http://www.w3.org/1999/xlink" viewBox="0 0 20 20">
    <path fill="#000000" d="M10,0C4.5,0,0,4.5,0,10s4.5,10,10,10s10-4.5,10-10S15.5,0,10,0z M13.9,13.9c-0.3,0.3-0.8,0.3-1.1,0.1l-0.1-0.1L10,11.2 l-2.7,2.7c-0.3,0.3-0.9,0.3-1.2,0c-0.3-0.3-0.3-0.8-0.1-1.1l0.1-0.1L8.8,10L6.1,7.3c-0.3-0.3-0.3-0.9,0-1.2C6.4,5.8,6.9,5.8,7.2,6 l0.1,0.1L10,8.8l2.7-2.7c0.3-0.3,0.9-0.3,1.2,0c0.3,0.3,0.3,0.8,0.1,1.1l-0.1,0.1L11.2,10l2.7,2.7C14.2,13.1,14.2,13.6,13.9,13.9z" />
    <path class="inner" fill="transparent" d="M13.9,6.1c0.3,0.3,0.3,0.8,0.1,1.1l-0.1,0.1L11.2,10l2.7,2.7c0.3,0.3,0.3,0.9,0,1.2c-0.3,0.3-0.8,0.3-1.1,0.1 l-0.1-0.1L10,11.2l-2.7,2.7c-0.3,0.3-0.9,0.3-1.2,0c-0.3-0.3-0.3-0.8-0.1-1.1l0.1-0.1L8.8,10L6.1,7.3c-0.3-0.3-0.3-0.9,0-1.2 C6.4,5.8,6.9,5.8,7.2,6l0.1,0.1L10,8.8l2.7-2.7C13.1,5.8,13.6,5.8,13.9,6.1z" />
</svg>