<svg version="1.1" xmlns:svgjs="http://svgjs.com/svgjs" xmlns="http://www.w3.org/2000/svg" xmlns:xlink="http://www.w3.org/1999/xlink" x="0px" y="0px" viewBox="0 0 24 24">
	<path fill="#000000" d="M12,0c6.6,0,12,5.4,12,12c0,6.6-5.4,12-12,12S0,18.6,0,12S5.4,0,12,0z M12.2,5c-0.8,0-1.5,0.7-1.5,1.5S11.4,8,12.2,8 s1.5-0.7,1.5-1.5S13.1,5,12.2,5z M14.5,18.5c0.6,0,1-0.4,1-1s-0.4-1-1-1h-0.8c-0.1,0-0.2-0.1-0.2-0.2v-4.8c0-1.1-0.9-2-2-2h-1 c-0.6,0-1,0.4-1,1s0.4,1,1,1h0.8c0.1,0,0.2,0.1,0.2,0.2v4.5c0,0.1-0.1,0.2-0.2,0.2h-0.8c-0.6,0-1,0.4-1,1s0.4,1,1,1H14.5z"/>
    <path class="inner" fill="transparent" d="M12.2,5c-0.8,0-1.5,0.7-1.5,1.5S11.4,8,12.2,8s1.5-0.7,1.5-1.5S13.1,5,12.2,5z M14.5,18.5c0.6,0,1-0.4,1-1s-0.4-1-1-1h-0.8 c-0.1,0-0.2-0.1-0.2-0.2v-4.8c0-1.1-0.9-2-2-2h-1c-0.6,0-1,0.4-1,1s0.4,1,1,1h0.8c0.1,0,0.2,0.1,0.2,0.2v4.5c0,0.1-0.1,0.2-0.2,0.2 h-0.8c-0.6,0-1,0.4-1,1s0.4,1,1,1H14.5z"/>
</svg>