<svg version="1.1" xmlns:svgjs="http://svgjs.com/svgjs" xmlns="http://www.w3.org/2000/svg" xmlns:xlink="http://www.w3.org/1999/xlink" x="0px" y="0px" viewBox="0 0 24 24">
	<path fill="#000000" d="M12,0C5.4,0,0,5.4,0,12s5.4,12,12,12s12-5.4,12-12C24,5.4,18.6,0,12,0z M18.9,8.2l-6.8,9.3c-0.3,0.4-1,0.5-1.4,0.2 c0,0,0,0,0,0l-4.9-3.9c-0.4-0.3-0.5-1-0.2-1.4s1-0.5,1.4-0.2l4.1,3.3L17.3,7c0.3-0.5,0.9-0.6,1.4-0.3C19.2,7,19.3,7.7,18.9,8.2 C19,8.2,18.9,8.2,18.9,8.2z"/>
	<path fill="transparent" class="inner" d="M18.9,8.2l-6.8,9.3c-0.3,0.4-1,0.5-1.4,0.2c0,0,0,0,0,0l-4.9-3.9c-0.4-0.3-0.5-1-0.2-1.4s1-0.5,1.4-0.2l4.1,3.3L17.3,7 c0.3-0.5,0.9-0.6,1.4-0.3C19.2,7,19.3,7.7,18.9,8.2C19,8.2,18.9,8.2,18.9,8.2z"/>
</svg>