<svg className="mr-3" width="20px" height="20px" viewBox="0 0 20 20" version="1.1" xmlns="http://www.w3.org/2000/svg" xmlns:xlink="http://www.w3.org/1999/xlink">
    <g stroke="none" strokeWidth="1" fill="none" fillRule="evenodd">
        <path d="M10,0 C15.5233333,0 20,4.47666667 20,10 C20,15.5233333 15.5233333,20 10,20 C4.47666667,20 0,15.5233333 0,10 C0,4.47666667 4.47666667,0 10,0 Z" fill="#000" />
        <path d="M13.922589,6.07741102 C14.2229923,6.37781432 14.2461002,6.85050686 13.9919128,7.1774162 L13.922589,7.25592232 L11.1783333,9.99933333 L13.922589,12.7440777 C14.2480259,13.0695146 14.2480259,13.5971521 13.922589,13.922589 C13.6221857,14.2229923 13.1494931,14.2461002 12.8225838,13.9919128 L12.7440777,13.922589 L9.99933333,11.1783333 L7.25592232,13.922589 C6.93048541,14.2480259 6.40284793,14.2480259 6.07741102,13.922589 C5.77700771,13.6221857 5.75389977,13.1494931 6.00808718,12.8225838 L6.07741102,12.7440777 L8.82133333,9.99933333 L6.07741102,7.25592232 C5.75197411,6.93048541 5.75197411,6.40284793 6.07741102,6.07741102 C6.37781432,5.77700771 6.85050686,5.75389977 7.1774162,6.00808718 L7.25592232,6.07741102 L9.99933333,8.82133333 L12.7440777,6.07741102 C13.0695146,5.75197411 13.5971521,5.75197411 13.922589,6.07741102 Z" fill="#FFFFFF" fillRule="nonzero" />
    </g>
</svg>