<svg xmlns="http://www.w3.org/2000/svg" version="1.1" xmlns:xlink="http://www.w3.org/1999/xlink" xmlns:svgjs="http://svgjs.com/svgjs" viewBox="0 0 24 24" height="24" width="24"><title>Exported from Streamline App (https://app.streamlineicons.com)</title><g transform="matrix(1,0,0,1,0,0)"><path d="M23.119,20L13.772,2.15l0,0c-0.513-0.978-1.721-1.356-2.7-0.843c-0.36,0.189-0.654,0.483-0.843,0.843L0.881,20 c-0.513,0.978-0.135,2.187,0.844,2.7c0.286,0.15,0.605,0.228,0.928,0.228h18.694c1.105,0,2-0.895,2-2 C23.347,20.605,23.269,20.286,23.119,20z M11,8.423c0-0.552,0.448-1,1-1s1,0.448,1,1v6c0,0.552-0.448,1-1,1s-1-0.448-1-1V8.423z M12.05,19.933h-0.028c-0.819-0.003-1.491-0.651-1.522-1.47c-0.03-0.815,0.606-1.499,1.421-1.529c0.009,0,0.018-0.001,0.027-0.001 h0.028c0.819,0.001,1.492,0.648,1.524,1.467c0.032,0.814-0.602,1.5-1.416,1.532C12.073,19.932,12.061,19.933,12.05,19.933z" stroke="none" fill="#000000" stroke-width="0" stroke-linecap="round" stroke-linejoin="round"></path></g></svg>