<svg xmlns="http://www.w3.org/2000/svg" version="1.1" xmlns:xlink="http://www.w3.org/1999/xlink" xmlns:svgjs="http://svgjs.com/svgjs" viewBox="0 0 24 24" height="24" width="24"><title>Exported from Streamline App (https://app.streamlineicons.com)</title><g transform="matrix(1,0,0,1,0,0)"><path d="M3.25,8.75c1.795,0,3.25,1.455,3.25,3.25s-1.455,3.25-3.25,3.25S0,13.795,0,12S1.455,8.75,3.25,8.75z M12,8.75 c1.795,0,3.25,1.455,3.25,3.25s-1.455,3.25-3.25,3.25S8.75,13.795,8.75,12S10.205,8.75,12,8.75z M20.75,8.75 C22.545,8.75,24,10.205,24,12s-1.455,3.25-3.25,3.25S17.5,13.795,17.5,12S18.955,8.75,20.75,8.75z" stroke="none" fill="#000000" stroke-width="0" stroke-linecap="round" stroke-linejoin="round"></path></g></svg>