<svg xmlns="http://www.w3.org/2000/svg" version="1.1" xmlns:xlink="http://www.w3.org/1999/xlink" xmlns:svgjs="http://svgjs.com/svgjs" viewBox="0 0 24 24" height="24" width="24"><title>Exported from Streamline App (https://app.streamlineicons.com)</title><g transform="matrix(1,0,0,1,0,0)"><path d="M 9.364,18.5l-0.932,0.932c-1.757,1.757-4.607,1.757-6.364,0s-1.757-4.607,0-6.364l4.773-4.774 c1.755-1.759,4.605-1.763,6.364-0.007c1.569,1.565,1.764,4.04,0.461,5.832 " stroke="#000000" fill="none" stroke-width="1.5" stroke-linecap="round" stroke-linejoin="round"></path><path d="M 14.818,5.567l0.75-0.75 c1.757-1.757,4.607-1.757,6.364,0s1.757,4.607,0,6.364l0,0l-4.773,4.773c-1.756,1.759-4.605,1.761-6.364,0.005 c-1.568-1.565-1.763-4.039-0.46-5.831" stroke="#000000" fill="none" stroke-width="1.5" stroke-linecap="round" stroke-linejoin="round"></path></g></svg>