<svg xmlns="http://www.w3.org/2000/svg" version="1.1" xmlns:xlink="http://www.w3.org/1999/xlink" xmlns:svgjs="http://svgjs.com/svgjs" viewBox="0 0 24 24" height="24" width="24"><title>Exported from Streamline App (https://app.streamlineicons.com)</title><g transform="matrix(1,0,0,1,0,0)"><path d="M 20.769,16.269L6.2,1.483C5.144,1.754,4.113,2.115,3.118,2.561C2.586,2.804,2.246,3.338,2.25,3.923v1.239 l15.384,15.379C18.986,19.37,20.058,17.91,20.769,16.269z " stroke="#000000" fill="none" stroke-width="1.5" stroke-linecap="round" stroke-linejoin="round"></path><path d="M 2.25,3.923v7.614c0,4.926,3.034,9.344,7.632,11.113l1.041,0.4 c0.693,0.267,1.461,0.267,2.154,0l1.041-0.4c4.598-1.769,7.632-6.187,7.632-11.113V3.923c0.004-0.585-0.336-1.118-0.868-1.362 C18.082,1.339,15.055,0.722,12,0.75C8.945,0.722,5.918,1.339,3.118,2.561C2.586,2.805,2.246,3.338,2.25,3.923z" stroke="#000000" fill="none" stroke-width="1.5" stroke-linecap="round" stroke-linejoin="round"></path></g></svg>