<svg xmlns="http://www.w3.org/2000/svg" version="1.1" xmlns:xlink="http://www.w3.org/1999/xlink" xmlns:svgjs="http://svgjs.com/svgjs" viewBox="0 0 24 24" height="24" width="24"><title>Exported from Streamline App (https://app.streamlineicons.com)</title><g transform="matrix(1,0,0,1,0,0)"><path d="M 9,9c0-1.657,1.344-3,3.001-2.999c1.657,0,3,1.344,2.999,3.001c0,1.271-0.802,2.404-2,2.828 c-0.6,0.212-1,0.779-1,1.415v1.006 " stroke="#000000" fill="none" stroke-width="1.5" stroke-linecap="round" stroke-linejoin="round"></path><path d="M 12,17.25c-0.207,0-0.375,0.168-0.375,0.375S11.793,18,12,18s0.375-0.168,0.375-0.375 S12.207,17.25,12,17.25L12,17.25 " stroke="#000000" fill="none" stroke-width="1.5" stroke-linecap="round" stroke-linejoin="round"></path><path d="M 12,0.75c6.213,0,11.25,5.037,11.25,11.25S18.213,23.25,12,23.25S0.75,18.213,0.75,12 S5.787,0.75,12,0.75z" stroke="#000000" fill="none" stroke-width="1.5" stroke-linecap="round" stroke-linejoin="round"></path></g></svg>