<svg xmlns="http://www.w3.org/2000/svg" version="1.1" xmlns:xlink="http://www.w3.org/1999/xlink" xmlns:svgjs="http://svgjs.com/svgjs" viewBox="0 0 24 24" height="24" width="24"><title>Exported from Streamline App (https://app.streamlineicons.com)</title><g transform="matrix(1,0,0,1,0,0)"><path d="M 16.5,11c2.899,0,5.25,2.351,5.25,5.25s-2.351,5.25-5.25,5.25s-5.25-2.351-5.25-5.25S13.601,11,16.5,11z " stroke="#000000" fill="none" stroke-width="1.5" stroke-linecap="round" stroke-linejoin="round"></path><path d="M 5.363,6.174l2.121,2.121 " stroke="#000000" fill="none" stroke-width="1.5" stroke-linecap="round" stroke-linejoin="round"></path><path d="M 10.136,8.825l1.061,1.061 " stroke="#000000" fill="none" stroke-width="1.5" stroke-linecap="round" stroke-linejoin="round"></path><path d="M 13.96,8.407L7.5,2.022 " stroke="#000000" fill="none" stroke-width="1.5" stroke-linecap="round" stroke-linejoin="round"></path><path d="M 2.25,7.272l6.407,6.438 " stroke="#000000" fill="none" stroke-width="1.5" stroke-linecap="round" stroke-linejoin="round"></path><path d="M 11.253,16.417 c0.503-1.139,1.834-1.654,2.973-1.15s1.654,1.834,1.15,2.973c-0.503,1.139-1.834,1.654-2.973,1.15 c-0.06-0.026-0.118-0.055-0.175-0.087 " stroke="#000000" fill="none" stroke-width="1.5" stroke-linecap="round" stroke-linejoin="round"></path><path d="M 20.212,14.22c0.828,0,1.5,0.672,1.5,1.5s-0.672,1.5-1.5,1.5s-1.5-0.672-1.5-1.5 S19.384,14.22,20.212,14.22z" stroke="#000000" fill="none" stroke-width="1.5" stroke-linecap="round" stroke-linejoin="round"></path></g></svg>