<svg xmlns="http://www.w3.org/2000/svg" version="1.1" xmlns:xlink="http://www.w3.org/1999/xlink" xmlns:svgjs="http://svgjs.com/svgjs" viewBox="0 0 24 24" height="24" width="24"><title>Exported from Streamline App (https://app.streamlineicons.com)</title><g transform="matrix(1,0,0,1,0,0)"><path d="M 9.775,12.368l-4.17,2.095c-0.973,0.49-2.16,0.097-2.649-0.876c0-0.001-0.001-0.001-0.001-0.002l0,0 c-0.49-0.973-0.097-2.16,0.876-2.649c0.001,0,0.001-0.001,0.002-0.001l6.174-3.1l1.183,2.355 " stroke="#000000" fill="none" stroke-width="1.5" stroke-linecap="round" stroke-linejoin="round"></path><path d="M 10.45,8.714 c-0.49-0.973-0.098-2.16,0.876-2.649c0,0,0.001,0,0.001-0.001l6.175-3.1l2.659,5.292l-5.112,2.568 " stroke="#000000" fill="none" stroke-width="1.5" stroke-linecap="round" stroke-linejoin="round"></path><path d="M 0.75,14.694l2.205-1.109 " stroke="#000000" fill="none" stroke-width="1.5" stroke-linecap="round" stroke-linejoin="round"></path><path d="M 18.822,1.192l0.882-0.443l0,0l3.547,7.059l0,0l-0.882,0.443c-0.974,0.49-2.161,0.097-2.65-0.877c0,0,0,0,0,0l-1.774-3.53 C17.455,2.869,17.847,1.683,18.822,1.192C18.821,1.192,18.822,1.192,18.822,1.192z " stroke="#000000" fill="none" stroke-width="1.5" stroke-linecap="round" stroke-linejoin="round"></path><path d="M 15.43,11.4c0.745,1.48,0.149,3.284-1.331,4.029 c-1.48,0.745-3.284,0.149-4.029-1.331c-0.745-1.479-0.15-3.282,1.329-4.028c1.48-0.746,3.283-0.151,4.029,1.329 C15.43,11.399,15.43,11.4,15.43,11.4z " stroke="#000000" fill="none" stroke-width="1.5" stroke-linecap="round" stroke-linejoin="round"></path><path d="M 12.75,15.75v7.5 " stroke="#000000" fill="none" stroke-width="1.5" stroke-linecap="round" stroke-linejoin="round"></path><path d="M 6,23.25l4.591-8.417 " stroke="#000000" fill="none" stroke-width="1.5" stroke-linecap="round" stroke-linejoin="round"></path><path d="M 19.5,23.25l-4.591-8.417" stroke="#000000" fill="none" stroke-width="1.5" stroke-linecap="round" stroke-linejoin="round"></path></g></svg>