<svg xmlns="http://www.w3.org/2000/svg" version="1.1" xmlns:xlink="http://www.w3.org/1999/xlink" xmlns:svgjs="http://svgjs.com/svgjs" viewBox="0 0 24 24" height="24" width="24"><title>Exported from Streamline App (https://app.streamlineicons.com)</title><g transform="matrix(1,0,0,1,0,0)"><path d="M 14.993,21.682c2.797,0.199,5.565,0.696,8.257,1.483 " stroke="#000000" fill="none" stroke-width="1.5" stroke-linecap="round" stroke-linejoin="round"></path><path d="M 0.75,23.25c2.9-0.872,5.89-1.406,8.912-1.592 " stroke="#000000" fill="none" stroke-width="1.5" stroke-linecap="round" stroke-linejoin="round"></path><path d="M 12,23.25 V12h9v6h-9 " stroke="#000000" fill="none" stroke-width="1.5" stroke-linecap="round" stroke-linejoin="round"></path><path d="M 12,15h9 " stroke="#000000" fill="none" stroke-width="1.5" stroke-linecap="round" stroke-linejoin="round"></path><path d="M 8.206,12.572c-3.215,0.804-6.472-1.151-7.276-4.366S2.081,1.734,5.296,0.93s6.472,1.151,7.276,4.366 c0.255,1.021,0.237,2.092-0.052,3.104 " stroke="#000000" fill="none" stroke-width="1.5" stroke-linecap="round" stroke-linejoin="round"></path><path d="M 1.552,3.751H3c0.828,0,1.5,0.672,1.5,1.5v0.7c0,0.502,0.25,0.971,0.668,1.249l0.958,0.639 C6.77,8.267,6.945,9.136,6.517,9.78c-0.103,0.155-0.236,0.288-0.391,0.391L3.6,11.854 " stroke="#000000" fill="none" stroke-width="1.5" stroke-linecap="round" stroke-linejoin="round"></path><path d="M 11.948,3.751h-0.7 C10.42,3.752,9.749,4.424,9.75,5.253c0,0.232,0.054,0.462,0.158,0.669c0.427,0.854,0.525,0.9,0.789,1.054l1.9,1.138 " stroke="#000000" fill="none" stroke-width="1.5" stroke-linecap="round" stroke-linejoin="round"></path><path d="M 15.75,12v3" stroke="#000000" fill="none" stroke-width="1.5" stroke-linecap="round" stroke-linejoin="round"></path></g></svg>