<svg xmlns="http://www.w3.org/2000/svg" version="1.1" xmlns:xlink="http://www.w3.org/1999/xlink" xmlns:svgjs="http://svgjs.com/svgjs" viewBox="0 0 24 24" height="24" width="24"><title>Exported from Streamline App (https://app.streamlineicons.com)</title><g transform="matrix(1,0,0,1,0,0)"><path d="M 0.75,16.5c0-0.828,0.672-1.5,1.5-1.5s1.5,0.672,1.5,1.5 " stroke="#000000" fill="none" stroke-width="1.5" stroke-linecap="round" stroke-linejoin="round"></path><path d="M 2.25,15V9.75c0-1.657,1.343-3,3-3h1.5 " stroke="#000000" fill="none" stroke-width="1.5" stroke-linecap="round" stroke-linejoin="round"></path><path d="M 23.25,16.5 c0-0.828-0.672-1.5-1.5-1.5s-1.5,0.672-1.5,1.5 " stroke="#000000" fill="none" stroke-width="1.5" stroke-linecap="round" stroke-linejoin="round"></path><path d="M 21.75,15V9.75c0-1.657-1.343-3-3-3h-1.5 " stroke="#000000" fill="none" stroke-width="1.5" stroke-linecap="round" stroke-linejoin="round"></path><path d="M 17.25,6.75 c0.565,1.43,0.821,2.964,0.75,4.5c0.012,1.132-0.113,2.261-0.372,3.363c-0.167,0.668-0.767,1.137-1.456,1.137H7.828 c-0.689,0-1.289-0.469-1.456-1.137C6.113,13.511,5.988,12.382,6,11.25c-0.071-1.536,0.185-3.07,0.75-4.5H17.25z " stroke="#000000" fill="none" stroke-width="1.5" stroke-linecap="round" stroke-linejoin="round"></path><path d="M 10.5,15.75v6.75 c0,0.414-0.336,0.75-0.75,0.75H7.5v-7.536 " stroke="#000000" fill="none" stroke-width="1.5" stroke-linecap="round" stroke-linejoin="round"></path><path d="M 5.25,23.25H7.5 " stroke="#000000" fill="none" stroke-width="1.5" stroke-linecap="round" stroke-linejoin="round"></path><path d="M 13.5,15.75v6.75c0,0.414,0.336,0.75,0.75,0.75h2.25v-7.536 " stroke="#000000" fill="none" stroke-width="1.5" stroke-linecap="round" stroke-linejoin="round"></path><path d="M 18.75,23.25H16.5 " stroke="#000000" fill="none" stroke-width="1.5" stroke-linecap="round" stroke-linejoin="round"></path><path d="M 12,0.75c-1.657,0-3,1.343-3,3v3h6v-3C15,2.093,13.657,0.75,12,0.75z " stroke="#000000" fill="none" stroke-width="1.5" stroke-linecap="round" stroke-linejoin="round"></path><path d="M 14.625,9.75 C14.832,9.75,15,9.918,15,10.125 " stroke="#000000" fill="none" stroke-width="1.5" stroke-linecap="round" stroke-linejoin="round"></path><path d="M 14.25,10.125c0-0.207,0.168-0.375,0.375-0.375 " stroke="#000000" fill="none" stroke-width="1.5" stroke-linecap="round" stroke-linejoin="round"></path><path d="M 14.625,10.5c-0.207,0-0.375-0.168-0.375-0.375 " stroke="#000000" fill="none" stroke-width="1.5" stroke-linecap="round" stroke-linejoin="round"></path><path d="M 15,10.125c0,0.207-0.168,0.375-0.375,0.375 " stroke="#000000" fill="none" stroke-width="1.5" stroke-linecap="round" stroke-linejoin="round"></path><path d="M 9,10.5h2.25" stroke="#000000" fill="none" stroke-width="1.5" stroke-linecap="round" stroke-linejoin="round"></path></g></svg>