<svg xmlns="http://www.w3.org/2000/svg" version="1.1" xmlns:xlink="http://www.w3.org/1999/xlink" xmlns:svgjs="http://svgjs.com/svgjs" viewBox="0 0 24 24" height="24" width="24"><title>Exported from Streamline App (https://app.streamlineicons.com)</title><g transform="matrix(1,0,0,1,0,0)"><path d="M 20.828,14.357c-3.222,3.222-8.446,3.222-11.667-0.001S5.939,5.911,9.161,2.689L20.828,14.357z " stroke="#000000" fill="none" stroke-width="1.5" stroke-linecap="round" stroke-linejoin="round"></path><path d="M 21.359,5.341 c-0.879,0.879-2.303,0.879-3.182,0c-0.879-0.879-0.879-2.303,0-3.182c0.879-0.879,2.303-0.879,3.182,0 c0.879,0.878,0.879,2.302,0.001,3.181C21.36,5.34,21.359,5.341,21.359,5.341z " stroke="#000000" fill="none" stroke-width="1.5" stroke-linecap="round" stroke-linejoin="round"></path><path d="M 18.177,5.341l-3.182,3.182 " stroke="#000000" fill="none" stroke-width="1.5" stroke-linecap="round" stroke-linejoin="round"></path><path d="M 3.25,22.522l4.243-4.242 c0.586-0.586,1.535-0.586,2.121,0l4.243,4.242" stroke="#000000" fill="none" stroke-width="1.5" stroke-linecap="round" stroke-linejoin="round"></path></g></svg>