<svg xmlns="http://www.w3.org/2000/svg" version="1.1" xmlns:xlink="http://www.w3.org/1999/xlink" xmlns:svgjs="http://svgjs.com/svgjs" viewBox="0 0 24 24" height="24" width="24"><title>Exported from Streamline App (https://app.streamlineicons.com)</title><g transform="matrix(1,0,0,1,0,0)"><path d="M 3.25,12.75h14.5c0.552,0,1,0.448,1,1v9.5l0,0H2.25l0,0v-9.5C2.25,13.198,2.698,12.75,3.25,12.75z " stroke="#000000" fill="none" stroke-width="1.5" stroke-linecap="round" stroke-linejoin="round"></path><path d="M 16.5,12.75 c0-3.314-2.686-6-6-6s-6,2.686-6,6 " stroke="#000000" fill="none" stroke-width="1.5" stroke-linecap="round" stroke-linejoin="round"></path><path d="M 10.5,6.75V4.743c0.003-0.276,0.13-0.537,0.346-0.709c0.227-0.181,0.517-0.265,0.806-0.233 c4.334,0.34,7.876,3.598,8.575,7.889c0.033,0.273-0.061,0.546-0.254,0.741c-0.203,0.206-0.481,0.321-0.77,0.319H17.25 " stroke="#000000" fill="none" stroke-width="1.5" stroke-linecap="round" stroke-linejoin="round"></path><path d="M 15.975,5.258l1.904-1.922l2.809,2.835l-1.843,1.86 " stroke="#000000" fill="none" stroke-width="1.5" stroke-linecap="round" stroke-linejoin="round"></path><path d="M 19.707,5.18L18.83,4.3c-0.915-0.924-0.915-2.412,0-3.336l0.033-0.033 c0.229-0.233,0.603-0.235,0.836-0.006c0.002,0.002,0.004,0.004,0.006,0.006l3.37,3.4c0.233,0.236,0.233,0.615,0,0.851l0,0 c-0.922,0.93-2.422,0.936-3.352,0.014C19.718,5.191,19.712,5.185,19.707,5.18z " stroke="#000000" fill="none" stroke-width="1.5" stroke-linecap="round" stroke-linejoin="round"></path><path d="M 8.75,16.5h3.5c0.276,0,0.5,0.224,0.5,0.5v6.25l0,0 h-4.5l0,0V17C8.25,16.724,8.474,16.5,8.75,16.5z " stroke="#000000" fill="none" stroke-width="1.5" stroke-linecap="round" stroke-linejoin="round"></path><path d="M 0.75,23.25h19.5" stroke="#000000" fill="none" stroke-width="1.5" stroke-linecap="round" stroke-linejoin="round"></path></g></svg>