<svg xmlns="http://www.w3.org/2000/svg" version="1.1" xmlns:xlink="http://www.w3.org/1999/xlink" xmlns:svgjs="http://svgjs.com/svgjs" viewBox="0 0 24 24" height="24" width="24"><title>Exported from Streamline App (https://app.streamlineicons.com)</title><g transform="matrix(1,0,0,1,0,0)"><path d="M 5.33,17.848C1.432,14.299,1.149,8.262,4.697,4.364C7.7,1.066,12.587,0.287,16.466,2.488 " stroke="#000000" fill="none" stroke-width="1.5" stroke-linecap="round" stroke-linejoin="round"></path><path d="M 1.982,17.78 c-1.213,2.125-1.619,3.774-0.934,4.46c1.04,1.039,4.294-0.43,8.062-3.418 " stroke="#000000" fill="none" stroke-width="1.5" stroke-linecap="round" stroke-linejoin="round"></path><path d="M 13.423,18.067l-3.58-3.58L17.8,6.53 c0.649-0.649,1.462-1.109,2.353-1.33L22.2,4.686c0.452-0.113,0.91,0.163,1.023,0.615c0.033,0.134,0.033,0.274,0,0.408l-0.512,2.048 c-0.222,0.89-0.683,1.703-1.332,2.352L13.423,18.067z " stroke="#000000" fill="none" stroke-width="1.5" stroke-linecap="round" stroke-linejoin="round"></path><path d="M 9.843,14.487L6.911,13.51c-0.221-0.073-0.341-0.312-0.268-0.533 c0.021-0.063,0.056-0.12,0.103-0.167l1.022-1.022c0.906-0.906,2.246-1.222,3.462-0.817l1.6,0.532L9.843,14.487z " stroke="#000000" fill="none" stroke-width="1.5" stroke-linecap="round" stroke-linejoin="round"></path><path d="M 13.423,18.067 L14.4,21c0.073,0.221,0.312,0.341,0.533,0.268c0.063-0.021,0.12-0.056,0.167-0.103l1.022-1.022 c0.906-0.906,1.222-2.246,0.817-3.462l-0.532-1.6L13.423,18.067z" stroke="#000000" fill="none" stroke-width="1.5" stroke-linecap="round" stroke-linejoin="round"></path></g></svg>