<svg xmlns="http://www.w3.org/2000/svg" version="1.1" xmlns:xlink="http://www.w3.org/1999/xlink" xmlns:svgjs="http://svgjs.com/svgjs" viewBox="0 0 24 24" height="24" width="24"><title>Exported from Streamline App (https://app.streamlineicons.com)</title><g transform="matrix(1,0,0,1,0,0)"><path d="M 17.2,7.5V6c0-2.899-2.351-5.25-5.25-5.25S6.7,3.101,6.7,6v1.5 " stroke="#000000" fill="none" stroke-width="1.5" stroke-linecap="round" stroke-linejoin="round"></path><path d="M 2.2,23.25c0-5.385,4.365-9.75,9.75-9.75 s9.75,4.365,9.75,9.75 " stroke="#000000" fill="none" stroke-width="1.5" stroke-linecap="round" stroke-linejoin="round"></path><path d="M 17.2,7.5c0,2.071-2.351,4.372-5.25,4.372S6.7,9.571,6.7,7.5s2.35-3.75,5.25-3.75S17.2,5.429,17.2,7.5z " stroke="#000000" fill="none" stroke-width="1.5" stroke-linecap="round" stroke-linejoin="round"></path><path d="M 15.323,18.622c-1.036,0.001-1.874,0.841-1.873,1.877c0.001,1.036,0.841,1.874,1.877,1.873c1.034-0.001,1.871-0.838,1.873-1.872 c0-1.036-0.839-1.875-1.875-1.875l0,0L15.323,18.622z " stroke="#000000" fill="none" stroke-width="1.5" stroke-linecap="round" stroke-linejoin="round"></path><path d="M 7.448,18.622h3 " stroke="#000000" fill="none" stroke-width="1.5" stroke-linecap="round" stroke-linejoin="round"></path><path d="M 7.448,21.622h3 " stroke="#000000" fill="none" stroke-width="1.5" stroke-linecap="round" stroke-linejoin="round"></path><path d="M 6.8,8.25H6.7c-1.657,0-3,1.343-3,3v6.8 " stroke="#000000" fill="none" stroke-width="1.5" stroke-linecap="round" stroke-linejoin="round"></path><path d="M 20.2,18.051v-6.8c0-1.657-1.343-3-3-3h-0.105" stroke="#000000" fill="none" stroke-width="1.5" stroke-linecap="round" stroke-linejoin="round"></path></g></svg>