<svg xmlns="http://www.w3.org/2000/svg" version="1.1" xmlns:xlink="http://www.w3.org/1999/xlink" xmlns:svgjs="http://svgjs.com/svgjs" viewBox="0 0 24 24" height="24" width="24"><title>Exported from Streamline App (https://app.streamlineicons.com)</title><g transform="matrix(1,0,0,1,0,0)"><path d="M 2.251,0.75h19.5c0.828,0,1.5,0.672,1.5,1.5v19.5c0,0.828-0.672,1.5-1.5,1.5h-19.5c-0.828,0-1.5-0.672-1.5-1.5 V2.25C0.751,1.422,1.423,0.75,2.251,0.75z " stroke="#000000" fill="none" stroke-width="1.5" stroke-linecap="round" stroke-linejoin="round"></path><path d="M 12.751,15.75h6 " stroke="#000000" fill="none" stroke-width="1.5" stroke-linecap="round" stroke-linejoin="round"></path><path d="M 5.251,15.75h3 " stroke="#000000" fill="none" stroke-width="1.5" stroke-linecap="round" stroke-linejoin="round"></path><path d="M 12.751,15.75c0,1.243-1.007,2.25-2.25,2.25 s-2.25-1.007-2.25-2.25c0-1.242,1.007-2.249,2.249-2.25c1.243-0.001,2.25,1.006,2.251,2.249 C12.751,15.749,12.751,15.75,12.751,15.75z " stroke="#000000" fill="none" stroke-width="1.5" stroke-linecap="round" stroke-linejoin="round"></path><path d="M 14.251,8.25h-9 " stroke="#000000" fill="none" stroke-width="1.5" stroke-linecap="round" stroke-linejoin="round"></path><path d="M 18.751,8.25c0-1.243-1.007-2.25-2.25-2.25 c-1.243,0-2.25,1.007-2.25,2.25c0,1.242,1.007,2.249,2.249,2.25C17.743,10.5,18.75,9.493,18.751,8.25z" stroke="#000000" fill="none" stroke-width="1.5" stroke-linecap="round" stroke-linejoin="round"></path></g></svg>