<svg xmlns="http://www.w3.org/2000/svg" version="1.1" xmlns:xlink="http://www.w3.org/1999/xlink" xmlns:svgjs="http://svgjs.com/svgjs" viewBox="0 0 24 24" height="24" width="24"><title>Exported from Streamline App (https://app.streamlineicons.com)</title><g transform="matrix(1,0,0,1,0,0)"><path d="M 1.751,6.368l20.541-4.366 " stroke="#000000" fill="none" stroke-width="1.5" stroke-linecap="round" stroke-linejoin="round"></path><path d="M 13.6,0.783L9.2,1.718C8.389,1.889,7.87,2.684,8.041,3.495 c0,0.002,0.001,0.004,0.001,0.005l0.312,1.468l7.336-1.56l-0.312-1.467C15.207,1.13,14.411,0.612,13.6,0.783 C13.6,0.783,13.6,0.783,13.6,0.783z " stroke="#000000" fill="none" stroke-width="1.5" stroke-linecap="round" stroke-linejoin="round"></path><path d="M 10.751,18v-7.5 " stroke="#000000" fill="none" stroke-width="1.5" stroke-linecap="round" stroke-linejoin="round"></path><path d="M 15.251,18v-7.5 " stroke="#000000" fill="none" stroke-width="1.5" stroke-linecap="round" stroke-linejoin="round"></path><path d="M 18.626,6h2.625l-1.385,15.874 c-0.065,0.78-0.718,1.379-1.5,1.376H7.631c-0.78,0-1.43-0.599-1.494-1.376L5.1,9.377" stroke="#000000" fill="none" stroke-width="1.5" stroke-linecap="round" stroke-linejoin="round"></path></g></svg>