<?xml version="1.0" encoding="utf-8"?>
<!-- Generator: Adobe Illustrator 21.0.0, SVG Export Plug-In . SVG Version: 6.00 Build 0)  -->
<svg version="1.1" id="Layer_1" xmlns="http://www.w3.org/2000/svg" xmlns:xlink="http://www.w3.org/1999/xlink" x="0px" y="0px"
	 viewBox="0 0 1024 353.9" style="enable-background:new 0 0 1024 353.9;" xml:space="preserve">
<style type="text/css">
	.st0{stroke:#FFFFFF;stroke-miterlimit:10;}
</style>
<path class="st0" d="M176.4,122.1H147l-42.5,112.3h26.6l6.9-19h40.1l-7.3-21h-26.4l17.2-48.3l30.6,88.4h26.6L176.4,122.1z"/>
<path class="st0" d="M623.3,234.3V122.1H647v91.2h46.6v21H623.3z"/>
<path class="st0" d="M759.6,234.3V122.1h23.6v91.2h46.6v21H759.6z"/>
<path class="st0" d="M492.4,142.2c19.5,0,35.5,16.2,35.5,36.1c0,19.9-15.9,36.1-35.5,36.1c-19.5,0-35.4-16.2-35.4-36.1
	C457,158.4,472.9,142.2,492.4,142.2 M492.4,120.2c-31.5,0-57,26-57,58.1s25.5,58.1,57,58.1c31.5,0,57-26,57-58.1
	S523.9,120.2,492.4,120.2L492.4,120.2z"/>
<path class="st0" d="M938.5,142.2c19.6,0,35.5,16.2,35.5,36.1c0,19.9-15.9,36.1-35.5,36.1c-19.5,0-35.4-16.2-35.4-36.1
	C903,158.4,918.9,142.2,938.5,142.2 M938.5,120.2c-31.5,0-57,26-57,58.1s25.5,58.1,57,58.1c31.5,0,57-26,57-58.1
	S970,120.2,938.5,120.2L938.5,120.2z"/>
<path class="st0" d="M339,122.1h-27.9h-4h-19.5v112.3h23.5v-38.6H339c19.6,0,35.5-16.9,35.5-36.8C374.5,138.9,358.6,122.1,339,122.1
	z M339,173.7h-27.9V144H339c7.7,0,13.9,7,13.9,14.8C352.9,166.7,346.7,173.7,339,173.7z"/>
<path class="st0" d="M267.4,268.4c-2,0-3.8,1-4.9,2.6c0,0-5.3,6.2-8.2,9.1c-12.1,12.3-26.1,21.9-41.8,28.7
	c-16.2,7-33.4,10.5-51.2,10.5c-17.8,0-35-3.5-51.2-10.5C94.5,302,80.4,292.3,68.3,280c-12.1-12.3-21.6-26.6-28.2-42.6
	c-6.9-16.5-10.3-34-10.3-52.1s3.5-35.6,10.3-52.1c6.6-15.9,16.1-30.3,28.2-42.6c12.1-12.3,26.1-22,41.8-28.7
	c16.2-7,33.4-10.5,51.2-10.5c17.8,0,35,3.5,51.2,10.5c11.4,4.9,22,11.4,31.5,19.3c-0.5,1.5-0.8,3.2-0.8,4.9
	c0,8.3,6.6,15.1,14.8,15.1c8.2,0,14.8-6.8,14.8-15.1c0-8.3-6.6-15.1-14.8-15.1c-2,0-4,0.4-5.7,1.2c-24.8-20.7-56.5-33.1-91-33.1
	C82,39.2,17.7,104.6,17.7,185.4S82,331.6,161.3,331.6c44.4,0,84-20.5,110.4-52.7c1.1-1.1,1.8-2.7,1.8-4.4
	C273.4,271.1,270.7,268.4,267.4,268.4z"/>
</svg>
