<svg xmlns="http://www.w3.org/2000/svg" version="1.1" xmlns:xlink="http://www.w3.org/1999/xlink" xmlns:svgjs="http://svgjs.com/svgjs" viewBox="0 0 24 24" height="24" width="24"><title>Exported from Streamline App (https://app.streamlineicons.com)</title><g transform="matrix(1,0,0,1,0,0)"><path d="M 18.746,12.474c0.152,3.726-2.745,6.87-6.471,7.021c-1.474,0.06-2.927-0.364-4.138-1.208 " stroke="#000000" fill="none" stroke-width="1.5" stroke-linecap="round" stroke-linejoin="round"></path><path d="M 6.08,15.994 c-1.754-3.29-0.509-7.379,2.782-9.133c3.237-1.725,7.259-0.551,9.058,2.645 " stroke="#000000" fill="none" stroke-width="1.5" stroke-linecap="round" stroke-linejoin="round"></path><path d="M 19.235,8.786l-14.47,7.928 " stroke="#000000" fill="none" stroke-width="1.5" stroke-linecap="round" stroke-linejoin="round"></path><path d="M 5.254,13.026l-1.931,1.057 c-1.453,0.796-1.985,2.62-1.189,4.073c0.796,1.453,2.62,1.985,4.073,1.189l14.47-7.928c1.453-0.796,1.985-2.62,1.189-4.073 c-0.796-1.453-2.62-1.985-4.073-1.189l-1.93,1.058 " stroke="#000000" fill="none" stroke-width="1.5" stroke-linecap="round" stroke-linejoin="round"></path><path d="M 3,1.5v3 " stroke="#000000" fill="none" stroke-width="1.5" stroke-linecap="round" stroke-linejoin="round"></path><path d="M 1.5,3h3 " stroke="#000000" fill="none" stroke-width="1.5" stroke-linecap="round" stroke-linejoin="round"></path><path d="M 21,19.5v3 " stroke="#000000" fill="none" stroke-width="1.5" stroke-linecap="round" stroke-linejoin="round"></path><path d="M 19.5,21h3" stroke="#000000" fill="none" stroke-width="1.5" stroke-linecap="round" stroke-linejoin="round"></path></g></svg>