<svg xmlns="http://www.w3.org/2000/svg" version="1.1" xmlns:xlink="http://www.w3.org/1999/xlink" xmlns:svgjs="http://svgjs.com/svgjs" viewBox="0 0 24 24" height="24" width="24"><title>Exported from Streamline App (https://app.streamlineicons.com)</title><g transform="matrix(1,0,0,1,0,0)"><path d="M 12,9.75c1.243,0,2.25,1.007,2.25,2.25s-1.007,2.25-2.25,2.25S9.75,13.243,9.75,12S10.757,9.75,12,9.75z " stroke="#000000" fill="none" stroke-width="1.5" stroke-linecap="round" stroke-linejoin="round"></path><path d="M 18.706,12.772c-0.426,3.703-3.774,6.36-7.478,5.934c-3.703-0.426-6.36-3.774-5.934-7.478C5.687,7.821,8.571,5.25,12,5.25 " stroke="#000000" fill="none" stroke-width="1.5" stroke-linecap="round" stroke-linejoin="round"></path><path d="M 1.148,14.977C-0.489,8.991,3.037,2.811,9.023,1.174S21.189,3.063,22.826,9.05c1.637,5.986-1.889,12.166-7.875,13.803 c-1.948,0.533-4.004,0.53-5.951-0.006 " stroke="#000000" fill="none" stroke-width="1.5" stroke-linecap="round" stroke-linejoin="round"></path><path d="M 17.25,5.25c1.243,0,2.25,1.007,2.25,2.25s-1.007,2.25-2.25,2.25S15,8.743,15,7.5 S16.007,5.25,17.25,5.25z " stroke="#000000" fill="none" stroke-width="1.5" stroke-linecap="round" stroke-linejoin="round"></path><path d="M 3.75,18C4.993,18,6,19.007,6,20.25S4.993,22.5,3.75,22.5S1.5,21.493,1.5,20.25S2.507,18,3.75,18z" stroke="#000000" fill="none" stroke-width="1.5" stroke-linecap="round" stroke-linejoin="round"></path></g></svg>