<svg xmlns="http://www.w3.org/2000/svg" version="1.1" xmlns:xlink="http://www.w3.org/1999/xlink" xmlns:svgjs="http://svgjs.com/svgjs" viewBox="0 0 24 24" height="24" width="24"><title>Exported from Streamline App (https://app.streamlineicons.com)</title><g transform="matrix(1,0,0,1,0,0)"><path d="M 14.856,13.387l2.121,2.121 " stroke="#000000" fill="none" stroke-width="1.5" stroke-linecap="round" stroke-linejoin="round"></path><path d="M 16.447,16.039l1.061-1.061c0.586-0.586,1.536-0.586,2.121,0l3.182,3.182 c0.586,0.586,0.586,1.536,0,2.121l-1.061,1.061c-0.586,0.586-1.536,0.586-2.121,0l-3.182-3.182 C15.861,17.574,15.861,16.625,16.447,16.039z " stroke="#000000" fill="none" stroke-width="1.5" stroke-linecap="round" stroke-linejoin="round"></path><path d="M 10.613,9.144L8.492,7.023 " stroke="#000000" fill="none" stroke-width="1.5" stroke-linecap="round" stroke-linejoin="round"></path><path d="M 2.657,2.25l1.061-1.061c0.586-0.586,1.536-0.586,2.121,0 l3.182,3.182c0.586,0.586,0.586,1.536,0,2.121L7.961,7.553c-0.586,0.586-1.536,0.586-2.121,0L2.657,4.371 C2.072,3.785,2.072,2.836,2.657,2.25z " stroke="#000000" fill="none" stroke-width="1.5" stroke-linecap="round" stroke-linejoin="round"></path><path d="M 12.75,8.25c1.657,0,3,1.343,3,3s-1.343,3-3,3s-3-1.343-3-3S11.093,8.25,12.75,8.25z " stroke="#000000" fill="none" stroke-width="1.5" stroke-linecap="round" stroke-linejoin="round"></path><path d="M 2.947,10.447c-2.96,2.898-3.011,7.646-0.113,10.606s7.646,3.011,10.606,0.113c0.038-0.037,0.076-0.075,0.113-0.113 " stroke="#000000" fill="none" stroke-width="1.5" stroke-linecap="round" stroke-linejoin="round"></path><path d="M 5.6,13.1 c-1.412,1.515-1.328,3.888,0.187,5.3c1.44,1.342,3.673,1.342,5.113,0" stroke="#000000" fill="none" stroke-width="1.5" stroke-linecap="round" stroke-linejoin="round"></path></g></svg>