<svg xmlns="http://www.w3.org/2000/svg" version="1.1" xmlns:xlink="http://www.w3.org/1999/xlink" xmlns:svgjs="http://svgjs.com/svgjs" viewBox="0 0 24 24" height="24" width="24"><title>Exported from Streamline App (https://app.streamlineicons.com)</title><g transform="matrix(1,0,0,1,0,0)"><path d="M 7.75,19.5h4c0.552,0,1,0.448,1,1v1.75c0,0.552-0.448,1-1,1h-4c-0.552,0-1-0.448-1-1V20.5 C6.75,19.948,7.198,19.5,7.75,19.5z " stroke="#000000" fill="none" stroke-width="1.5" stroke-linecap="round" stroke-linejoin="round"></path><path d="M 18.75,23.25v-3c0-2-1.319-3.76-3.239-4.32c-0.747-0.217-1.262-0.902-1.261-1.68v-3 c0-2.485-2.015-4.5-4.5-4.5s-4.5,2.015-4.5,4.5v3c0,0.778-0.514,1.462-1.261,1.679c-1.92,0.56-3.239,2.32-3.239,4.32v3 " stroke="#000000" fill="none" stroke-width="1.5" stroke-linecap="round" stroke-linejoin="round"></path><path d="M 5.25,11.25 l1.658-0.829c1.789-0.895,3.895-0.895,5.684,0l1.658,0.829 " stroke="#000000" fill="none" stroke-width="1.5" stroke-linecap="round" stroke-linejoin="round"></path><path d="M 5.25,14.25l1.658,0.829c1.789,0.895,3.895,0.895,5.684,0l1.658-0.829 " stroke="#000000" fill="none" stroke-width="1.5" stroke-linecap="round" stroke-linejoin="round"></path><path d="M 0.75,20.25V13.5c0-1.243,1.007-2.25,2.25-2.25 " stroke="#000000" fill="none" stroke-width="1.5" stroke-linecap="round" stroke-linejoin="round"></path><path d="M 18.75,20.25V13.5c0-1.243-1.007-2.25-2.25-2.25 " stroke="#000000" fill="none" stroke-width="1.5" stroke-linecap="round" stroke-linejoin="round"></path><path d="M 11.25,0.75v3 " stroke="#000000" fill="none" stroke-width="1.5" stroke-linecap="round" stroke-linejoin="round"></path><path d="M 9.75,2.25h3 " stroke="#000000" fill="none" stroke-width="1.5" stroke-linecap="round" stroke-linejoin="round"></path><path d="M 21.75,8.25v3 " stroke="#000000" fill="none" stroke-width="1.5" stroke-linecap="round" stroke-linejoin="round"></path><path d="M 20.25,9.75h3 " stroke="#000000" fill="none" stroke-width="1.5" stroke-linecap="round" stroke-linejoin="round"></path><path d="M 18.75,0.75c-0.013,1.651-1.349,2.987-3,3c1.651,0.013,2.987,1.349,3,3c0.013-1.651,1.349-2.987,3-3 C20.099,3.737,18.763,2.401,18.75,0.75" stroke="#000000" fill="none" stroke-width="1.5" stroke-linecap="round" stroke-linejoin="round"></path></g></svg>