<svg xmlns="http://www.w3.org/2000/svg" version="1.1" xmlns:xlink="http://www.w3.org/1999/xlink" xmlns:svgjs="http://svgjs.com/svgjs" viewBox="0 0 24 24" height="24" width="24"><title>Exported from Streamline App (https://app.streamlineicons.com)</title><g transform="matrix(1,0,0,1,0,0)"><path d="M 6,18.75c1.243,0,2.25,1.007,2.25,2.25S7.243,23.25,6,23.25S3.75,22.243,3.75,21S4.757,18.75,6,18.75z " stroke="#000000" fill="none" stroke-width="1.5" stroke-linecap="round" stroke-linejoin="round"></path><path d="M 21,18.75c1.243,0,2.25,1.007,2.25,2.25s-1.007,2.25-2.25,2.25s-2.25-1.007-2.25-2.25S19.757,18.75,21,18.75z " stroke="#000000" fill="none" stroke-width="1.5" stroke-linecap="round" stroke-linejoin="round"></path><path d="M 8.25,21h10.5 " stroke="#000000" fill="none" stroke-width="1.5" stroke-linecap="round" stroke-linejoin="round"></path><path d="M 20.9,18.752l0.757-5.47c0.125-0.991-0.577-1.895-1.568-2.02c-0.941-0.118-1.813,0.51-1.999,1.441l-1.125,4.547H14.25 c-0.828,0-1.5,0.672-1.5,1.5v0.75c0,0.828,0.672,1.5,1.5,1.5h1.5 " stroke="#000000" fill="none" stroke-width="1.5" stroke-linecap="round" stroke-linejoin="round"></path><path d="M 8.25,21v-9.097 " stroke="#000000" fill="none" stroke-width="1.5" stroke-linecap="round" stroke-linejoin="round"></path><path d="M 1.2,4.792C1.236,3.161,2.215,1.7,3.71,1.047 c1.518-0.595,3.244-0.253,4.421,0.875 " stroke="#000000" fill="none" stroke-width="1.5" stroke-linecap="round" stroke-linejoin="round"></path><path d="M 6.765,3.841c-0.534-0.577-1.367-0.769-2.1-0.484c-0.719,0.317-1.17,1.041-1.14,1.826 " stroke="#000000" fill="none" stroke-width="1.5" stroke-linecap="round" stroke-linejoin="round"></path><path d="M 11.837,4.987c1.268,3.062-0.569,5.648-3.63,6.916S2.018,12.641,0.75,9.579L11.837,4.987z" stroke="#000000" fill="none" stroke-width="1.5" stroke-linecap="round" stroke-linejoin="round"></path></g></svg>