<svg xmlns="http://www.w3.org/2000/svg" version="1.1" xmlns:xlink="http://www.w3.org/1999/xlink" xmlns:svgjs="http://svgjs.com/svgjs" viewBox="0 0 24 24" height="24" width="24"><title>Exported from Streamline App (https://app.streamlineicons.com)</title><g transform="matrix(1,0,0,1,0,0)"><path d="M 6.751,23l4.5-7.5 " stroke="#000000" fill="none" stroke-width="1.5" stroke-linecap="round" stroke-linejoin="round"></path><path d="M 15.751,23l-4.5-7.5 " stroke="#000000" fill="none" stroke-width="1.5" stroke-linecap="round" stroke-linejoin="round"></path><path d="M 11.251,15.5V23 " stroke="#000000" fill="none" stroke-width="1.5" stroke-linecap="round" stroke-linejoin="round"></path><path d="M 3.325,10.634L5.639,9.69l0,0l1.134,2.778l0,0 l-2.315,0.945c-0.256,0.104-0.548-0.018-0.652-0.274l-0.756-1.852C2.946,11.031,3.069,10.739,3.325,10.634z " stroke="#000000" fill="none" stroke-width="1.5" stroke-linecap="round" stroke-linejoin="round"></path><path d="M 5.535,8.112 l5.092-2.078l0,0l2.267,5.555l0,0l-5.092,2.078c-0.256,0.104-0.548-0.018-0.652-0.274L5.261,8.764 C5.156,8.508,5.279,8.217,5.535,8.112z " stroke="#000000" fill="none" stroke-width="1.5" stroke-linecap="round" stroke-linejoin="round"></path><path d="M 18.423,1.317c-0.157-0.383-0.594-0.567-0.978-0.411c-0.023,0.009-0.046,0.02-0.068,0.032 L10.66,4.327c-0.34,0.18-0.489,0.589-0.343,0.946l2.888,7.076c0.145,0.357,0.538,0.545,0.907,0.436l7.171-2.279 c0.397-0.118,0.623-0.534,0.505-0.931c-0.007-0.023-0.015-0.046-0.024-0.069L18.423,1.317z " stroke="#000000" fill="none" stroke-width="1.5" stroke-linecap="round" stroke-linejoin="round"></path><path d="M 20.25,14.75v4.5 " stroke="#000000" fill="none" stroke-width="1.5" stroke-linecap="round" stroke-linejoin="round"></path><path d="M 18,17h4.5 " stroke="#000000" fill="none" stroke-width="1.5" stroke-linecap="round" stroke-linejoin="round"></path><path d="M 3.75,1.25 v4.5 " stroke="#000000" fill="none" stroke-width="1.5" stroke-linecap="round" stroke-linejoin="round"></path><path d="M 1.5,3.5H6" stroke="#000000" fill="none" stroke-width="1.5" stroke-linecap="round" stroke-linejoin="round"></path></g></svg>