<svg xmlns="http://www.w3.org/2000/svg" version="1.1" xmlns:xlink="http://www.w3.org/1999/xlink" xmlns:svgjs="http://svgjs.com/svgjs" viewBox="0 0 24 24" height="24" width="24"><title>Exported from Streamline App (https://app.streamlineicons.com)</title><g transform="matrix(1,0,0,1,0,0)"><path d="M 5.962,10.425l2.652-2.652 " stroke="#000000" fill="none" stroke-width="1.5" stroke-linecap="round" stroke-linejoin="round"></path><path d="M 17.364,1.261c2.278,0,4.125,1.847,4.125,4.125s-1.847,4.125-4.125,4.125 s-4.125-1.847-4.125-4.125S15.086,1.261,17.364,1.261z " stroke="#000000" fill="none" stroke-width="1.5" stroke-linecap="round" stroke-linejoin="round"></path><path d="M 5.432,19.44l2.652-2.651c0.586-0.586,0.586-1.536,0-2.122 s-1.536-0.586-2.122,0l-2.651,2.652c-0.601,0.57-1.551,0.544-2.121-0.057c-0.547-0.578-0.548-1.483-0.001-2.062l4.773-4.773 c-0.587,0.586-1.538,0.584-2.124-0.003S3.254,8.886,3.841,8.3l3.182-3.179c1.171-1.172,3.071-1.172,4.243,0c0,0,0,0,0,0 l6.364,6.364c1.172,1.171,1.172,3.071,0,4.243c0,0,0,0,0,0l-3.182,3.182c-0.586,0.586-1.536,0.586-2.122,0s-0.586-1.536,0-2.122 l-4.773,4.773c-0.586,0.586-1.536,0.585-2.122,0S4.846,20.026,5.432,19.44L5.432,19.44z " stroke="#000000" fill="none" stroke-width="1.5" stroke-linecap="round" stroke-linejoin="round"></path><path d="M 14.978,14.137l-2.652,2.652 " stroke="#000000" fill="none" stroke-width="1.5" stroke-linecap="round" stroke-linejoin="round"></path><path d="M 7.023,5.121 l3.712-3.712c0.878-0.879,2.302-0.879,3.181-0.001c0,0,0.001,0.001,0.001,0.001l0.808,0.807 " stroke="#000000" fill="none" stroke-width="1.5" stroke-linecap="round" stroke-linejoin="round"></path><path d="M 17.63,15.728l3.712-3.712 c0.879-0.878,0.879-2.302,0.001-3.181c0,0-0.001-0.001-0.001-0.001l-0.808-0.808 " stroke="#000000" fill="none" stroke-width="1.5" stroke-linecap="round" stroke-linejoin="round"></path><path d="M 11.62,9.718l1.414,1.414 c0.195,0.195,0.195,0.512,0,0.707l-1.414,1.414c-0.195,0.195-0.512,0.195-0.707,0l-1.414-1.414c-0.195-0.195-0.195-0.512,0-0.707 l1.414-1.414C11.108,9.522,11.424,9.522,11.62,9.718z " stroke="#000000" fill="none" stroke-width="1.5" stroke-linecap="round" stroke-linejoin="round"></path><path d="M 20,8.557c-0.198-1.478-0.839-2.861-1.84-3.966 c-1.105-1.002-2.488-1.645-3.966-1.844 " stroke="#000000" fill="none" stroke-width="1.5" stroke-linecap="round" stroke-linejoin="round"></path><path d="M 9.545,19.57l0.569,0.654c3.198,3.671,8.766,4.054,12.437,0.857 c0.245-0.214,0.479-0.441,0.699-0.681" stroke="#000000" fill="none" stroke-width="1.5" stroke-linecap="round" stroke-linejoin="round"></path></g></svg>