<svg xmlns="http://www.w3.org/2000/svg" version="1.1" xmlns:xlink="http://www.w3.org/1999/xlink" xmlns:svgjs="http://svgjs.com/svgjs" viewBox="0 0 24 24" height="24" width="24"><title>Exported from Streamline App (https://app.streamlineicons.com)</title><g transform="matrix(1,0,0,1,0,0)"><path d="M 10.5,12.526c0.001,0.54-0.435,0.978-0.975,0.98h-7.8c-0.54-0.001-0.976-0.439-0.975-0.979 c0,0,0-0.001,0-0.001V1.736c-0.001-0.54,0.436-0.979,0.976-0.98c0,0,0,0,0,0l7.8,0.013c0.539,0.002,0.975,0.441,0.974,0.98 L10.5,12.526z " stroke="#000000" fill="none" stroke-width="1.5" stroke-linecap="round" stroke-linejoin="round"></path><path d="M 23.246,6.544c-0.004,0.535-0.44,0.965-0.975,0.962h-7.8C13.936,7.51,13.5,7.08,13.496,6.545c0,0,0-0.001,0-0.001 V1.731c0.003-0.534,0.439-0.965,0.973-0.962l7.8-0.013c0.535-0.004,0.973,0.427,0.977,0.962L23.246,6.544z " stroke="#000000" fill="none" stroke-width="1.5" stroke-linecap="round" stroke-linejoin="round"></path><path d="M 10.5,22.291 c-0.003,0.536-0.441,0.968-0.977,0.965c0,0,0,0,0,0l-7.8-0.013c-0.535,0.002-0.97-0.429-0.973-0.964V17.47 c0.003-0.535,0.439-0.967,0.974-0.964c0,0,0.001,0,0.001,0h7.8c0.535-0.003,0.972,0.429,0.975,0.964V22.291z " stroke="#000000" fill="none" stroke-width="1.5" stroke-linecap="round" stroke-linejoin="round"></path><path d="M 14.472,23.256 c-0.54-0.001-0.977-0.44-0.976-0.98c0,0,0-0.001,0-0.001V11.487c-0.002-0.54,0.435-0.979,0.975-0.981c0,0,0,0,0,0h7.8 c0.54,0.002,0.977,0.441,0.975,0.981c0,0,0,0,0,0v10.775c0.001,0.54-0.434,0.978-0.974,0.981L14.472,23.256z" stroke="#000000" fill="none" stroke-width="1.5" stroke-linecap="round" stroke-linejoin="round"></path></g></svg>