<svg xmlns="http://www.w3.org/2000/svg" version="1.1" xmlns:xlink="http://www.w3.org/1999/xlink" xmlns:svgjs="http://svgjs.com/svgjs" viewBox="0 0 24 24" height="24" width="24"><title>Exported from Streamline App (https://app.streamlineicons.com)</title><g transform="matrix(1,0,0,1,0,0)"><path d="M 5.628,19.347C1.467,15.928,0.867,9.783,4.286,5.622S13.85,0.861,18.011,4.28 c0.445,0.365,0.856,0.77,1.229,1.208 " stroke="#000000" fill="none" stroke-width="1.5" stroke-linecap="round" stroke-linejoin="round"></path><path d="M 21.567,11.586c0.125,5.384-4.137,9.85-9.521,9.975c-0.2,0.005-0.399,0.003-0.599-0.004 " stroke="#000000" fill="none" stroke-width="1.5" stroke-linecap="round" stroke-linejoin="round"></path><path d="M 3.147,16.273c-1.934,3.015-2.684,5.443-1.742,6.386c1.631,1.631,7.712-1.807,13.583-7.677S24.3,3.03,22.665,1.4 c-0.939-0.939-3.379-0.171-6.377,1.745 " stroke="#000000" fill="none" stroke-width="1.5" stroke-linecap="round" stroke-linejoin="round"></path><path d="M 12.945,5.814c1.036,0,1.875,0.839,1.875,1.875s-0.839,1.875-1.875,1.875 S11.07,8.725,11.07,7.689S11.909,5.814,12.945,5.814z " stroke="#000000" fill="none" stroke-width="1.5" stroke-linecap="round" stroke-linejoin="round"></path><path d="M 2.783,8.147c2.025-0.433,4.018,0.857,4.452,2.882 c0.433,2.025-0.857,4.018-2.882,4.452c-0.257,0.055-0.519,0.083-0.782,0.083c-0.269-0.01-0.537-0.046-0.8-0.107" stroke="#000000" fill="none" stroke-width="1.5" stroke-linecap="round" stroke-linejoin="round"></path></g></svg>