<?xml version="1.0" encoding="UTF-8"?>
<svg width="32px" height="32px" viewBox="0 0 32 32" version="1.1" xmlns="http://www.w3.org/2000/svg" xmlns:xlink="http://www.w3.org/1999/xlink">
    <!-- Generator: Sketch 64 (93537) - https://sketch.com -->
    <title>Group 22</title>
    <desc>Created with Sketch.</desc>
    <defs>
        <polygon id="path-1" points="0 0.0002 32 0.0002 32 32 0 32"></polygon>
    </defs>
    <g id="Page-1" stroke="none" stroke-width="1" fill="none" fill-rule="evenodd">
        <g id="platform-nav-dropdown" transform="translate(-898.000000, -234.000000)">
            <g id="Group-4" transform="translate(248.000000, 57.000000)">
                <g id="Group-22" transform="translate(650.000000, 177.000000)">
                    <g id="Group-3">
                        <mask id="mask-2" fill="white">
                            <use xlink:href="#path-1"></use>
                        </mask>
                        <g id="Clip-2"></g>
                        <path d="M29,30.5002 L3,30.5002 C2.173,30.5002 1.5,29.8272 1.5,29.0002 L1.5,21.8332 L30.5,21.8332 L30.5,29.0002 C30.5,29.8272 29.827,30.5002 29,30.5002 L29,30.5002 Z M1.5,20.3332 L30.5,20.3332 L30.5,11.6662 L1.5,11.6662 L1.5,20.3332 Z M1.5,3.0002 C1.5,2.1732 2.173,1.5002 3,1.5002 L29,1.5002 C29.827,1.5002 30.5,2.1732 30.5,3.0002 L30.5,10.1662 L1.5,10.1662 L1.5,3.0002 Z M29,0.0002 L3,0.0002 C1.343,0.0002 0,1.3432 0,3.0002 L0,10.1662 L0,11.6662 L0,20.3332 L0,21.8332 L0,29.0002 C0,30.6562 1.343,32.0002 3,32.0002 L29,32.0002 C30.657,32.0002 32,30.6562 32,29.0002 L32,3.0002 C32,1.3432 30.657,0.0002 29,0.0002 L29,0.0002 Z" id="Fill-1" fill="#3F20BA" mask="url(#mask-2)"></path>
                    </g>
                    <path d="M5.5,4.3333 C4.672,4.3333 4,5.0053 4,5.8333 C4,6.6613 4.672,7.3333 5.5,7.3333 C6.328,7.3333 7,6.6613 7,5.8333 C7,5.0053 6.328,4.3333 5.5,4.3333" id="Fill-4" fill="#3F20BA"></path>
                    <path d="M5.5,14.5002 C4.672,14.5002 4,15.1722 4,16.0002 C4,16.8282 4.672,17.5002 5.5,17.5002 C6.328,17.5002 7,16.8282 7,16.0002 C7,15.1722 6.328,14.5002 5.5,14.5002" id="Fill-6" fill="#3F20BA"></path>
                    <path d="M5.5,24.6663 C4.672,24.6663 4,25.3383 4,26.1663 C4,26.9953 4.672,27.6663 5.5,27.6663 C6.328,27.6663 7,26.9953 7,26.1663 C7,25.3383 6.328,24.6663 5.5,24.6663" id="Fill-8" fill="#3F20BA"></path>
                    <path d="M10.5,4.3333 C9.672,4.3333 9,5.0053 9,5.8333 C9,6.6613 9.672,7.3333 10.5,7.3333 C11.328,7.3333 12,6.6613 12,5.8333 C12,5.0053 11.328,4.3333 10.5,4.3333" id="Fill-10" fill="#3F20BA"></path>
                    <path d="M10.5,14.5002 C9.672,14.5002 9,15.1722 9,16.0002 C9,16.8282 9.672,17.5002 10.5,17.5002 C11.328,17.5002 12,16.8282 12,16.0002 C12,15.1722 11.328,14.5002 10.5,14.5002" id="Fill-12" fill="#3F20BA"></path>
                    <path d="M10.5,24.6663 C9.672,24.6663 9,25.3383 9,26.1663 C9,26.9953 9.672,27.6663 10.5,27.6663 C11.328,27.6663 12,26.9953 12,26.1663 C12,25.3383 11.328,24.6663 10.5,24.6663" id="Fill-14" fill="#3F20BA"></path>
                    <path d="M15.5,4.3333 C14.672,4.3333 14,5.0053 14,5.8333 C14,6.6613 14.672,7.3333 15.5,7.3333 C16.328,7.3333 17,6.6613 17,5.8333 C17,5.0053 16.328,4.3333 15.5,4.3333" id="Fill-16" fill="#3F20BA"></path>
                    <path d="M15.5,14.5002 C14.672,14.5002 14,15.1722 14,16.0002 C14,16.8282 14.672,17.5002 15.5,17.5002 C16.328,17.5002 17,16.8282 17,16.0002 C17,15.1722 16.328,14.5002 15.5,14.5002" id="Fill-18" fill="#3F20BA"></path>
                    <path d="M15.5,24.6663 C14.672,24.6663 14,25.3383 14,26.1663 C14,26.9953 14.672,27.6663 15.5,27.6663 C16.328,27.6663 17,26.9953 17,26.1663 C17,25.3383 16.328,24.6663 15.5,24.6663" id="Fill-20" fill="#3F20BA"></path>
                </g>
            </g>
        </g>
    </g>
</svg>