<svg xmlns="http://www.w3.org/2000/svg" version="1.1" xmlns:xlink="http://www.w3.org/1999/xlink" xmlns:svgjs="http://svgjs.com/svgjs" viewBox="0 0 24 24" height="24" width="24"><title>layout module 1 (From Streamline App : https://app.streamlineicons.com)</title><g transform="matrix(1,0,0,1,0,0)"><path d="M 2.25,0.747h6c0.828,0,1.5,0.672,1.5,1.5v6c0,0.828-0.672,1.5-1.5,1.5h-6c-0.828,0-1.5-0.672-1.5-1.5v-6 C0.75,1.419,1.422,0.747,2.25,0.747z " stroke="#000000" fill="none" stroke-width="1.5" stroke-linecap="round" stroke-linejoin="round"></path><path d="M 2.25,14.247h6c0.828,0,1.5,0.672,1.5,1.5v6c0,0.828-0.672,1.5-1.5,1.5h-6 c-0.828,0-1.5-0.672-1.5-1.5v-6C0.75,14.919,1.422,14.247,2.25,14.247z " stroke="#000000" fill="none" stroke-width="1.5" stroke-linecap="round" stroke-linejoin="round"></path><path d="M 15.75,0.747h6c0.828,0,1.5,0.672,1.5,1.5v6 c0,0.828-0.672,1.5-1.5,1.5h-6c-0.828,0-1.5-0.672-1.5-1.5v-6C14.25,1.419,14.922,0.747,15.75,0.747z " stroke="#000000" fill="none" stroke-width="1.5" stroke-linecap="round" stroke-linejoin="round"></path><path d="M 15.75,14.247h6 c0.828,0,1.5,0.672,1.5,1.5v6c0,0.828-0.672,1.5-1.5,1.5h-6c-0.828,0-1.5-0.672-1.5-1.5v-6 C14.25,14.919,14.922,14.247,15.75,14.247z" stroke="#000000" fill="none" stroke-width="1.5" stroke-linecap="round" stroke-linejoin="round"></path></g></svg>