<svg xmlns="http://www.w3.org/2000/svg" version="1.1" xmlns:xlink="http://www.w3.org/1999/xlink" xmlns:svgjs="http://svgjs.com/svgjs" viewBox="0 0 24 24" height="24" width="24"><title>Exported from Streamline App (https://app.streamlineicons.com)</title><g transform="matrix(1,0,0,1,0,0)"><path d="M 12.729,1.2l3.346,6.629l6.44,0.638c0.443,0.037,0.772,0.426,0.736,0.869c-0.016,0.191-0.099,0.37-0.236,0.505 l-5.3,5.253l1.965,7.138c0.115,0.434-0.143,0.879-0.577,0.994c-0.192,0.051-0.396,0.03-0.574-0.059L12,19.934l-6.52,3.229 c-0.401,0.202-0.89,0.04-1.092-0.361c-0.089-0.178-0.11-0.382-0.059-0.574l1.965-7.138L0.99,9.837 C0.674,9.524,0.672,9.014,0.985,8.699C1.12,8.562,1.299,8.479,1.49,8.463l6.44-0.638L11.271,1.2c0.206-0.403,0.7-0.562,1.102-0.356 C12.526,0.923,12.651,1.047,12.729,1.2z" stroke="#000000" fill="none" stroke-width="1.5" stroke-linecap="round" stroke-linejoin="round"></path></g></svg>