<?xml version="1.0" encoding="utf-8"?>
<svg version="1.1" id="Layer_1" xmlns="http://www.w3.org/2000/svg" xmlns:xlink="http://www.w3.org/1999/xlink" x="0px" y="0px"
	 viewBox="0 0 140 140" style="enable-background:new 0 0 140 140;" xml:space="preserve">
<path fill="#000000" d="M65.7,54c0-7.3,0-14.7,0-22c0-3,0.8-5.6,4.2-5.6c3.4-0.1,4.4,2.4,4.4,5.4c0,15.2,0,30.3,0,45.5c0,3-0.8,5.6-4.2,5.6
	c-3.7,0-4.4-2.8-4.4-5.9C65.7,69.3,65.7,61.7,65.7,54z"/>
<ellipse fill="#000000" cx="70" cy="98.5" rx="6.4" ry="6.5"/>
<path fill="#000000" d="M70,140c-38.6,0-70-31.4-70-70S31.4,0,70,0c38.6,0,70,31.4,70,70S108.6,140,70,140z M70,11c-32.5,0-59,26.5-59,59
	s26.5,59,59,59c32.5,0,59-26.5,59-59S102.6,11,70,11z"/>
</svg>
