<svg xmlns="http://www.w3.org/2000/svg" version="1.1" xmlns:xlink="http://www.w3.org/1999/xlink" xmlns:svgjs="http://svgjs.com/svgjs" viewBox="0 0 24 24" height="24" width="24"><title>Exported from Streamline App (https://app.streamlineicons.com)</title><g transform="matrix(1,0,0,1,0,0)"><path d="M 2.783,21l18.75-18 " stroke="#000000" fill="none" stroke-width="1.5" stroke-linecap="round" stroke-linejoin="round"></path><path d="M 8.964,19.051C9.947,19.356,10.971,19.508,12,19.5c4.1,0.069,8.258-2.813,10.824-5.637 c0.57-0.633,0.57-1.593,0-2.226c-0.93-1.02-1.959-1.943-3.074-2.757 " stroke="#000000" fill="none" stroke-width="1.5" stroke-linecap="round" stroke-linejoin="round"></path><path d="M 14.413,6.282C13.624,6.086,12.813,5.991,12,6 C7.969,5.933,3.8,8.752,1.179,11.635c-0.57,0.633-0.57,1.593,0,2.226c0.797,0.872,1.667,1.675,2.6,2.4 " stroke="#000000" fill="none" stroke-width="1.5" stroke-linecap="round" stroke-linejoin="round"></path><path d="M 8.25,12.75 C8.249,10.679,9.927,9.001,11.998,9C11.999,9,11.999,9,12,9 " stroke="#000000" fill="none" stroke-width="1.5" stroke-linecap="round" stroke-linejoin="round"></path><path d="M 15.75,12.749L15.75,12.749c0.001,2.071-1.678,3.75-3.749,3.751 c0,0-0.001,0-0.001,0" stroke="#000000" fill="none" stroke-width="1.5" stroke-linecap="round" stroke-linejoin="round"></path></g></svg>