<svg xmlns="http://www.w3.org/2000/svg" version="1.1" xmlns:xlink="http://www.w3.org/1999/xlink" xmlns:svgjs="http://svgjs.com/svgjs" viewBox="0 0 24 24" height="24" width="24"><title>Exported from Streamline App (https://app.streamlineicons.com)</title><g transform="matrix(1,0,0,1,0,0)"><path d="M 12,4.5c2.071,0,3.75,1.679,3.75,3.75S14.071,12,12,12s-3.75-1.679-3.75-3.75S9.929,4.5,12,4.5z " stroke="#000000" fill="none" stroke-width="1.5" stroke-linecap="round" stroke-linejoin="round"></path><path d="M 12,0.75 c4.142,0,7.5,3.358,7.5,7.5c0,3.407-5.074,11.95-6.875,14.665c-0.229,0.345-0.694,0.439-1.04,0.21 c-0.083-0.055-0.155-0.127-0.21-0.21C9.574,20.2,4.5,11.657,4.5,8.25C4.5,4.108,7.858,0.75,12,0.75z" stroke="#000000" fill="none" stroke-width="1.5" stroke-linecap="round" stroke-linejoin="round"></path></g></svg>