<?xml version="1.0" encoding="UTF-8"?>
<svg width="34px" height="34px" viewBox="0 0 34 34" version="1.1" xmlns="http://www.w3.org/2000/svg" xmlns:xlink="http://www.w3.org/1999/xlink">
    <!-- Generator: Sketch 64 (93537) - https://sketch.com -->
    <title>icon-operations copy</title>
    <desc>Created with Sketch.</desc>
    <g id="Page-1" stroke="none" stroke-width="1" fill="none" fill-rule="evenodd" stroke-linecap="round" stroke-linejoin="round">
        <g id="platform-nav-dropdown" transform="translate(-610.000000, -149.000000)" stroke="#3F20BA" stroke-width="1.5">
            <g id="Group-4" transform="translate(248.000000, 57.000000)">
                <g id="icon-operations-copy" transform="translate(363.000000, 93.000000)">
                    <path d="M29.0465477,31.6717949 L2.79013744,31.6717949 C1.34078359,31.6717949 0.16449641,30.4955077 0.16449641,29.0461538 L0.16449641,2.78974359 C0.16449641,1.34038974 1.34078359,0.164102564 2.79013744,0.164102564 L29.0465477,0.164102564 C30.4959015,0.164102564 31.6721887,1.34038974 31.6721887,2.78974359 L31.6721887,29.0461538 C31.6721887,30.4955077 30.4959015,31.6717949 29.0465477,31.6717949 Z" id="Stroke-5"></path>
                    <path d="M19.0645169,24.7012431 C22.1404554,25.1896123 22.7010297,22.6729354 22.1548964,20.5396021 C22.0236144,20.0328533 21.8818297,19.4801559 21.755799,18.9852226 C21.5247426,18.0820021 21.9592862,17.1420226 22.7968656,16.7311097 L24.4523323,15.9184738 L22.7968656,15.1045251 C21.9592862,14.6936123 21.5247426,13.7536328 21.755799,12.8517251 C21.8818297,12.355479 22.0236144,11.8027815 22.1548964,11.2960328 C22.7010297,9.16269949 22.1404554,6.64602256 19.0645169,7.13439179" id="Stroke-1"></path>
                    <path d="M12.7709867,24.7012431 C9.69504821,25.1896123 9.13447385,22.6729354 9.68192,20.5396021 C9.81188923,20.0328533 9.95367385,19.4801559 10.0797046,18.9852226 C10.310761,18.0820021 9.87621744,17.1420226 9.03995077,16.7311097 L7.3844841,15.9184738 L9.03995077,15.1045251 C9.87621744,14.6936123 10.310761,13.7536328 10.0797046,12.8517251 C9.95367385,12.355479 9.81188923,11.8027815 9.68192,11.2960328 C9.13447385,9.16269949 9.69504821,6.64602256 12.7709867,7.13439179" id="Stroke-3"></path>
                </g>
            </g>
        </g>
    </g>
</svg>