<svg width="24" height="26" viewBox="0 0 24 26" fill="none" xmlns="http://www.w3.org/2000/svg"><path clip-rule="evenodd" d="M11.94 21.5a1.75 1.75 0 110 3.5 1.75 1.75 0 010-3.5zM11.94 1a1.75 1.75 0 110 3.498 1.75 1.75 0 010-3.498zM21.13 5.948a1.75 1.75 0 110 3.499 1.75 1.75 0 010-3.499zM2.75 5.948a1.75 1.75 0 110 3.499 1.75 1.75 0 010-3.499zM21.13 16.552a1.75 1.75 0 110 3.499 1.75 1.75 0 010-3.499zM2.75 16.552a1.75 1.75 0 110 3.499 1.75 1.75 0 010-3.499z" stroke="#000000" stroke-width="1.5" stroke-linecap="round" stroke-linejoin="round"/><path d="M10.543 3.828l-6.008 3.18M13.371 3.828l6.009 3.18M10.19 22.561C7.843 21.32 4.535 19.38 4.535 19.38M13.725 22.561l5.655-3.181M4.535 18.673H19.38M2.767 9.483v7.07M21.147 9.483v7.07M12.664 4.535l7.423 12.37M11.25 4.535l-7.422 12.37" stroke="#000000" stroke-width="1.5" stroke-linecap="round" stroke-linejoin="round"/></svg>