<svg xmlns="http://www.w3.org/2000/svg" version="1.1" xmlns:xlink="http://www.w3.org/1999/xlink" xmlns:svgjs="http://svgjs.com/svgjs" viewBox="0 0 24 24" height="24" width="24"><title>Exported from Streamline App (https://app.streamlineicons.com)</title><g transform="matrix(1,0,0,1,0,0)"><path d="M 22.5,1.567l-2.158,0.24c-1.693,0.188-3.271,0.947-4.475,2.151L6.06,13.765l4.24,4.242L20.109,8.2 c1.205-1.204,1.963-2.782,2.151-4.475L22.5,1.567z " stroke="#000000" fill="none" stroke-width="1.5" stroke-linecap="round" stroke-linejoin="round"></path><path d="M 6.06,13.765l-3.622-1.208c-0.393-0.13-0.605-0.554-0.475-0.947 C2,11.499,2.062,11.399,2.145,11.316l0.232-0.232c1.607-1.607,3.984-2.169,6.14-1.45l1.255,0.418L6.06,13.765z " stroke="#000000" fill="none" stroke-width="1.5" stroke-linecap="round" stroke-linejoin="round"></path><path d="M 6.06,13.765 l-3.622-1.208c-0.393-0.13-0.605-0.554-0.475-0.947C2,11.499,2.062,11.399,2.145,11.316l0.232-0.232 c1.607-1.607,3.984-2.169,6.14-1.45l1.255,0.418L6.06,13.765z " stroke="#000000" fill="none" stroke-width="1.5" stroke-linecap="round" stroke-linejoin="round"></path><path d="M 10.3,18.007l1.208,3.622c0.13,0.393,0.554,0.605,0.947,0.475 c0.111-0.037,0.212-0.099,0.294-0.182l0.233-0.232c1.607-1.607,2.168-3.984,1.449-6.14l-0.416-1.25L10.3,18.007z " stroke="#000000" fill="none" stroke-width="1.5" stroke-linecap="round" stroke-linejoin="round"></path><path d="M 10.3,18.007 l1.208,3.622c0.13,0.393,0.554,0.605,0.947,0.475c0.111-0.037,0.212-0.099,0.294-0.182l0.233-0.232 c1.607-1.607,2.168-3.984,1.449-6.14l-0.416-1.25L10.3,18.007z " stroke="#000000" fill="none" stroke-width="1.5" stroke-linecap="round" stroke-linejoin="round"></path><path d="M 7.779,18.538c0.001,0.597-0.236,1.169-0.659,1.591 c-0.878,0.878-5.3,2.121-5.3,2.121s1.243-4.425,2.121-5.3c0.386-0.387,0.899-0.619,1.444-0.655" stroke="#000000" fill="none" stroke-width="1.5" stroke-linecap="round" stroke-linejoin="round"></path></g></svg>