<?xml version="1.0" encoding="UTF-8"?>
<svg width="24px" height="24px" viewBox="0 0 24 24" version="1.1" xmlns="http://www.w3.org/2000/svg" xmlns:xlink="http://www.w3.org/1999/xlink">
    <!-- Generator: Sketch 64 (93537) - https://sketch.com -->
    <title>streamline-icon-headphones-customer-support-human@24x24</title>
    <desc>Created with Sketch.</desc>
    <g id="Page-1" stroke="none" stroke-width="1" fill="none" fill-rule="evenodd" stroke-linecap="round" stroke-linejoin="round">
        <g id="Contact-Us" transform="translate(-590.000000, -165.000000)" stroke="#000000" stroke-width="1.5">
            <g id="Group-15" transform="translate(590.000000, 156.000000)">
                <g id="streamline-icon-headphones-customer-support-human@24x24" transform="translate(0.000000, 9.000000)">
                    <path d="M4.5,18 L3.75,18 C2.09314575,18 0.75,16.6568542 0.75,15 L0.75,12 C0.75,10.3431458 2.09314575,9 3.75,9 L4.5,9 C4.91421356,9 5.25,9.33578644 5.25,9.75 L5.25,17.25 C5.25,17.6642136 4.91421356,18 4.5,18 Z" id="Path"></path>
                    <path d="M20.25,18 L19.5,18 C19.0857864,18 18.75,17.6642136 18.75,17.25 L18.75,9.75 C18.75,9.33578644 19.0857864,9 19.5,9 L20.25,9 C21.9068542,9 23.25,10.3431458 23.25,12 L23.25,15 C23.25,16.6568542 21.9068542,18 20.25,18 Z" id="Path"></path>
                    <path d="M3.75,9 C3.75,4.44365081 7.44365081,0.75 12,0.75 L12,0.75 C14.188036,0.75 16.2864558,1.61919393 17.8336309,3.16636906 C19.3808061,4.71354418 20.25,6.81196396 20.25,9" id="Path"></path>
                    <path d="M15,21.75 L17.25,21.75 C18.9068542,21.75 20.25,20.4068542 20.25,18.75 L20.25,18.75 L20.25,18" id="Path"></path>
                    <path d="M13.5,23.25 L12,23.25 C11.1715729,23.25 10.5,22.5784271 10.5,21.75 L10.5,21.75 C10.5,20.9215729 11.1715729,20.25 12,20.25 L13.5,20.25 C14.3284271,20.25 15,20.9215729 15,21.75 L15,21.75 C15,22.5784271 14.3284271,23.25 13.5,23.25 Z" id="Path"></path>
                </g>
            </g>
        </g>
    </g>
</svg>