<?xml version="1.0" encoding="UTF-8"?>
<svg width="32px" height="32px" viewBox="0 0 32 32" version="1.1" xmlns="http://www.w3.org/2000/svg" xmlns:xlink="http://www.w3.org/1999/xlink">
    <!-- Generator: Sketch 64 (93537) - https://sketch.com -->
    <title>streamline-icon-tools-wench-screwdriver@32x32</title>
    <desc>Created with Sketch.</desc>
    <g id="Page-1" stroke="none" stroke-width="1" fill="none" fill-rule="evenodd" stroke-linecap="round" stroke-linejoin="round">
        <g id="platform-nav-dropdown" transform="translate(-897.000000, -317.000000)" stroke="#3F20BA" stroke-width="1.5">
            <g id="Group-4" transform="translate(248.000000, 57.000000)">
                <g id="streamline-icon-tools-wench-screwdriver@32x32" transform="translate(650.000000, 261.000000)">
                    <path d="M5.12133333,29.056 C3.94975328,30.22758 2.05024672,30.22758 0.878666667,29.056 C-0.292913383,27.88442 -0.292913383,25.9849134 0.878666667,24.8133333 L9.364,16.3333333 L13.6066667,20.576 L5.12133333,29.056 Z" id="Path"></path>
                    <line x1="23.5053333" y1="6.42933333" x2="11.4853333" y2="18.4493333" id="Path"></line>
                    <path d="M26.3333333,6.42933333 C25.5520345,7.21026397 24.2855973,7.20996549 23.5046667,6.42866667 C22.723736,5.64736784 22.7240345,4.38093064 23.5053333,3.6 L27.0413333,0.0666666667 L29.8693333,2.89333333 L26.3333333,6.42933333 Z" id="Path"></path>
                    <path d="M13.9866667,11.0933333 L9.93333333,7.03333333 C10.6596153,5.18407848 10.2214682,3.08023928 8.81733333,1.67466667 C8.01293845,0.875953247 6.95850364,0.377921092 5.83066667,0.264 C6.81650939,1.83950355 6.584249,3.88698008 5.27055479,5.20163017 C3.95686058,6.51628026 1.90955353,6.75002984 0.333333333,5.76533333 C0.494718497,7.3095956 1.36974654,8.68925088 2.69788379,9.49351613 C4.02602103,10.2977814 5.65408599,10.4338962 7.09733333,9.86133333 L10.1986667,12.9626667" id="Path"></path>
                    <path d="M16.9826667,19.7466667 L20.3493333,23.112 C19.4844082,25.3161297 20.2840796,27.8247331 22.2650462,29.1216734 C24.2460129,30.4186138 26.8650723,30.148256 28.5393308,28.4739975 C30.2135893,26.799739 30.4839471,24.1806795 29.1870068,22.1997129 C27.8900664,20.2187463 25.381463,19.4190749 23.1773333,20.284 L18.8293333,15.936" id="Path"></path>
                    <path d="M24.6466667,24.5813333 C24.7896167,24.4382053 25.0047244,24.3953134 25.191638,24.4726674 C25.3785516,24.5500214 25.50044,24.7323789 25.50044,24.9346667 C25.50044,25.1369544 25.3785516,25.3193119 25.191638,25.3966659 C25.0047244,25.47402 24.7896167,25.431128 24.6466667,25.288 C24.4516977,25.0927883 24.4516977,24.776545 24.6466667,24.5813333" id="Path"></path>
                </g>
            </g>
        </g>
    </g>
</svg>