<svg width="26" height="26" viewBox="0 0 26 26" fill="none" xmlns="http://www.w3.org/2000/svg"><path clip-rule="evenodd" d="M13 1c6.628 0 12 5.372 12 12s-5.372 12-12 12S1 19.628 1 13 6.372 1 13 1z" stroke="#000000" stroke-width="2" stroke-linecap="round" stroke-linejoin="round"/><path fill-rule="evenodd" clip-rule="evenodd" d="M9.613 8.21a1 1 0 00-1.32 1.497L11.586 13l-3.293 3.293-.083.094a1 1 0 001.497 1.32L13 14.414l3.293 3.293.094.083a1 1 0 001.32-1.497L14.414 13l3.293-3.293.083-.094a1 1 0 00-1.497-1.32L13 11.586 9.707 8.293l-.094-.083z" fill="#000000"/></svg>