<svg xmlns="http://www.w3.org/2000/svg" version="1.1" xmlns:xlink="http://www.w3.org/1999/xlink" xmlns:svgjs="http://svgjs.com/svgjs" viewBox="0 0 24 24" height="24" width="24"><title>Exported from Streamline App (https://app.streamlineicons.com)</title><g transform="matrix(1,0,0,1,0,0)"><path d="M 12,5.251C7.969,5.183,3.8,8,1.179,10.885c-0.57,0.633-0.57,1.593,0,2.226C3.743,15.935,7.9,18.817,12,18.748 c4.1,0.069,8.258-2.813,10.824-5.637c0.57-0.633,0.57-1.593,0-2.226C20.2,8,16.031,5.183,12,5.251z " stroke="#000000" fill="none" stroke-width="1.5" stroke-linecap="round" stroke-linejoin="round"></path><path d="M 15.75,12 c-0.001,2.071-1.68,3.75-3.751,3.749s-3.75-1.68-3.749-3.751C8.251,9.927,9.929,8.249,12,8.249c2.071-0.001,3.749,1.677,3.75,3.748 C15.75,11.998,15.75,11.999,15.75,12z" stroke="#000000" fill="none" stroke-width="1.5" stroke-linecap="round" stroke-linejoin="round"></path></g></svg>