<?xml version="1.0" encoding="UTF-8"?>
<svg width="32px" height="31px" viewBox="0 0 32 31" version="1.1" xmlns="http://www.w3.org/2000/svg" xmlns:xlink="http://www.w3.org/1999/xlink">
    <!-- Generator: Sketch 64 (93537) - https://sketch.com -->
    <title>streamline-icon-monitor@32x32</title>
    <desc>Created with Sketch.</desc>
    <g id="Page-1" stroke="none" stroke-width="1" fill="none" fill-rule="evenodd" stroke-linecap="round" stroke-linejoin="round">
        <g id="platform-nav-dropdown" transform="translate(-898.000000, -150.000000)" stroke="#000000" stroke-width="1.5">
            <g id="Group-4" transform="translate(248.000000, 57.000000)">
                <g id="streamline-icon-monitor@32x32" transform="translate(651.000000, 94.000000)">
                    <polygon id="Path" points="20 29.0322581 10 29.0322581 11 23.2258065 19 23.2258065"></polygon>
                    <line x1="7" y1="29.0322581" x2="23" y2="29.0322581" id="Path"></line>
                    <line x1="0" y1="19.3548387" x2="30" y2="19.3548387" id="Path"></line>
                    <path d="M2,0 L28,0 C29.1045695,-2.16501571e-15 30,0.8954305 30,2 L30,21.2258065 C30,22.330376 29.1045695,23.2258065 28,23.2258065 L2,23.2258065 C0.8954305,23.2258065 1.3527075e-16,22.330376 0,21.2258065 L0,2 C-1.3527075e-16,0.8954305 0.8954305,2.02906125e-16 2,0 Z" id="Path"></path>
                </g>
            </g>
        </g>
    </g>
</svg>