<svg xmlns="http://www.w3.org/2000/svg" version="1.1" xmlns:xlink="http://www.w3.org/1999/xlink" xmlns:svgjs="http://svgjs.com/svgjs" viewBox="0 0 24 24" height="24" width="24"><title>Exported from Streamline App (https://app.streamlineicons.com)</title><g transform="matrix(1,0,0,1,0,0)"><path d="M 1.5,17.25V7.5c0-1.243,1.007-2.25,2.25-2.25S6,6.257,6,7.5v5.25 " stroke="#000000" fill="none" stroke-width="1.5" stroke-linecap="round" stroke-linejoin="round"></path><path d="M 18,12.75V7.5c0-1.243,1.007-2.25,2.25-2.25 S22.5,6.257,22.5,7.5v9.75 " stroke="#000000" fill="none" stroke-width="1.5" stroke-linecap="round" stroke-linejoin="round"></path><path d="M 6,7.5V6.75c0-3.314,2.686-6,6-6s6,2.686,6,6V7.5 " stroke="#000000" fill="none" stroke-width="1.5" stroke-linecap="round" stroke-linejoin="round"></path><path d="M 21,21.75c0,0.828-0.672,1.5-1.5,1.5h-15 c-0.828,0-1.5-0.672-1.5-1.5v-1.5c0-0.472,0.222-0.917,0.6-1.2l4.2-3.15C8.555,15.333,9,14.444,9,13.5V8.41 c-0.05-1.695,1.285-3.11,2.98-3.159c0.007,0,0.013,0,0.02-0.001c1.657,0,3,1.343,3,3v5.25c0,0.944,0.445,1.833,1.2,2.4l4.2,3.15 c0.378,0.283,0.6,0.728,0.6,1.2L21,21.75z " stroke="#000000" fill="none" stroke-width="1.5" stroke-linecap="round" stroke-linejoin="round"></path><path d="M 11.25,9h1.5 " stroke="#000000" fill="none" stroke-width="1.5" stroke-linecap="round" stroke-linejoin="round"></path><path d="M 12,18.75v4.5" stroke="#000000" fill="none" stroke-width="1.5" stroke-linecap="round" stroke-linejoin="round"></path></g></svg>